<svg xmlns="http://www.w3.org/2000/svg" viewBox="0 0 600 600"><defs><style>.cls-1{fill:#ffeb4d;}.cls-2,.cls-3{fill:none;stroke:#1c419f;stroke-width:6px;}.cls-2{stroke-linecap:round;stroke-linejoin:round;}.cls-3{stroke-miterlimit:10;}.cls-4{fill:#ff4d5c;opacity:0.8;}.cls-5{fill:#1c419f;}</style></defs><title>sailormoon-combine</title><g id="moon"><path class="cls-1" d="M112.36,567c-13.95,4-85.64-58.51-77.48-90.15s56.58-19.15,64.74-50.79S59.36,381.94,67.52,350.3s56.58-19.15,64.74-50.79S92,255.37,100.17,223.73s56.58-19.15,64.74-50.8S122.2,125.31,133.6,94.69c1.19-3.19,20.48,33.78,23.78,34.63s15.78-47.56,19.08-46.71-9.19,49.27-5.89,50.12S186.35,85.15,189.64,86s-9.19,49.27-5.89,50.12,15.79-47.56,19.09-46.71S179,108.24,178.47,111.61c-4.84,32.32,40.77,41.58,32.61,73.23S154.5,204,146.34,235.63s40.25,44.13,32.09,75.77-56.58,19.15-64.74,50.79,40.25,44.13,32.09,75.77-66.21,24.89-65.53,57.56C81,532.47,120.8,564.57,112.36,567Z"/><circle class="cls-1" cx="182.91" cy="88.74" r="59.93"/><path class="cls-1" d="M544.05,564.2c-7,5.79-68.13-22.6-75-54.35s37.9-39.11,31-70.86-51.66-24.38-58.54-56.13,37.9-39.11,31-70.86S420.88,287.62,414,255.87s37.9-39.11,31-70.86-55.15-26.59-59-58.67c-.4-3.34,31.13,22.64,34.18,22.14s-7.48-49.08-4.43-49.58,13.58,48.08,16.63,47.58S424.94,97.39,428,96.89s13.58,48.08,16.63,47.57-7.48-49.08-4.42-49.58-11.38,26.23-10.35,29.47c9.88,31.08,51,21.88,57.87,53.63s-37.9,39.11-31,70.86,51.66,24.38,58.54,56.13-37.9,39.11-31,70.86,51.66,24.38,58.54,56.13S499.46,480,514,509.24C530.41,542.34,552.05,557.55,544.05,564.2Z"/><circle class="cls-1" cx="422.69" cy="88.74" r="59.93"/><path class="cls-2" d="M426.53,294.75c-20.84,82.35-93.38,162.93-123.81,162.93-36.68,0-106.83-79.3-123-160.22C166,229,162.23,84.1,301.63,83.72,444.4,83.33,444.5,223.71,426.53,294.75Z"/><path class="cls-3" d="M173.87,251.2c-10.91,0-21.19,1.83-21.22,16.38s6.42,33.57,15.56,41.59a3.27,3.27,0,0,1,1.07,2.74,14,14,0,0,0,.52,5,14.08,14.08,0,0,0,17.67,9.54"/><path class="cls-3" d="M433.72,251.23c10.07.3,19,2.75,19.07,16.34,0,14.48-6.42,33.57-15.56,41.59a3.27,3.27,0,0,0-1.07,2.74,14,14,0,0,1-.52,5,14.08,14.08,0,0,1-19.34,8.91"/><path class="cls-4" d="M350.88,284.7c-1.84-7.63,9-16.15,24.31-19s45.4-17.36,47.25-9.73-25.31,34.5-40.57,37.37S352.73,292.33,350.88,284.7Z"/><path class="cls-4" d="M254.56,284.7c1.84-7.63-9-16.15-24.31-19s-45.4-17.36-47.25-9.73,25.31,34.5,40.57,37.37S252.71,292.33,254.56,284.7Z"/><path class="cls-4" d="M324.1,407.14c0,5.94-9.54,10.76-21.3,10.76s-21.3-4.82-21.3-10.76,7.74-2.75,19.5-2.75S324.1,401.2,324.1,407.14Z"/><path class="cls-2" d="M291.26,291.65l-8.65,71.24a3.52,3.52,0,0,0,2.19,3.7L299,372.24a9.45,9.45,0,0,0,7.3-.13L320.16,366"/><line class="cls-2" x1="274" y1="398" x2="332" y2="398"/><path class="cls-5" d="M188.61,258l93.06,23.1a1.37,1.37,0,0,1,1,1.9l-4.09,8.42c-1.56,3.22-5.89,4.6-9.42,3Z"/><path class="cls-5" d="M416.83,258l-93.06,23.1a1.37,1.37,0,0,0-1,1.9l4.09,8.42c1.56,3.22,5.89,4.6,9.42,3Z"/><path class="cls-2" d="M197.4,290c6.27,18.08,34.06,32.65,62.08,16.44"/><path class="cls-5" d="M198.92,302.95s.24-.48.63-1.11c.2-.31.43-.67.7-1a11.83,11.83,0,0,1,.85-1c.31-.31.48-.95.82-1.12a1.47,1.47,0,0,1,1.22.27,5.76,5.76,0,0,1,.63.45l.29.25.27.28c.17.18.29.28.39.41l.15.18a1,1,0,0,1,.23.56l0,.24c0,.16,0,.32,0,.57v.39l0,.38a5.78,5.78,0,0,1-.13.76c-.13.47-.33.92-.68,1.05s-.93-.22-1.37-.22a11.85,11.85,0,0,1-1.33-.14c-.43-.06-.85-.16-1.21-.24-.72-.17-1.23-.35-1.23-.35a.4.4,0,0,1-.25-.51Z"/><path class="cls-5" d="M202.48,307.33s.23-.54.63-1.25c.2-.35.43-.76.7-1.16a14.31,14.31,0,0,1,.87-1.21c.32-.37.47-1.06.83-1.29a1.7,1.7,0,0,1,1.38.06,5.74,5.74,0,0,1,.73.34l.34.2.32.23c.2.15.34.24.46.35l.18.16a.87.87,0,0,1,.29.52l0,.24c0,.16,0,.33.05.58l0,.39v.39a5.73,5.73,0,0,1-.09.8,1.7,1.7,0,0,1-.68,1.2c-.39.18-1.05-.06-1.53,0a14.29,14.29,0,0,1-1.49.1c-.48,0-1,0-1.36,0-.81,0-1.39-.13-1.39-.13a.38.38,0,0,1-.32-.43A.4.4,0,0,1,202.48,307.33Z"/><path class="cls-5" d="M208.09,312.23s.14-.6.42-1.42c.15-.41.31-.88.52-1.36s.45-1,.69-1.45.29-1.19.63-1.52a1.9,1.9,0,0,1,1.44-.32,5.77,5.77,0,0,1,.82.15l.39.11.37.15c.23.1.39.15.54.23l.22.11a.81.81,0,0,1,.4.45l.08.23c.06.16.09.32.16.57l.1.39.06.4a5.77,5.77,0,0,1,0,.83,1.9,1.9,0,0,1-.49,1.39c-.37.29-1.1.23-1.59.43s-1,.38-1.53.5-1,.25-1.41.34c-.85.18-1.46.24-1.46.24a.37.37,0,0,1-.4-.33A.38.38,0,0,1,208.09,312.23Z"/><path class="cls-5" d="M214.9,315.38s0-.61.13-1.45c.06-.42.13-.91.24-1.41a15.77,15.77,0,0,1,.38-1.53c.17-.49.05-1.2.31-1.59a1.84,1.84,0,0,1,1.34-.56,5.73,5.73,0,0,1,.83,0l.4,0,.39.08c.25.06.41.08.57.13l.23.07a.82.82,0,0,1,.47.37l.12.21c.09.14.15.3.27.52l.17.36.14.37a5.76,5.76,0,0,1,.21.8,1.84,1.84,0,0,1-.21,1.43c-.31.35-1,.41-1.46.7a15.76,15.76,0,0,1-1.39.75c-.46.23-.92.42-1.31.58-.79.32-1.37.49-1.37.49a.37.37,0,0,1-.46-.25A.38.38,0,0,1,214.9,315.38Z"/><path class="cls-5" d="M222.19,317.76s-.1-.59-.15-1.43c0-.42-.05-.9,0-1.41a15.3,15.3,0,0,1,.07-1.55c.07-.51-.18-1.17,0-1.59a1.8,1.8,0,0,1,1.2-.77,5.73,5.73,0,0,1,.81-.14l.4,0h.4c.25,0,.42,0,.58,0l.24,0a.84.84,0,0,1,.53.27l.16.18c.12.12.21.26.36.46l.24.32.21.34a5.74,5.74,0,0,1,.36.74,1.8,1.8,0,0,1,.08,1.43c-.23.39-.92.58-1.29.93a15.31,15.31,0,0,1-1.21,1c-.4.3-.81.56-1.16.79-.71.45-1.25.72-1.25.72a.37.37,0,0,1-.5-.17A.38.38,0,0,1,222.19,317.76Z"/><path class="cls-5" d="M230.58,319.56s-.36-.47-.79-1.18c-.21-.35-.46-.76-.68-1.21a14.76,14.76,0,0,1-.64-1.38c-.17-.47-.7-.94-.73-1.38a1.75,1.75,0,0,1,.72-1.21,5.75,5.75,0,0,1,.65-.48l.34-.2.36-.17c.23-.1.37-.18.53-.24l.23-.08a.86.86,0,0,1,.6,0l.23.08c.16.06.3.14.53.24l.36.17.34.2a5.75,5.75,0,0,1,.65.48,1.75,1.75,0,0,1,.72,1.21c0,.44-.56.91-.73,1.38a14.76,14.76,0,0,1-.64,1.38c-.22.44-.47.85-.68,1.21-.43.71-.79,1.18-.79,1.18a.38.38,0,0,1-.53.07Z"/><path class="cls-5" d="M237.41,319.73s-.43-.41-1-1c-.26-.32-.57-.69-.86-1.09a14.82,14.82,0,0,1-.85-1.27c-.24-.44-.84-.82-.93-1.25a1.76,1.76,0,0,1,.52-1.31,5.74,5.74,0,0,1,.57-.58l.3-.25.33-.23c.21-.14.34-.24.49-.32l.21-.12a.85.85,0,0,1,.59-.09l.24,0c.16,0,.32.09.56.15l.38.11.37.15a5.75,5.75,0,0,1,.72.37,1.76,1.76,0,0,1,.9,1.08c0,.44-.41,1-.5,1.48a14.84,14.84,0,0,1-.41,1.47c-.15.47-.33.92-.48,1.3-.31.77-.59,1.29-.59,1.29a.38.38,0,0,1-.51.15Z"/><path class="cls-5" d="M244.37,318.88s-.46-.37-1.06-1c-.29-.29-.63-.63-1-1a14.93,14.93,0,0,1-1-1.19c-.28-.42-.91-.74-1.05-1.17a1.76,1.76,0,0,1,.39-1.35,5.73,5.73,0,0,1,.51-.63l.28-.28.3-.26c.2-.16.31-.27.45-.37l.2-.14a.85.85,0,0,1,.58-.15l.24,0c.17,0,.33.06.57.1l.39.08.38.11a5.74,5.74,0,0,1,.76.31c.46.25.9.56,1,1s-.31,1-.36,1.53a14.92,14.92,0,0,1-.27,1.51c-.1.49-.24.95-.35,1.34-.24.8-.47,1.34-.47,1.34a.38.38,0,0,1-.49.2Z"/><path class="cls-5" d="M252.74,316s-.57-.07-1.34-.25c-.38-.09-.83-.2-1.28-.34a13.56,13.56,0,0,1-1.37-.49c-.43-.2-1.12-.15-1.43-.43a1.63,1.63,0,0,1-.28-1.32,5.72,5.72,0,0,1,.15-.78l.11-.37.15-.36c.1-.23.15-.38.22-.53l.11-.21a.9.9,0,0,1,.43-.42l.22-.1c.15-.07.31-.12.54-.21l.37-.13.38-.1a5.73,5.73,0,0,1,.79-.13,1.63,1.63,0,0,1,1.31.32c.27.32.2,1,.39,1.44a13.57,13.57,0,0,1,.45,1.38c.13.45.22.9.31,1.29.16.78.21,1.34.21,1.34a.38.38,0,0,1-.35.42Z"/><path class="cls-5" d="M257.71,313.47s-.48.05-1.13,0c-.32,0-.7,0-1.07,0a9.2,9.2,0,0,1-1.14-.16c-.36-.09-.95.09-1.2-.09s-.22-.64-.15-1.09a6.12,6.12,0,0,1,.18-.71l.12-.35.15-.35c.1-.22.15-.36.23-.51l.11-.21a1.21,1.21,0,0,1,.4-.45l.19-.13c.13-.09.27-.16.47-.29l.33-.19.33-.16a6.11,6.11,0,0,1,.68-.27c.44-.13.88-.2,1.1,0s.1.84.24,1.18a9.21,9.21,0,0,1,.3,1.11c.08.37.13.74.18,1.06.08.65.09,1.13.09,1.13A.45.45,0,0,1,257.71,313.47Z"/><path class="cls-2" d="M408,290C401.77,308,374,322.61,346,306.41"/><path class="cls-5" d="M406.29,303.5s-.51.18-1.23.35c-.36.08-.78.17-1.21.24a11.86,11.86,0,0,1-1.33.14c-.44,0-1,.34-1.37.22s-.55-.58-.68-1.05a5.78,5.78,0,0,1-.13-.76l0-.38v-.39c0-.24,0-.4,0-.57l0-.24a1,1,0,0,1,.23-.56l.15-.18c.1-.13.22-.23.39-.41l.27-.28.29-.25a5.76,5.76,0,0,1,.63-.45,1.47,1.47,0,0,1,1.22-.27c.34.17.51.81.82,1.12a11.83,11.83,0,0,1,.85,1c.26.35.5.71.7,1,.39.63.63,1.11.63,1.11a.4.4,0,0,1-.18.54Z"/><path class="cls-5" d="M402.66,307.85s-.58.09-1.39.13c-.4,0-.87,0-1.36,0a14.29,14.29,0,0,1-1.49-.1c-.48-.08-1.14.16-1.53,0a1.7,1.7,0,0,1-.68-1.2,5.73,5.73,0,0,1-.09-.8v-.39l0-.39c0-.25,0-.41.05-.58l0-.24a.87.87,0,0,1,.29-.52l.18-.16c.12-.11.26-.2.46-.35l.32-.23.34-.2a5.74,5.74,0,0,1,.73-.34,1.7,1.7,0,0,1,1.38-.06c.36.23.51.92.83,1.29a14.31,14.31,0,0,1,.87,1.21c.27.4.5.81.7,1.16.4.71.63,1.25.63,1.25a.38.38,0,0,1-.2.5Z"/><path class="cls-5" d="M397,312.68s-.61-.07-1.46-.24c-.42-.09-.91-.2-1.41-.34s-1-.32-1.53-.5-1.21-.14-1.59-.43a1.9,1.9,0,0,1-.49-1.39,5.78,5.78,0,0,1,0-.83l.06-.4.1-.39c.07-.24.1-.41.16-.57l.08-.23a.81.81,0,0,1,.4-.45l.22-.11c.15-.08.31-.13.54-.23l.37-.15.39-.11a5.78,5.78,0,0,1,.82-.15,1.9,1.9,0,0,1,1.44.32c.33.33.36,1.06.63,1.52s.5,1,.69,1.45.37,1,.52,1.36c.28.82.42,1.42.42,1.42a.37.37,0,0,1-.27.44Z"/><path class="cls-5" d="M390.07,315.75s-.58-.17-1.37-.49c-.39-.16-.85-.35-1.31-.58a15.76,15.76,0,0,1-1.39-.75c-.43-.29-1.15-.35-1.46-.7a1.84,1.84,0,0,1-.21-1.43,5.75,5.75,0,0,1,.21-.8l.14-.37.17-.36c.11-.22.18-.38.27-.52l.12-.21a.82.82,0,0,1,.47-.37l.23-.07c.16-.05.33-.07.57-.13l.39-.08.4,0a5.73,5.73,0,0,1,.83,0,1.84,1.84,0,0,1,1.34.56c.26.38.14,1.09.31,1.59a15.77,15.77,0,0,1,.38,1.53c.11.5.18,1,.24,1.41.11.85.13,1.45.13,1.45a.37.37,0,0,1-.36.38Z"/><path class="cls-5" d="M382.71,318s-.54-.27-1.25-.72c-.35-.23-.76-.49-1.16-.79a15.32,15.32,0,0,1-1.21-1c-.37-.35-1.06-.54-1.29-.93a1.8,1.8,0,0,1,.08-1.43,5.74,5.74,0,0,1,.36-.74l.21-.34.24-.32c.16-.2.25-.34.36-.46l.16-.18a.84.84,0,0,1,.53-.27l.24,0c.17,0,.33,0,.58,0h.4l.4,0a5.73,5.73,0,0,1,.81.14,1.8,1.8,0,0,1,1.2.77c.18.42-.07,1.08,0,1.59a15.28,15.28,0,0,1,.07,1.55c0,.5,0,1,0,1.41-.05.84-.15,1.43-.15,1.43a.37.37,0,0,1-.43.31Z"/><path class="cls-5" d="M374.25,319.56s-.36-.47-.79-1.18c-.21-.35-.46-.76-.68-1.21a14.76,14.76,0,0,1-.64-1.38c-.17-.47-.7-.94-.73-1.38a1.75,1.75,0,0,1,.72-1.21,5.76,5.76,0,0,1,.65-.48l.34-.2.36-.17c.23-.1.37-.18.53-.24l.23-.08a.86.86,0,0,1,.6,0l.23.08c.16.06.3.14.53.24l.36.17.34.2a5.76,5.76,0,0,1,.65.48,1.75,1.75,0,0,1,.72,1.21c0,.44-.56.91-.73,1.38a14.76,14.76,0,0,1-.64,1.38c-.22.44-.47.85-.68,1.21-.43.71-.79,1.18-.79,1.18a.38.38,0,0,1-.53.07Z"/><path class="cls-5" d="M367.44,319.63s-.28-.52-.59-1.29c-.15-.38-.33-.83-.48-1.3a14.85,14.85,0,0,1-.41-1.47c-.09-.49-.54-1-.5-1.48a1.76,1.76,0,0,1,.9-1.08,5.75,5.75,0,0,1,.72-.37l.37-.15.38-.11c.24-.07.4-.12.56-.15l.24,0a.85.85,0,0,1,.59.09l.21.12c.15.08.28.18.49.32l.33.23.3.25a5.74,5.74,0,0,1,.57.58,1.76,1.76,0,0,1,.52,1.31c-.1.43-.69.82-.93,1.25a14.81,14.81,0,0,1-.85,1.27c-.29.4-.6.77-.86,1.09-.53.63-1,1-1,1a.38.38,0,0,1-.53,0Z"/><path class="cls-5" d="M360.48,318.73s-.23-.55-.47-1.34c-.11-.4-.25-.86-.35-1.34a14.92,14.92,0,0,1-.27-1.51c0-.5-.44-1.09-.35-1.53s.54-.75,1-1a5.74,5.74,0,0,1,.76-.31l.38-.11.39-.08c.25,0,.41-.09.57-.1l.24,0a.85.85,0,0,1,.58.15l.2.14c.14.09.26.21.45.37l.3.26.28.28a5.73,5.73,0,0,1,.51.63,1.76,1.76,0,0,1,.39,1.35c-.14.42-.77.75-1.05,1.17a14.93,14.93,0,0,1-1,1.19c-.33.37-.67.71-1,1-.59.58-1.06,1-1.06,1a.38.38,0,0,1-.53-.06Z"/><path class="cls-5" d="M352.26,315.59s.05-.57.21-1.34c.08-.38.18-.83.31-1.29a13.57,13.57,0,0,1,.45-1.38c.19-.44.12-1.12.39-1.44a1.63,1.63,0,0,1,1.31-.32,5.74,5.74,0,0,1,.79.13l.38.1.37.13c.23.09.39.13.54.21l.22.1a.9.9,0,0,1,.43.42l.11.21c.08.15.13.3.22.53l.15.36.11.37a5.73,5.73,0,0,1,.15.78,1.63,1.63,0,0,1-.28,1.32c-.31.28-1,.23-1.43.43a13.56,13.56,0,0,1-1.37.49c-.45.14-.9.25-1.28.34-.77.18-1.34.25-1.34.25a.38.38,0,0,1-.43-.33A.4.4,0,0,1,352.26,315.59Z"/><path class="cls-5" d="M347.33,313s0-.48.09-1.13c0-.32.1-.69.18-1.06a9.21,9.21,0,0,1,.3-1.11c.13-.34,0-1,.24-1.18s.66-.14,1.1,0a6.11,6.11,0,0,1,.68.27l.33.16.33.19c.2.12.34.19.47.29l.19.13a1.21,1.21,0,0,1,.4.45l.11.21c.08.14.13.29.23.51l.15.35.12.35a6.13,6.13,0,0,1,.18.71c.07.45.09.9-.15,1.09s-.84,0-1.2.09a9.2,9.2,0,0,1-1.14.16c-.38,0-.75,0-1.07,0-.65,0-1.13,0-1.13,0A.45.45,0,0,1,347.33,313Z"/><path class="cls-1" d="M302.17,71.08c-81.06,0-158.81,95.46-132.5,162.73,6.41,16.73,104.34,36.81,114.76,16.71-6.92,3.71-16.28-1.47-18.2-6.75-3.4-9.34-6-19.87-6.1-29.81,0-7.06-.5-18.2,6.73-22a5.8,5.8,0,0,1,.51-.36c8-5,20-1.32,27.84,2.2,3.49,1.56,6,3.38,9.76,1.52a51.19,51.19,0,0,1,7.94-3.42A49.13,49.13,0,0,1,329,189.62c19.85,1,19,22.11,16.66,36.74-1.36,8.39-3.3,17.52-10.41,23a14.67,14.67,0,0,1-4.24,2.32,10.21,10.21,0,0,1-9.33-1.15c9,22.43,110.41.71,115.81-17.28C458.69,162.69,394.13,71.09,302.17,71.08Z"/><path class="cls-2" d="M321.39,250.6c22.42,24.56,52.31-96.69-18.59-54.19-70.89-42.5-41,78.75-18.59,54.19"/><path class="cls-2" d="M192.22,169.58c-44.73,55-5.1,75-2.41,68"/><path class="cls-2" d="M218.54,177.26c-35.51,43-8,71.43-2.44,66.76"/><path class="cls-2" d="M244.72,185.26c-32.2,39.6-3.21,68.66-3.67,61.72"/><path class="cls-2" d="M413.38,169.58c44.73,55,5.1,75,2.41,68"/><path class="cls-2" d="M387.06,177.26c35.51,43,8,71.43,2.44,66.76"/><path class="cls-2" d="M360.89,185.26c32.2,39.6,3.21,68.66,3.67,61.72"/></g></svg>