<svg xmlns="http://www.w3.org/2000/svg" viewBox="0 0 600 600"><defs><style>.cls-1{fill:#ff4d5c;}.cls-2{fill:#ffeb4d;}.cls-3{fill:none;stroke:#fff;stroke-linecap:round;stroke-linejoin:round;stroke-width:3.85px;}.cls-4{fill:#57ccff;}.cls-5{fill:#110631;}.cls-6{fill:#f2f2f2;}.cls-7{fill:#fff;}</style></defs><title>poolside</title><g id="socket"><rect class="cls-1" x="122.12" y="145.68" width="346.06" height="317.29" rx="14.91" ry="14.91"/><rect class="cls-2" x="131.82" y="137.03" width="346.06" height="317.29" rx="14.91" ry="14.91"/><path class="cls-3" d="M419.3,156.06h18.55c11.24,0,20.35,8.35,20.35,18.66V412.58"/><path class="cls-3" d="M195.9,437.57H177.35c-11.24,0-20.35-3.7-20.35-8.26V324"/><path class="cls-1" d="M240,225a10,10,0,0,0-10-7.45c-5.64,0-10.21,4.19-10.21,9.36,0,.19,0,.38,0,.57C226.54,227.08,233.25,226,240,225Z"/><path class="cls-1" d="M220,230.73a10.05,10.05,0,0,0,10,7.34c5.64,0,10.21-4.19,10.21-9.36,0-.16,0-.32,0-.47C233.44,229.2,226.75,230.31,220,230.73Z"/><path class="cls-1" d="M377.74,226.57a9,9,0,0,0-4.72-11,10.72,10.72,0,0,0-13.91,3.56c-.1.17-.19.34-.28.51C364.95,222.34,371.37,224.42,377.74,226.57Z"/><path class="cls-1" d="M357.76,222.19a9,9,0,0,0,4.76,10.88,10.72,10.72,0,0,0,13.91-3.56c.09-.14.15-.28.23-.42C370.3,226.91,363.88,224.86,357.76,222.19Z"/><path class="cls-1" d="M368.3,376.34c-4.74-.06-9,2.92-10.1,7.33-1.23,5,2.24,10.05,7.75,11.18l.61.1A182,182,0,0,0,368.3,376.34Z"/><path class="cls-1" d="M370.13,395.06c4.69,0,8.92-3,10-7.32,1.23-5-2.24-10.05-7.75-11.18l-.51-.08C371.43,382.69,371.14,388.91,370.13,395.06Z"/><path class="cls-1" d="M224.3,387.31a9.06,9.06,0,0,0,4.82,11c4.94,2.5,11.15.86,13.88-3.67.1-.17.18-.34.27-.51C237.13,391.44,230.69,389.41,224.3,387.31Z"/><path class="cls-1" d="M243.62,390.91a9.06,9.06,0,0,0-4.85-10.85c-4.94-2.5-11.15-.86-13.88,3.67-.08.14-.15.28-.23.43C231,386.28,237.48,388.28,243.62,390.91Z"/><path class="cls-4" d="M241.76,222.13a10,10,0,0,0-10-7.45c-5.64,0-10.21,4.19-10.21,9.36,0,.19,0,.38,0,.57C228.34,224.2,235.05,223.12,241.76,222.13Z"/><path class="cls-4" d="M221.79,227.85a10.05,10.05,0,0,0,10,7.34c5.64,0,10.21-4.19,10.21-9.36,0-.16,0-.32,0-.47C235.25,226.33,228.56,227.43,221.79,227.85Z"/><path class="cls-4" d="M379.54,223.69a9,9,0,0,0-4.72-11,10.72,10.72,0,0,0-13.91,3.56c-.1.17-.19.34-.28.51C366.75,219.46,373.18,221.54,379.54,223.69Z"/><path class="cls-4" d="M359.56,219.31a9,9,0,0,0,4.76,10.88,10.72,10.72,0,0,0,13.91-3.56c.09-.14.15-.28.23-.42C372.11,224,365.69,222,359.56,219.31Z"/><path class="cls-4" d="M370.11,373.46c-4.74-.06-9,2.92-10.1,7.33-1.23,5,2.24,10.05,7.75,11.18l.61.1A182,182,0,0,0,370.11,373.46Z"/><path class="cls-4" d="M371.93,392.18c4.69,0,8.92-3,10-7.32,1.23-5-2.24-10.05-7.75-11.18l-.51-.08C373.23,379.81,372.95,386,371.93,392.18Z"/><path class="cls-4" d="M226.1,384.43a9.06,9.06,0,0,0,4.82,11c4.94,2.5,11.15.86,13.88-3.67.1-.17.18-.34.27-.51C238.93,388.56,232.49,386.54,226.1,384.43Z"/><path class="cls-4" d="M245.43,388a9.06,9.06,0,0,0-4.85-10.85c-4.94-2.5-11.15-.86-13.88,3.67-.08.14-.15.28-.23.43C232.84,383.41,239.28,385.41,245.43,388Z"/><path class="cls-1" d="M246.79,337.25l-26.52.71a2.47,2.47,0,0,1-2.63-2.28l-1.88-58.82a2.44,2.44,0,0,1,2.48-2.41l26.52-.71a2.47,2.47,0,0,1,2.63,2.28l1.88,58.82A2.44,2.44,0,0,1,246.79,337.25Z"/><path class="cls-1" d="M353.8,271.65l27.11-1a2.19,2.19,0,0,1,2.34,2L385.76,332a2.15,2.15,0,0,1-2.17,2.15l-27.11,1a2.19,2.19,0,0,1-2.34-2l-2.51-59.35A2.15,2.15,0,0,1,353.8,271.65Z"/><path class="cls-4" d="M250,334.38l-26.52.71a2.47,2.47,0,0,1-2.63-2.28L219,274a2.44,2.44,0,0,1,2.48-2.41l26.52-.71a2.47,2.47,0,0,1,2.63,2.28L252.52,332A2.44,2.44,0,0,1,250,334.38Z"/><path class="cls-4" d="M357,268.78l27.11-1a2.19,2.19,0,0,1,2.34,2L389,329.16a2.15,2.15,0,0,1-2.17,2.15l-27.11,1a2.19,2.19,0,0,1-2.34-2l-2.51-59.35A2.15,2.15,0,0,1,357,268.78Z"/><polygon class="cls-5" points="247.88 328.74 225.31 329.35 223.64 277.22 246.22 276.62 247.88 328.74"/><polygon class="cls-6" points="221.15 272.33 240.67 272.01 239.04 289.67 219.74 289.99 221.15 272.33"/><polygon class="cls-5" points="219.74 289.99 239.04 289.67 242.78 301.36 223.48 301.68 219.74 289.99"/><path class="cls-7" d="M223.48,301.68l19.3-.32s-.87,24.85,4.67,26.37l-19.94.33S222.16,323.74,223.48,301.68Z"/><path class="cls-1" d="M240.67,272.38l4.11,10.53,2.4,44.56s-5.88-.65-4.41-25.79L239,289.52Z"/><polygon class="cls-5" points="359.65 273.76 382.22 272.85 384.21 325.75 361.63 326.46 359.65 273.76"/><polygon class="cls-6" points="386.64 330.66 367.12 331.03 368.79 317.3 388.09 316.94 386.64 330.66"/><polygon class="cls-5" points="388.09 316.94 368.79 317.3 364.93 301.68 384.23 301.32 388.09 316.94"/><path class="cls-7" d="M384.23,301.32l-19.3.36s.8-24.85-4.74-26.36l19.94-.37S385.49,279.26,384.23,301.32Z"/><path class="cls-1" d="M367.12,330.66,363,320.14l-2.52-44.55s5.88.64,4.48,25.78l3.85,15.93Z"/></g></svg>