<svg xmlns="http://www.w3.org/2000/svg" viewBox="0 0 1000 1000"><defs><style>.cls-1{fill:#110631;}.cls-2{fill:#ff4d5c;}.cls-3,.cls-4{fill:none;stroke:#110631;stroke-linecap:round;stroke-linejoin:round;}.cls-3{stroke-width:9.78px;}.cls-4{stroke-width:9px;}</style></defs><title>sausagemen</title><g id="Layer_5" data-name="Layer 5"><path class="cls-1" d="M927.66,409c0,28.36-65.13,49-71.16,75.57-6.23,27.4,43.34,74.23,31.41,98.95-12.12,25.13-79.75,15.49-97,37.07S798,706,776.28,723.34s-78.33-20.64-103.46-8.52c-24.72,11.93-30.39,80-57.79,86.25-26.54,6-61.11-52.73-89.47-52.73s-62.93,58.76-89.47,52.73c-27.4-6.23-33.07-74.32-57.79-86.25-25.13-12.12-81.88,25.76-103.46,8.52s2.68-81.1-14.64-102.79-84.87-11.94-97-37.07c-11.93-24.72,37.64-71.55,31.41-98.95-6-26.54-71.16-47.21-71.16-75.57s65.13-49,71.16-75.57c6.23-27.4-43.34-74.23-31.41-98.95,12.12-25.13,79.75-15.49,97-37.07s-7.05-85.47,14.64-102.79,78.33,20.64,103.46,8.52c24.72-11.93,30.39-80,57.79-86.25,26.54-6,61.11,52.73,89.47,52.73S588.49,10.82,615,16.85c27.4,6.23,33.07,74.32,57.79,86.25C698,115.22,754.7,77.34,776.29,94.58s-2.68,81.1,14.64,102.79,84.87,11.94,97,37.07c11.93,24.72-37.64,71.55-31.41,98.95C862.53,359.93,927.66,380.59,927.66,409Z"/><path class="cls-2" d="M686.52,1007.31V680.71a166,166,0,0,1,24-85.51,250.27,250.27,0,0,0,35.85-129.44c0-141-116-255-257.8-251.62C354.13,217.33,244.9,327.73,243.06,462.23a251.06,251.06,0,0,0,86.69,193.59c27.39,23.79,43.72,315.21,43.72,351.49"/><circle class="cls-2" cx="746.41" cy="467.39" r="38.53"/><polygon class="cls-1" points="744.48 368.53 244.96 368.53 361.22 187.12 640.96 193.52 744.48 368.53"/><circle class="cls-1" cx="373.47" cy="450.65" r="19.27"/><circle class="cls-1" cx="530" cy="450.65" r="19.27"/><line class="cls-3" x1="317.14" y1="411.03" x2="386.02" y2="411.03"/><line class="cls-3" x1="475.54" y1="411.03" x2="544.42" y2="411.03"/><polyline class="cls-4" points="450.93 466.31 438.69 510.5 461 510.5"/><ellipse class="cls-1" cx="471" cy="572.99" rx="78.26" ry="26.09"/></g></svg>