<svg xmlns="http://www.w3.org/2000/svg" viewBox="0 0 800 600"><defs><style>.cls-1{fill:#ff4d5c;}.cls-2{fill:#57ccff;}.cls-3{fill:none;stroke:#fff;stroke-linecap:round;stroke-linejoin:round;stroke-width:2px;}.cls-4{fill:#ffbec9;}.cls-5{fill:#110631;}.cls-6{fill:#f2f2f2;}.cls-7{fill:#fff;}.cls-8{fill:#1c419f;}.cls-9{fill:#ffeb4d;}</style></defs><title>objects</title><g id="art"><rect class="cls-1" x="144" y="217.71" width="172.28" height="172.28" rx="7.75" ry="7.75"/><rect class="cls-2" x="148.83" y="213.01" width="172.28" height="172.28" rx="7.75" ry="7.75"/><path class="cls-3" d="M291.94,223.35h9.24a10.13,10.13,0,0,1,10.13,10.13V362.63"/><path class="cls-3" d="M180.73,376.2h-9.24c-5.59,0-10.13-2-10.13-4.49V314.52"/><path class="cls-1" d="M202.66,260.78a5.08,5.08,0,0,0-10.06,1c0,.1,0,.2,0,.31C196,261.91,199.32,261.32,202.66,260.78Z"/><path class="cls-1" d="M192.72,263.89a5.08,5.08,0,0,0,10-1.1c0-.09,0-.17,0-.26C199.42,263.06,196.09,263.66,192.72,263.89Z"/><path class="cls-1" d="M271.26,261.63a5.08,5.08,0,0,0-9.28-4c-.05.09-.09.18-.14.28C264.89,259.33,268.09,260.46,271.26,261.63Z"/><path class="cls-1" d="M261.31,259.25a5.08,5.08,0,0,0,9.29,4l.11-.23C267.55,261.82,264.36,260.7,261.31,259.25Z"/><path class="cls-1" d="M266.56,342.95a5.08,5.08,0,0,0-1.17,10l.3.05C266.2,349.71,266.36,346.32,266.56,342.95Z"/><path class="cls-1" d="M267.47,353.12a5.08,5.08,0,0,0,1.11-10l-.25,0C268.11,346.4,268,349.78,267.47,353.12Z"/><path class="cls-1" d="M194.87,348.91a5.08,5.08,0,0,0,9.31,4c.05-.09.09-.18.13-.28C201.25,351.15,198,350,194.87,348.91Z"/><path class="cls-1" d="M204.49,350.86a5.08,5.08,0,0,0-9.33-3.9l-.11.23C198.22,348.35,201.43,349.44,204.49,350.86Z"/><path class="cls-4" d="M203.56,259.22a5.08,5.08,0,0,0-10.06,1c0,.1,0,.2,0,.31C196.88,260.34,200.22,259.76,203.56,259.22Z"/><path class="cls-4" d="M193.62,262.33a5.08,5.08,0,0,0,10-1.1c0-.09,0-.17,0-.26C200.32,261.5,197,262.1,193.62,262.33Z"/><path class="cls-4" d="M272.15,260.07a5.08,5.08,0,0,0-9.28-4c-.05.09-.09.18-.14.28C265.78,257.77,269,258.9,272.15,260.07Z"/><path class="cls-4" d="M262.21,257.69a5.08,5.08,0,0,0,9.29,4l.11-.23C268.45,260.25,265.25,259.14,262.21,257.69Z"/><path class="cls-4" d="M267.45,341.39a5.08,5.08,0,0,0-1.17,10l.3.05C267.1,348.15,267.25,344.76,267.45,341.39Z"/><path class="cls-4" d="M268.36,351.55a5.08,5.08,0,0,0,1.11-10l-.25,0C269,344.83,268.87,348.22,268.36,351.55Z"/><path class="cls-4" d="M195.76,347.35a5.08,5.08,0,0,0,9.31,4c.05-.09.09-.18.13-.28C202.15,349.59,198.94,348.49,195.76,347.35Z"/><path class="cls-4" d="M205.38,349.3a5.08,5.08,0,0,0-9.33-3.9l-.11.23C199.12,346.79,202.32,347.87,205.38,349.3Z"/><rect class="cls-1" x="191.08" y="287.43" width="15.75" height="34.5" rx="1.27" ry="1.27" transform="translate(-8.86 5.97) rotate(-1.68)"/><rect class="cls-1" x="258.88" y="285.83" width="15.75" height="34.5" rx="1.12" ry="1.12" transform="translate(545.03 595.62) rotate(177.78)"/><rect class="cls-4" x="192.7" y="285.87" width="15.75" height="34.5" rx="1.27" ry="1.27" transform="translate(-8.81 6.02) rotate(-1.68)"/><rect class="cls-4" x="260.49" y="284.28" width="15.75" height="34.5" rx="1.12" ry="1.12" transform="translate(548.2 592.44) rotate(177.78)"/><rect class="cls-5" x="194.95" y="288.96" width="11.24" height="28.31" transform="translate(-8.81 6.02) rotate(-1.68)"/><polygon class="cls-6" points="193.3 286.48 203.01 286.3 202.21 295.89 192.6 296.06 193.3 286.48"/><polygon class="cls-5" points="192.6 296.06 202.21 295.89 204.07 302.24 194.46 302.41 192.6 296.06"/><path class="cls-7" d="M194.46,302.41l9.61-.17s-.43,13.49,2.32,14.32l-9.93.18S193.8,314.39,194.46,302.41Z"/><path class="cls-8" d="M203,286.5l2,5.72,1.2,24.19s-2.93-.35-2.19-14l-1.86-6.6Z"/><polygon class="cls-5" points="262.25 287.25 273.49 286.76 274.47 315.48 263.24 315.87 262.25 287.25"/><polygon class="cls-6" points="275.69 318.15 265.97 318.35 266.8 310.89 276.41 310.7 275.69 318.15"/><polygon class="cls-5" points="276.41 310.7 266.8 310.89 264.88 302.42 274.49 302.22 276.41 310.7"/><path class="cls-7" d="M274.49,302.22l-9.61.2s.4-13.49-2.36-14.31l9.93-.2S275.11,290.24,274.49,302.22Z"/><path class="cls-8" d="M266,318.15l-2.06-5.71-1.26-24.19s2.93.35,2.23,14l1.92,8.65Z"/><rect class="cls-1" x="478.89" y="214.71" width="172.28" height="172.28" rx="7.75" ry="7.75"/><rect class="cls-9" x="483.72" y="210.01" width="172.28" height="172.28" rx="7.75" ry="7.75"/><path class="cls-3" d="M626.84,220.35h9.24a10.13,10.13,0,0,1,10.13,10.13V359.63"/><path class="cls-3" d="M515.62,373.2h-9.24c-5.59,0-10.13-2-10.13-4.49V311.52"/><path class="cls-1" d="M537.55,257.78a5.08,5.08,0,0,0-10.06,1c0,.1,0,.2,0,.31C530.88,258.91,534.22,258.32,537.55,257.78Z"/><path class="cls-1" d="M527.61,260.89a5.08,5.08,0,0,0,10-1.1c0-.09,0-.17,0-.26C534.31,260.06,531,260.66,527.61,260.89Z"/><path class="cls-1" d="M606.15,258.63a5.08,5.08,0,0,0-9.28-4c-.05.09-.09.18-.14.28C599.78,256.33,603,257.46,606.15,258.63Z"/><path class="cls-1" d="M596.2,256.25a5.08,5.08,0,0,0,9.29,4l.11-.23C602.45,258.82,599.25,257.7,596.2,256.25Z"/><path class="cls-1" d="M601.45,339.95a5.08,5.08,0,0,0-1.17,10l.3.05C601.1,346.71,601.25,343.32,601.45,339.95Z"/><path class="cls-1" d="M602.36,350.12a5.08,5.08,0,0,0,1.11-10l-.25,0C603,343.4,602.87,346.78,602.36,350.12Z"/><path class="cls-1" d="M529.76,345.91a5.08,5.08,0,0,0,9.31,4c.05-.09.09-.18.13-.28C536.15,348.15,532.94,347,529.76,345.91Z"/><path class="cls-1" d="M539.38,347.86a5.08,5.08,0,0,0-9.33-3.9l-.11.23C533.12,345.35,536.32,346.44,539.38,347.86Z"/><path class="cls-2" d="M538.45,256.22a5.08,5.08,0,0,0-10.06,1c0,.1,0,.2,0,.31C531.77,257.34,535.11,256.76,538.45,256.22Z"/><path class="cls-2" d="M528.51,259.33a5.08,5.08,0,0,0,10-1.1c0-.09,0-.17,0-.26C535.21,258.5,531.88,259.1,528.51,259.33Z"/><path class="cls-2" d="M607,257.07a5.08,5.08,0,0,0-9.28-4c-.05.09-.09.18-.14.28C600.68,254.77,603.88,255.9,607,257.07Z"/><path class="cls-2" d="M597.1,254.69a5.08,5.08,0,0,0,9.29,4l.11-.23C603.34,257.25,600.15,256.14,597.1,254.69Z"/><path class="cls-2" d="M602.35,338.39a5.08,5.08,0,0,0-1.17,10l.3.05C602,345.15,602.15,341.76,602.35,338.39Z"/><path class="cls-2" d="M603.26,348.55a5.08,5.08,0,0,0,1.11-10l-.25,0C603.9,341.83,603.76,345.22,603.26,348.55Z"/><path class="cls-2" d="M530.66,344.35a5.08,5.08,0,0,0,9.31,4c.05-.09.09-.18.13-.28C537,346.59,533.84,345.49,530.66,344.35Z"/><path class="cls-2" d="M540.28,346.3a5.08,5.08,0,0,0-9.33-3.9l-.11.23C534,343.79,537.22,344.87,540.28,346.3Z"/><rect class="cls-1" x="525.97" y="284.43" width="15.75" height="34.5" rx="1.27" ry="1.27" transform="translate(-8.63 15.8) rotate(-1.68)"/><rect class="cls-1" x="593.77" y="282.83" width="15.75" height="34.5" rx="1.12" ry="1.12" transform="translate(1214.45 576.66) rotate(177.78)"/><rect class="cls-2" x="527.59" y="282.87" width="15.75" height="34.5" rx="1.27" ry="1.27" transform="translate(-8.58 15.85) rotate(-1.68)"/><rect class="cls-2" x="595.39" y="281.28" width="15.75" height="34.5" rx="1.12" ry="1.12" transform="translate(1217.62 573.49) rotate(177.78)"/><rect class="cls-5" x="529.84" y="285.96" width="11.24" height="28.31" transform="translate(-8.58 15.85) rotate(-1.68)"/><polygon class="cls-6" points="528.19 283.48 537.91 283.3 537.1 292.89 527.49 293.06 528.19 283.48"/><polygon class="cls-5" points="527.49 293.06 537.1 292.89 538.96 299.24 529.35 299.41 527.49 293.06"/><path class="cls-7" d="M529.35,299.41l9.61-.17s-.43,13.49,2.32,14.32l-9.93.18S528.7,311.39,529.35,299.41Z"/><path class="cls-1" d="M537.91,283.5l2,5.72,1.2,24.19s-2.93-.35-2.19-14l-1.86-6.6Z"/><polygon class="cls-5" points="597.14 284.25 608.38 283.76 609.37 312.48 598.13 312.87 597.14 284.25"/><polygon class="cls-6" points="610.58 315.15 600.86 315.35 601.69 307.89 611.3 307.7 610.58 315.15"/><polygon class="cls-5" points="611.3 307.7 601.69 307.89 599.77 299.42 609.38 299.22 611.3 307.7"/><path class="cls-7" d="M609.38,299.22l-9.61.2s.4-13.49-2.36-14.31l9.93-.2S610,287.24,609.38,299.22Z"/><path class="cls-1" d="M600.86,315.15l-2.06-5.71-1.26-24.19s2.93.35,2.23,14l1.92,8.65Z"/></g></svg>