<svg xmlns="http://www.w3.org/2000/svg" viewBox="0 0 1200 800"><defs><style>.cls-1{fill:#57ccff;}.cls-2{fill:#fff;}.cls-3{fill:#ffa731;}.cls-10,.cls-11,.cls-12,.cls-4,.cls-6,.cls-7,.cls-8,.cls-9{fill:none;stroke:#fff;stroke-linecap:round;stroke-linejoin:round;}.cls-4{stroke-width:2px;}.cls-5{fill:#110631;}.cls-6{stroke-width:2.43px;}.cls-7{stroke-width:2.86px;}.cls-8{stroke-width:3.29px;}.cls-9{stroke-width:3.71px;}.cls-10{stroke-width:4.14px;}.cls-11{stroke-width:4.57px;}.cls-12{stroke-width:5px;}.cls-13{fill:#ff4d5c;}</style></defs><title>toiletpaper</title><g id="art"><g id="Layer_4" data-name="Layer 4"><rect class="cls-1" x="-12.3" y="-12" width="1224.61" height="824"/><text></text><path class="cls-2" d="M635.14,417.32a.5.5,0,0,1-.49-.51l1-89.28a.5.5,0,0,1,.5-.49l83.6.91a.5.5,0,0,1,.45.3c11.39,26.61,9.49,49.58,5.89,64.16-3.9,15.81-10.6,25.47-10.67,25.56a.5.5,0,0,1-.41.21Z"/><path class="cls-3" d="M636.12,327.54l83.59.91c21.94,51.26-4.73,89.24-4.73,89.24l-79.83-.87,1-89.28m0-.54c-.26,0-.51-.13-.7.05a.76.76,0,0,0-.3.59l-1,89.22a1.12,1.12,0,0,0,1,1.14L715,419h0a1.18,1.18,0,0,0,.82-.58c.28-.39,6.82-9.91,10.74-25.81,3.62-14.66,5.53-37.78-5.91-64.52-.16-.36-.51-.39-.91-.4l-83.59-.7Z"/><ellipse class="cls-3" cx="634.58" cy="372.1" rx="45.59" ry="21.48" transform="translate(255.6 1002.59) rotate(-89.38)"/><path class="cls-4" d="M641.66,336c-12.48-12.75-26.92,17.08-22.42,48.25"/><ellipse class="cls-5" cx="635.7" cy="372.67" rx="7.6" ry="16.58" transform="translate(-1.24 2.13) rotate(-0.19)"/><path class="cls-2" d="M671.16,482.21a1.49,1.49,0,0,1-1.47-1.71c.83-5.48,4.41-34-7-58.66-2.67-5.75-2.81-16.29-3-28.49-.21-15.39-.46-32.83-5.8-45.61-7.11-17-14.16-19.57-16.89-19.88l-1.32,0a.5.5,0,0,1-.11-1,3.83,3.83,0,0,1,.8-.07,6.62,6.62,0,0,1,.69,0l80.42-1.08a1.48,1.48,0,0,1,1,.34c3.41,2.82,33,28.58,23.68,63.17-4.46,16.52-.06,30.49,4.19,44,3.62,11.48,7,22.33,4.81,34a1.5,1.5,0,0,1-1.22,1.19l-78.5,13.75Z"/><path class="cls-3" d="M717.52,326c.23,0,.45.22.63.37,3.21,2.66,32.79,28.37,23.52,62.73-8.28,30.7,13.8,52.86,9,78a1,1,0,0,1-.81.81l-78.5,13.76-.17,0a1,1,0,0,1-1-1.13c1-6.43,4.32-34.43-7-58.94-6-12.83.85-51.07-8.77-74.08-7.2-17.22-14.41-20-17.33-20.33L717.5,326h.5m-81.61,1.33a6.17,6.17,0,0,1,.66,0l-1.35,0a3.4,3.4,0,0,1,.69-.06M717.52,325h0l-80.39,1.22a6.7,6.7,0,0,0-.71,0,3.28,3.28,0,0,0-.91.12c-.5.11-.83.41-.77.92s.49.71,1,.71h0l1.28.18c2.66.31,9.47,3,16.45,19.67,5.31,12.69,5.55,30.13,5.76,45.47.17,12.26.32,22.87,3,28.72,11.35,24.48,7.79,52.93,7,58.38a2,2,0,0,0,2.31,2.27L750,468.93a2,2,0,0,0,1.62-1.59c2.25-11.75-1.19-22.66-4.82-34.2-4.23-13.43-8.6-27.33-4.18-43.71,9.42-34.89-20.41-61-23.84-63.83a2.15,2.15,0,0,0-1.26-.6Z"/><path class="cls-2" d="M696.36,421.17a.61.61,0,0,1-.6-.61l1.18-108.41a.61.61,0,0,1,.61-.6l101.51,1.1a.61.61,0,0,1,.55.37c13.83,32.31,11.52,60.2,7.15,77.91-4.74,19.2-12.87,30.93-13,31a.61.61,0,0,1-.5.26Z"/><path class="cls-3" d="M697.54,312.15,799,313.26c26.64,62.25-5.74,108.36-5.74,108.36l-96.94-1.05,1.18-108.41m0-1.15a1.19,1.19,0,0,0-1.21,1.17l-1.18,108.4a1.28,1.28,0,0,0,1.2,1.3L793.29,423h0a1.3,1.3,0,0,0,1-.6c.34-.48,8.28-12,13-31.29,4.39-17.8,6.71-45.85-7.18-78.31a1.2,1.2,0,0,0-1.1-.72L697.56,311Z"/><ellipse class="cls-3" cx="695.67" cy="366.26" rx="55.36" ry="26.08" transform="translate(321.87 1057.91) rotate(-89.38)"/><path class="cls-6" d="M704.28,322.38c-15.16-15.48-32.68,20.74-27.22,58.59"/><ellipse class="cls-5" cx="697.04" cy="366.96" rx="9.23" ry="20.13" transform="translate(-1.23 2.34) rotate(-0.19)"/><path class="cls-2" d="M740.1,500a1.81,1.81,0,0,1-1.79-2.08c1-6.65,5.36-41.34-8.5-71.23-3.24-7-3.42-19.78-3.62-34.59-.26-18.68-.55-39.86-7-55.38C710.52,316,702,312.93,698.65,312.55l-1.61,0a.61.61,0,0,1-.14-1.2,4.65,4.65,0,0,1,1-.08,8.28,8.28,0,0,1,.83,0L796.36,310a1.79,1.79,0,0,1,1.17.41c4.14,3.43,40.09,34.69,28.75,76.71-5.41,20.06-.08,37,5.08,53.41,4.39,13.95,8.54,27.12,5.84,41.24a1.83,1.83,0,0,1-1.48,1.45l-95.32,16.69Z"/><path class="cls-3" d="M796.39,311c.28,0,.54-.09.76.09,3.9,3.23,39.81,34.27,28.56,76-10.06,37.28,16.75,64.09,10.91,94.65a1.19,1.19,0,0,1-1,.94l-95.32,16.68h-.21a1.2,1.2,0,0,1-1.18-1.38c1.19-7.8,5.25-41.81-8.55-71.57-7.23-15.58,1-62-10.65-90-8.74-20.91-17.5-23.95-21-24.33L796.37,311H796m-98.13.9a7.48,7.48,0,0,1,.8,0L697,312a4.14,4.14,0,0,1,.83-.07m98.51-2.9h0l-97.62,1.52a8.06,8.06,0,0,0-.86.06,3.81,3.81,0,0,0-1.1.15,1.15,1.15,0,0,0-.94,1.26,1.16,1.16,0,0,0,1.21,1h0l1.56.07c9.52,1.1,17.14,17,20,23.81,6.44,15.41,6.74,36.55,7,55.18.21,14.88.38,27.75,3.68,34.85,13.78,29.73,9.46,64.27,8.45,70.89a2.42,2.42,0,0,0,2.38,2.78,2.45,2.45,0,0,0,.42,0l95.32-16.69a2.44,2.44,0,0,0,2-1.93c2.73-14.27-1.44-27.51-5.86-41.53-5.14-16.31-10.45-33.18-5.08-53.07,11.43-42.37-24.79-74.09-29-77.55a2.66,2.66,0,0,0-1.53-.76Z"/><path class="cls-2" d="M757.89,425a.71.71,0,0,1-.71-.72l1.39-127.54a.71.71,0,0,1,.71-.71l119.43,1.3a.71.71,0,0,1,.65.43c16.27,38,13.55,70.82,8.41,91.66C882.2,412,872.63,425.83,872.53,426a.72.72,0,0,1-.58.3Z"/><path class="cls-3" d="M759.29,296.77l119.42,1.3c31.34,73.23-6.76,127.49-6.76,127.49l-114-1.24,1.39-127.54m0-1.77a1.58,1.58,0,0,0-1.43,1.58l-1.39,127.63a1.53,1.53,0,0,0,.41,1.06,1.46,1.46,0,0,0,1,.46l114,1.27h0a1.44,1.44,0,0,0,1.17-.62c.4-.56,9.74-14,15.35-36.76,5.17-20.94,7.9-53.92-8.45-92.11a1.61,1.61,0,0,0-1.3-1L759.3,295Z"/><ellipse class="cls-3" cx="757.09" cy="360.42" rx="65.13" ry="30.69" transform="translate(388.46 1113.54) rotate(-89.38)"/><path class="cls-7" d="M767.21,308.8c-17.83-18.21-38.45,24.4-32,68.93"/><ellipse class="cls-5" cx="758.7" cy="361.24" rx="10.86" ry="23.69" transform="matrix(1, 0, 0, 1, -1.21, 2.54)"/><path class="cls-2" d="M809.35,517.73a2.12,2.12,0,0,1-2.1-2.44c1.19-7.82,6.3-48.64-10-83.8-3.81-8.22-4-23.27-4.26-40.7-.3-22-.65-46.9-8.28-65.15-10.16-24.29-20.23-28-24.13-28.4l-1.89,0a.71.71,0,0,1-.16-1.41,5.51,5.51,0,0,1,1.14-.1,9.45,9.45,0,0,1,1,.05l114.89-1.54a2.11,2.11,0,0,1,1.38.48c4.87,4,47.16,40.83,33.83,90.25-6.37,23.6-.09,43.55,6,62.84,5.17,16.41,10,31.9,6.87,48.51a2.15,2.15,0,0,1-1.74,1.7L809.73,517.69A2.13,2.13,0,0,1,809.35,517.73Z"/><path class="cls-3" d="M875.57,295a1.38,1.38,0,0,1,.89.31c4.58,3.8,46.84,40.43,33.59,89.51-11.83,43.86,19.71,75.45,12.84,111.41a1.43,1.43,0,0,1-1.16,1.13L809.6,517l-.25,0a1.41,1.41,0,0,1-1.39-1.62c1.4-9.18,6.18-49.19-10.06-84.2-8.5-18.33,1.21-73-12.53-105.83-10.29-24.6-20.59-28.38-24.75-28.83L875.55,295H876m-116.33,1.47a8.81,8.81,0,0,1,.95.05l-1.92,0a4.86,4.86,0,0,1,1-.08M875.57,294h0l-114.85,1.32c-.35,0-.69-.16-1-.16a9.62,9.62,0,0,0-1.3.06,1.41,1.41,0,0,0,.32,2.79h0l1.83,0c1.68.2,5,1.11,9.18,5,5.13,4.77,9.95,12.5,14.33,23,7.58,18.13,7.93,43,8.23,64.89.24,17.51.45,32.63,4.33,41,16.22,35,11.13,75.6,9.94,83.39a2.84,2.84,0,0,0,2.8,3.27,2.89,2.89,0,0,0,.5,0L922,498.76a2.87,2.87,0,0,0,2.31-2.27c3.21-16.79-1.7-32.37-6.89-48.86-6-19.19-12.29-39-6-62.44,13.45-49.85-29.16-86.7-34.06-90.76a2.67,2.67,0,0,0-1.81-.42Z"/><path class="cls-2" d="M819.42,428.88a.82.82,0,0,1-.81-.83l1.59-146.68a.82.82,0,0,1,.82-.81l137.34,1.49a.82.82,0,0,1,.75.5C977.82,326.26,974.7,364,968.79,388c-6.41,26-17.42,41.84-17.53,42a.82.82,0,0,1-.67.35Z"/><path class="cls-3" d="M821,281.38l137.33,1.49c36,84.22-7.77,146.61-7.77,146.61l-131.16-1.43L821,281.38m0-1.38a1.54,1.54,0,0,0-1.15.34,1.5,1.5,0,0,0-.49,1.09l-1.59,146.64a1.58,1.58,0,0,0,1.62,1.58L950.57,431h0a1.59,1.59,0,0,0,1.34-.64c.45-.65,11.2-16.12,17.65-42.24A159.47,159.47,0,0,0,974,341.21a173.71,173.71,0,0,0-14.12-59,1.53,1.53,0,0,0-1.49-.86L821,280Z"/><ellipse class="cls-3" cx="818.5" cy="354.58" rx="74.9" ry="35.29" transform="translate(455.04 1169.18) rotate(-89.38)"/><path class="cls-8" d="M830.14,295.22c-20.51-20.95-44.22,28.07-36.83,79.27"/><ellipse class="cls-5" cx="820.35" cy="355.53" rx="12.49" ry="27.24" transform="translate(-1.19 2.75) rotate(-0.19)"/><path class="cls-2" d="M878.61,535.49a2.45,2.45,0,0,1-2.41-2.81c1.37-9,7.25-55.93-11.5-96.37-4.38-9.45-4.62-26.76-4.9-46.8-.35-25.28-.75-53.93-9.53-74.92-11.68-27.94-23.26-32.15-27.75-32.66l-2.17,0a.82.82,0,0,1-.18-1.62,6.29,6.29,0,0,1,1.31-.11,10.86,10.86,0,0,1,1.13.06l132.12-1.77a2.43,2.43,0,0,1,1.58.55c5.6,4.64,54.24,47,38.9,103.79-7.32,27.15-.1,50.08,6.88,72.27,5.94,18.87,11.55,36.69,7.9,55.79a2.47,2.47,0,0,1-2,2L879,535.45A2.58,2.58,0,0,1,878.61,535.49Z"/><path class="cls-3" d="M954.76,279a1.8,1.8,0,0,1,1,.53c5.27,4.37,53.86,46.58,38.63,103-13.61,50.43,22.66,86.82,14.77,128.16a1.67,1.67,0,0,1-1.33,1.32l-129,22.59-.29,0a1.62,1.62,0,0,1-1.6-1.86c1.61-10.56,7.11-56.57-11.57-96.83-9.78-21.08,1.39-83.9-14.41-121.7-11.83-28.29-23.68-32.81-28.46-33.33L954.73,279H955m-133.52,2a10.13,10.13,0,0,1,1.09.06l-2.21,0a5.59,5.59,0,0,1,1.13-.09m133.28-3h0l-132.07,1.61c-.4,0-.79-.14-1.16-.14a9.07,9.07,0,0,0-1.49.09,1.75,1.75,0,0,0-1.27,1.89,1.73,1.73,0,0,0,1.63,1.54h0l2.11-.14c1.93.23,5.78,1.23,10.55,5.67,5.89,5.49,11.44,14.35,16.48,26.4,8.72,20.85,9.11,49.4,9.46,74.61.28,20.14.52,37.52,5,47.13,18.65,40.22,12.8,86.94,11.43,95.89a3.26,3.26,0,0,0,3.22,3.75,3.32,3.32,0,0,0,.57-.05l129-22.58a3.3,3.3,0,0,0,2.66-2.61c3.69-19.31-2-37.22-7.92-56.19C995.93,432.8,988.74,410,996,383.06c15.47-57.33-33.53-99.8-39.17-104.47a3.13,3.13,0,0,0-2.08-.59Z"/><path class="cls-2" d="M881,432.73a.93.93,0,0,1-.92-.94L881.84,266a.93.93,0,0,1,.93-.92L1038,266.76a.93.93,0,0,1,.84.56c21.15,49.41,17.62,92.07,10.94,119.15-7.25,29.36-19.69,47.3-19.81,47.48a.93.93,0,0,1-.76.4Z"/><path class="cls-3" d="M882.77,266,1038,267.68c40.75,95.2-8.78,165.73-8.78,165.73L881,431.8,882.77,266m0-2a1.92,1.92,0,0,0-1.86,1.91l-1.8,165.84a1.9,1.9,0,0,0,.53,1.34,1.75,1.75,0,0,0,1.31.43L1029.21,435h0a1.74,1.74,0,0,0,1.52-.65c.51-.73,12.67-18.19,20-47.72a180.16,180.16,0,0,0,5-53,196.33,196.33,0,0,0-16-66.67,1.92,1.92,0,0,0-1.69-1.19L882.79,264Z"/><ellipse class="cls-3" cx="879.91" cy="348.75" rx="84.67" ry="39.89" transform="translate(521.62 1224.82) rotate(-89.38)"/><path class="cls-9" d="M893.07,281.64c-23.19-23.68-50,31.73-41.63,89.61"/><ellipse class="cls-5" cx="882" cy="349.81" rx="14.12" ry="30.79" transform="translate(-1.17 2.96) rotate(-0.19)"/><path class="cls-2" d="M947.86,553.24a2.76,2.76,0,0,1-2.73-3.18c1.55-10.17,8.19-63.23-13-108.94-5-10.68-5.22-30.25-5.54-52.91-.4-28.58-.84-61-10.77-84.7-13.21-31.58-26.29-36.35-31.37-36.92l-2.46,0a.93.93,0,0,1-.21-1.83,7.15,7.15,0,0,1,1.48-.13,12.47,12.47,0,0,1,1.27.07l149.36-2a2.74,2.74,0,0,1,1.79.63c6.33,5.24,61.31,53.08,44,117.32-8.28,30.69-.12,56.62,7.78,81.69,6.71,21.33,13.06,41.47,8.93,63.07a2.8,2.8,0,0,1-2.26,2.21L948.35,553.2A2.85,2.85,0,0,1,947.86,553.24Z"/><path class="cls-3" d="M1033.94,264a1.69,1.69,0,0,1,1.16.25c6,4.94,60.89,52.48,43.67,116.28-15.38,57,25.62,98.05,16.69,144.79a1.84,1.84,0,0,1-1.51,1.45L948.19,552.3a1.87,1.87,0,0,1-.33,0,1.84,1.84,0,0,1-1.81-2.11c1.82-11.93,8-63.95-13.08-109.47-11.05-23.83,1.58-94.85-16.29-137.57-13.37-32-26.76-36.74-32.18-37.33L1033.92,264h.08m-150.72,1.61a11.46,11.46,0,0,1,1.23.07l-2.5,0a6.32,6.32,0,0,1,1.27-.1M1033.94,262h-.05l-149.3,1.91c-.45,0-.89-.11-1.31-.11a9,9,0,0,0-1.69.13,2.09,2.09,0,0,0-1.43,2.24A2,2,0,0,0,882,268h0l2.39-.25C889.36,268.33,902,273,915,304c9.86,23.57,10.3,55.81,10.7,84.3.32,22.76.59,42.4,5.62,53.26,21.08,45.47,14.46,98.27,12.92,108.39a3.68,3.68,0,0,0,3.65,4.24,3.75,3.75,0,0,0,.65-.06l145.78-25.53a3.73,3.73,0,0,0,3-3c4.17-21.83-2.21-42.08-9-63.52-7.85-24.95-16-50.75-7.77-81.17,17.49-64.8-37.91-112.91-44.28-118.19a3.61,3.61,0,0,0-2.35-.75Z"/><path class="cls-2" d="M942.49,436.58a1,1,0,0,1-1-1l2-184.94a1,1,0,0,1,1-1l173.17,1.88a1,1,0,0,1,.94.63c23.59,55.12,19.65,102.69,12.2,132.9-8.08,32.75-22,52.76-22.1,53a1,1,0,0,1-.85.44Z"/><path class="cls-3" d="M944.51,250.61l173.16,1.88c45.45,106.19-9.8,184.85-9.8,184.85l-165.37-1.8,2-184.94m0-1.61a1.89,1.89,0,0,0-2.07,1.82l-2,184.82a1.94,1.94,0,0,0,.59,1.41,1.9,1.9,0,0,0,1.46.38L1107.85,439h0a1.9,1.9,0,0,0,1.7-.67c.57-.82,14.13-20.26,22.26-53.2a200.85,200.85,0,0,0,5.56-59.12,218.94,218.94,0,0,0-17.81-74.36,1.87,1.87,0,0,0-1.88-1L944.54,249Z"/><ellipse class="cls-3" cx="941.33" cy="342.91" rx="94.44" ry="44.5" transform="translate(588.21 1280.45) rotate(-89.38)"/><path class="cls-10" d="M956,268.06c-25.86-26.41-55.76,35.39-46.43,99.95"/><ellipse class="cls-5" cx="943.66" cy="344.1" rx="15.74" ry="34.35" transform="translate(-1.15 3.16) rotate(-0.19)"/><path class="cls-2" d="M1017.11,571a3.08,3.08,0,0,1-3-3.54c1.73-11.35,9.14-70.52-14.5-121.51-5.52-11.91-5.83-33.74-6.18-59-.44-31.87-.94-68-12-94.47-14.73-35.22-29.33-40.54-35-41.18l-2.74,0a1,1,0,0,1-.23-2,7.92,7.92,0,0,1,1.65-.14,14,14,0,0,1,1.42.08L1113.09,247a3.06,3.06,0,0,1,2,.7c7.06,5.85,68.39,59.2,49,130.86-9.24,34.23-.13,63.15,8.67,91.12,7.49,23.79,14.56,46.26,10,70.35a3.12,3.12,0,0,1-2.52,2.47L1017.65,571A3.21,3.21,0,0,1,1017.11,571Z"/><path class="cls-3" d="M1113.13,248a2,2,0,0,1,1.3.47c6.65,5.51,67.92,58.63,48.71,129.8-17.16,63.59,28.58,109.42,18.62,161.54a2.08,2.08,0,0,1-1.68,1.64l-162.6,28.47a2.1,2.1,0,0,1-.36,0,2,2,0,0,1-2-2.35c2-13.31,9-71.32-14.58-122.1-12.33-26.58,1.76-105.79-18.17-153.45-14.91-35.66-29.85-41.17-35.89-41.83L1113.1,248h-.1m-167.92,2.18a12.77,12.77,0,0,1,1.37.08l-2.79,0a7.05,7.05,0,0,1,1.42-.11M1113.13,246h-.06l-166.53,2.21c-.5-.05-1-.09-1.46-.09a9.19,9.19,0,0,0-1.88.16,1.88,1.88,0,0,0-1.6,2.08,1.92,1.92,0,0,0,2.06,1.64h0l2.66.15c2.43.29,7.29,1.71,13.31,7.31,7.43,6.92,14.42,18.17,20.77,33.36,11,26.29,11.49,62.33,11.93,94.11.35,25.39.66,47.33,6.27,59.45,9.89,21.32,15.5,46.33,16.69,74.32a251,251,0,0,1-2.27,46.6,4.12,4.12,0,0,0,4.07,4.74,4.19,4.19,0,0,0,.72-.06l162.6-28.47a4.16,4.16,0,0,0,3.36-3.29c4.65-24.34-2.46-46.94-10-70.85-8.76-27.83-17.82-56.6-8.66-90.54a107.63,107.63,0,0,0,1.45-50.49,131.09,131.09,0,0,0-16.34-40.63,169.6,169.6,0,0,0-34.5-40.78,4.09,4.09,0,0,0-2.62-.91Z"/><path class="cls-2" d="M1004,440.44a1.14,1.14,0,0,1-1.13-1.16l2.22-204.07a1.14,1.14,0,0,1,1.14-1.13l191.08,2.08a1.14,1.14,0,0,1,1,.69c26,60.82,21.69,113.32,13.46,146.65-8.92,36.14-24.23,58.21-24.38,58.43a1.14,1.14,0,0,1-.94.49Z"/><path class="cls-3" d="M1006.26,235.23l191.07,2.08c50.15,117.17-10.81,204-10.81,204l-182.48-2,2.22-204.07m0-2.23a2.26,2.26,0,0,0-2.29,2.23l-2.22,204.05a2.48,2.48,0,0,0,2.26,2.52L1186.49,444h0a2.52,2.52,0,0,0,1.87-1.19c.63-.9,15.59-22.58,24.56-58.92a222.37,222.37,0,0,0,6.13-65.35,241.89,241.89,0,0,0-19.65-82.11,2.27,2.27,0,0,0-2.08-1.37L1006.28,233Z"/><ellipse class="cls-3" cx="1002.74" cy="337.07" rx="104.21" ry="49.1" transform="translate(654.79 1336.09) rotate(-89.38)"/><path class="cls-11" d="M1018.94,254.48c-28.54-29.14-61.52,39-51.24,110.29"/><ellipse class="cls-5" cx="1005.31" cy="338.38" rx="17.37" ry="37.9" transform="translate(-1.13 3.37) rotate(-0.19)"/><path class="cls-2" d="M1086.37,588.76a3.4,3.4,0,0,1-3.36-3.91c1.91-12.52,10.09-77.81-16-134.07-6.1-13.15-6.43-37.23-6.81-65.12-.49-35.17-1-75-13.25-104.24-16.25-38.87-32.36-44.73-38.6-45.44l-3,0a1.14,1.14,0,0,1-.25-2.26,8.84,8.84,0,0,1,1.82-.15,15,15,0,0,1,1.56.08l183.83-2.46a3.37,3.37,0,0,1,2.21.77c7.79,6.45,75.46,65.32,54.12,144.4-10.19,37.77-.14,69.68,9.57,100.55,8.26,26.25,16.07,51,11,77.62a3.44,3.44,0,0,1-2.78,2.72L1087,588.71A3.49,3.49,0,0,1,1086.37,588.76Z"/><path class="cls-3" d="M1192.32,232a2.44,2.44,0,0,1,1.43.69c7.34,6.08,74.94,64.78,53.75,143.31C1228.56,446.17,1279,496.78,1268,554.3a2.32,2.32,0,0,1-1.85,1.84l-179.42,31.43a2.33,2.33,0,0,1-.4,0,2.25,2.25,0,0,1-2.23-2.59c2.23-14.69,9.89-78.7-16.09-134.73C1054.45,421,1070,333.56,1048,281c-16.46-39.35-32.94-45.6-39.6-46.32L1192.28,232H1192m-185.12,2.75a14.1,14.1,0,0,1,1.51.08l-3.08,0a7.78,7.78,0,0,1,1.57-.13M1192.32,230h-.06l-183.75,2.5a16.16,16.16,0,0,0-1.62-.06,9.49,9.49,0,0,0-2.08.19,2.2,2.2,0,0,0,.51,4.36h0l2.94,0c2.68.32,8,1.83,14.69,8,8.2,7.63,15.91,20,22.92,36.79,12.13,29,12.68,68.76,13.17,103.83.39,28,.72,52.22,6.92,65.59,10.91,23.52,17.1,51.12,18.42,82a276.94,276.94,0,0,1-2.51,51.42,4.54,4.54,0,0,0,4.49,5.23,4.62,4.62,0,0,0,.79-.07l179.42-31.42a4.59,4.59,0,0,0,3.7-3.64c5.13-26.86-2.72-51.79-11-78.18-9.67-30.71-19.66-62.46-9.56-99.91a118.76,118.76,0,0,0,1.6-55.72,144.65,144.65,0,0,0-18-44.84,188.12,188.12,0,0,0-38.07-45.06,4.58,4.58,0,0,0-2.89-1.08Z"/><text></text><path class="cls-2" d="M1066.35,444.29a1.25,1.25,0,0,1-1.24-1.26l2.43-223.2a1.25,1.25,0,0,1,1.25-1.24l209,2.27a1.25,1.25,0,0,1,1.14.76c28.47,66.52,23.72,123.94,14.72,160.4-9.75,39.53-26.5,63.67-26.67,63.91a1.25,1.25,0,0,1-1,.53Z"/><path class="cls-3" d="M1068.79,219.84l209,2.27c54.85,128.16-11.82,223.1-11.82,223.1L1066.36,443l2.43-223.2m0-2.84a2.65,2.65,0,0,0-2.5,2.64l-2.43,223.29a2.6,2.6,0,0,0,.71,1.82,2.69,2.69,0,0,0,1.76.92L1265.92,448h0a2.65,2.65,0,0,0,2-1.21c.69-1,17-24.65,26.86-64.4a243.07,243.07,0,0,0,6.7-71.45c-1.63-30.07-8.86-60.29-21.49-89.79a2.68,2.68,0,0,0-2.27-1.7l-209-2.45Z"/><ellipse class="cls-3" cx="1064.94" cy="331.23" rx="113.98" ry="53.7" transform="translate(722.15 1392.51) rotate(-89.38)"/><path class="cls-12" d="M1082.66,240.89c-31.21-31.87-67.29,42.71-56,120.62"/><ellipse class="cls-5" cx="1067.76" cy="332.67" rx="19" ry="41.45" transform="translate(-1.11 3.58) rotate(-0.19)"/><path class="cls-2" d="M1156.41,606.52a3.72,3.72,0,0,1-3.67-4.28c2.08-13.69,11-85.11-17.5-146.64-6.67-14.38-7-40.72-7.45-71.22-.53-38.47-1.14-82.07-14.5-114-17.78-42.51-35.39-48.93-42.22-49.7l-3.31,0a1.25,1.25,0,0,1-.28-2.47,9.61,9.61,0,0,1,2-.17,16.51,16.51,0,0,1,1.71.09l201.06-2.7a3.69,3.69,0,0,1,2.41.85c8.52,7.06,82.54,71.45,59.2,157.93-11.15,41.31-.16,76.21,10.47,110,9,28.71,17.58,55.83,12,84.9a3.76,3.76,0,0,1-3,3l-196.24,34.37A3.84,3.84,0,0,1,1156.41,606.52Z"/><path class="cls-3" d="M1272.29,217a2.32,2.32,0,0,1,1.56.42c8,6.65,82,70.68,58.79,156.57-20.71,76.75,34.49,132,22.47,194.93a2.49,2.49,0,0,1-2,2l-196.24,34.36a2.53,2.53,0,0,1-.44,0,2.47,2.47,0,0,1-2.44-2.84c2.44-16.06,10.81-86.08-17.6-147.36-14.88-32.08,2.12-127.68-21.93-185.2-18-43-36-49.54-43.32-50.32L1272.26,217H1272m-202.53,2.32a15.42,15.42,0,0,1,1.65.09l-3.37,0a8.51,8.51,0,0,1,1.71-.14M1272.29,214h-.07l-201,2.8a17.45,17.45,0,0,0-1.77,0,9.84,9.84,0,0,0-2.27.23,2.54,2.54,0,0,0,.56,5h0l3.21-.07c6.66.78,23.68,7.17,41.13,48.92,13.27,31.73,13.87,75.19,14.4,113.55.42,30.64.79,57.11,7.57,71.73,11.93,25.73,18.71,55.9,20.14,89.69a302.88,302.88,0,0,1-2.74,56.24,5,5,0,0,0,4.91,5.72,5.05,5.05,0,0,0,.87-.08l196.24-34.37a5,5,0,0,0,4.05-4c5.61-29.38-3-56.65-12.06-85.51-10.57-33.59-21.51-68.32-10.45-109.27a129.9,129.9,0,0,0,1.75-60.94,158.21,158.21,0,0,0-19.72-49,206.64,206.64,0,0,0-41.64-49.35,5.07,5.07,0,0,0-3.16-1.24Z"/><path class="cls-2" d="M479.33,416.64a.5.5,0,0,1-.45-.3c-11.39-26.61-9.49-49.58-5.89-64.16,3.9-15.81,10.6-25.47,10.67-25.56a.5.5,0,0,1,.41-.21l79.84.87a.5.5,0,0,1,.49.51l-1,89.28a.5.5,0,0,1-.5.49Z"/><path class="cls-13" d="M484.07,326.9l79.83.87-1,89.28-83.59-.91c-21.94-51.26,4.73-89.24,4.73-89.24m0-.9a1,1,0,0,0-.82.38c-.28.39-6.82,9.81-10.74,25.71-3.62,14.66-5.53,37.73,5.91,64.46a1,1,0,0,0,.91.57l83.59.88h0a1,1,0,0,0,1-.95l1-89.27a1,1,0,0,0-1-1L484.08,326Z"/><ellipse class="cls-13" cx="564.47" cy="372.5" rx="45.59" ry="21.48" transform="translate(185.86 932.88) rotate(-89.38)"/><path class="cls-4" d="M557.38,408.63c12.48,12.75,26.92-17.08,22.42-48.25"/><text></text><ellipse class="cls-5" cx="563.34" cy="371.92" rx="7.6" ry="16.58" transform="translate(-1.24 1.89) rotate(-0.19)"/><path class="cls-2" d="M528.84,482.6l-.26,0-78.5-13.75a1.5,1.5,0,0,1-1.22-1.19c-2.22-11.63,1.19-22.48,4.81-34,4.25-13.5,8.65-27.47,4.19-44-9.33-34.59,20.27-60.35,23.68-63.17a1.46,1.46,0,0,1,.95-.34l80.44,1.08a6.62,6.62,0,0,1,.69,0,3.83,3.83,0,0,1,.8.07.5.5,0,0,1-.11,1l-1.32,0c-2.73.31-9.78,2.88-16.89,19.88-5.34,12.78-5.58,30.22-5.8,45.61-.17,12.2-.31,22.74-3,28.49-11.41,24.61-7.83,53.18-7,58.66a1.49,1.49,0,0,1-1.47,1.71Z"/><path class="cls-13" d="M482,327h.5l80.45.92c-2.92.32-10.13,2.89-17.33,20.11-9.62,23-2.82,61.21-8.77,74-11.37,24.51-8,52.5-7,58.92a1,1,0,0,1-1,1.13l-.17,0-78.5-13.75a1,1,0,0,1-.81-.79c-4.81-25.17,17.27-47.29,9-78-9.27-34.36,20.31-59.84,23.52-62.5.18-.15.4-.06.63-.06m81.13.72a3.4,3.4,0,0,1,.69.06l-1.35,0a6.17,6.17,0,0,1,.66,0M482.48,326a1.87,1.87,0,0,0-1.26.29C477.79,329.14,448,355,457.38,389.9c4.42,16.38,0,30.23-4.18,43.67-3.63,11.55-7.07,22.43-4.82,34.18a2,2,0,0,0,1.62,1.58l78.5,13.74a2,2,0,0,0,2.31-2.26c-.83-5.45-4.39-33.89,7-58.37,2.71-5.85,2.86-16.43,3-28.69.21-15.34.45-32.73,5.76-45.42,7-16.7,13.79-19.15,16.45-19.46l1.28.13h0a1.1,1.1,0,0,0,1-1,1.06,1.06,0,0,0-.77-1.15,3.47,3.47,0,0,0-.91-.11c-.23,0-.46.16-.71.18L482.51,326Z"/><path class="cls-2" d="M399.4,414.87a.61.61,0,0,1-.55-.37c-13.83-32.31-11.52-60.2-7.15-77.91,4.74-19.2,12.87-30.93,13-31a.61.61,0,0,1,.5-.26l96.95,1.05a.61.61,0,0,1,.6.61l-1.18,108.41a.61.61,0,0,1-.61.6Z"/><path class="cls-13" d="M405.15,305.9,502.09,307l-1.18,108.41-101.51-1.1C372.77,352,405.15,305.9,405.15,305.9m0-.9a1.1,1.1,0,0,0-1,.36c-.34.48-8.28,11.86-13,31.17-4.39,17.8-6.71,45.79,7.18,78.25a1.42,1.42,0,0,0,1.1.92L500.9,417h0a1.41,1.41,0,0,0,1.21-1.41l1.18-108.52a1.34,1.34,0,0,0-.35-.91,1.12,1.12,0,0,0-.85-.24L405.16,305Z"/><ellipse class="cls-13" cx="502.78" cy="361.27" rx="55.36" ry="26.08" transform="translate(136.07 860.09) rotate(-89.38)"/><path class="cls-6" d="M494.18,405.14c15.16,15.48,32.68-20.74,27.22-58.59"/><ellipse class="cls-5" cx="501.42" cy="360.57" rx="9.23" ry="20.13" transform="translate(-1.21 1.68) rotate(-0.19)"/><path class="cls-2" d="M459.51,495l-.32,0-95.32-16.69a1.83,1.83,0,0,1-1.48-1.45c-2.7-14.12,1.45-27.29,5.84-41.24,5.16-16.4,10.5-33.35,5.08-53.42-11.33-42,24.62-73.28,28.75-76.71a1.78,1.78,0,0,1,1.15-.41l97.68,1.31a8.28,8.28,0,0,1,.83,0,4.65,4.65,0,0,1,1,.08.61.61,0,0,1-.14,1.2l-1.61,0c-3.32.37-11.87,3.49-20.51,24.14-6.49,15.52-6.78,36.7-7,55.38-.21,14.82-.38,27.61-3.62,34.59-13.86,29.89-9.51,64.58-8.5,71.23a1.81,1.81,0,0,1-1.78,2.08Z"/><path class="cls-13" d="M403,306h.25l97.69,1.13c-3.54.38-12.3,3.51-21,24.42-11.68,27.94-3.43,74.32-10.65,89.91-13.8,29.76-9.74,63.75-8.55,71.55a1.19,1.19,0,0,1-1.18,1.37l-.21,0L364,477.65a1.22,1.22,0,0,1-1-1c-5.84-30.56,21-57.42,10.91-94.7-11.26-41.72,24.66-72.67,28.56-75.9.22-.18.48-.09.76-.09m98.51.9a4.14,4.14,0,0,1,.83.07l-1.64,0a7.48,7.48,0,0,1,.8,0M403.23,304a2.66,2.66,0,0,0-1.53.76c-4.17,3.45-40.39,35.07-29,77.44,5.37,19.89.06,36.81-5.08,53.13-4.41,14-8.58,27.29-5.86,41.56a2.45,2.45,0,0,0,2,1.94l95.32,16.7a2.46,2.46,0,0,0,.42,0,2.41,2.41,0,0,0,2.38-2.77c-1-6.62-5.33-41.15,8.45-70.88,3.29-7.1,3.47-20,3.68-34.84.26-18.63.55-39.74,7-55.15,2.84-6.79,10.46-22.75,20-23.86l1.56-.07h0a1.14,1.14,0,0,0,1.21-1,1.08,1.08,0,0,0-.81-1.28c-.07,0-1-.07-1-.07h0c-1,0-.69-.19-1-.16L403.26,304Z"/><path class="cls-2" d="M319.47,417.5a.71.71,0,0,1-.65-.43c-16.27-38-13.55-70.82-8.41-91.66,5.57-22.59,15.14-36.38,15.24-36.52a.72.72,0,0,1,.58-.3l114.06,1.24a.71.71,0,0,1,.71.72l-1.39,127.54a.71.71,0,0,1-.71.71Z"/><path class="cls-13" d="M326.24,289.3l114,1.24L438.9,418.08l-119.42-1.3c-31.34-73.23,6.76-127.49,6.76-127.49m0-1.3a1.37,1.37,0,0,0-1.17.54c-.4.56-9.74,14-15.35,36.73-5.17,20.94-7.9,53.9,8.45,92.09a1.69,1.69,0,0,0,1.3,1.1L438.88,420h0a1.66,1.66,0,0,0,1.43-1.66l1.39-127.67a1.58,1.58,0,0,0-.41-1.08,1.4,1.4,0,0,0-1-.39l-114-1.21Z"/><ellipse class="cls-13" cx="441.1" cy="354.43" rx="65.13" ry="30.69" transform="translate(81.89 791.65) rotate(-89.38)"/><path class="cls-7" d="M431,406.05c17.83,18.21,38.45-24.4,32-68.93"/><ellipse class="cls-5" cx="439.49" cy="353.61" rx="10.86" ry="23.69" transform="translate(-1.18 1.47) rotate(-0.19)"/><path class="cls-2" d="M390.19,511.73a2.13,2.13,0,0,1-.37,0L277.68,492.06a2.15,2.15,0,0,1-1.74-1.7c-3.17-16.61,1.71-32.11,6.87-48.51,6.07-19.29,12.35-39.24,6-62.84-13.33-49.42,29-86.21,33.83-90.25a2.09,2.09,0,0,1,1.35-.48l114.92,1.54a9.45,9.45,0,0,1,1-.05,5.51,5.51,0,0,1,1.14.1.71.71,0,0,1-.16,1.41l-1.89,0c-3.9.44-14,4.11-24.13,28.4-7.63,18.26-8,43.17-8.28,65.15-.24,17.43-.45,32.48-4.26,40.7-16.3,35.16-11.19,76-10,83.8a2.12,2.12,0,0,1-2.1,2.44Z"/><path class="cls-13" d="M324,289h0l114.93,1.53c-4.16.45-14.47,4.24-24.75,28.83-13.74,32.87-4,87.49-12.53,105.82-16.24,35-11.45,75-10.06,84.2a1.41,1.41,0,0,1-1.39,1.62l-.25,0L277.81,491.35a1.43,1.43,0,0,1-1.16-1.13c-6.87-36,24.67-67.55,12.84-111.41-13.24-49.08,29-85.7,33.59-89.5A1.38,1.38,0,0,1,324,289m115.9,1.47a4.86,4.86,0,0,1,1,.08l-1.92,0a8.81,8.81,0,0,1,.95-.05M324,288a2.67,2.67,0,0,0-1.81.42c-4.9,4.06-47.51,41-34.06,90.87,6.32,23.4.07,43.19-6,62.38-5.19,16.49-10.1,32-6.89,48.84a2.85,2.85,0,0,0,2.32,2.26L389.7,512.41a2.88,2.88,0,0,0,.5,0,2.84,2.84,0,0,0,2.8-3.27c-1.19-7.79-6.28-48.42,9.94-83.39,3.87-8.35,4.08-23.48,4.33-41,.3-21.92.65-46.76,8.23-64.89,4.38-10.48,9.2-18.21,14.33-23,4.15-3.86,7.5-4.77,9.18-5l1.83,0h0a1.44,1.44,0,0,0,.32-2.84,6.05,6.05,0,0,0-1.3-.12c-.32,0-.66.24-1,.27L324,288Z"/><path class="cls-2" d="M239.54,420.12a.82.82,0,0,1-.75-.5c-18.71-43.71-15.59-81.45-9.67-105.41,6.41-26,17.42-41.84,17.53-42a.82.82,0,0,1,.67-.35l131.17,1.43a.82.82,0,0,1,.81.83L377.7,420.8a.82.82,0,0,1-.82.81Z"/><path class="cls-13" d="M247.32,272.69l131.16,1.43-1.59,146.68L239.55,419.3c-36-84.22,7.77-146.61,7.77-146.61m0-1.69a1.67,1.67,0,0,0-1.34.72c-.45.65-11.2,16.16-17.65,42.29a159.61,159.61,0,0,0-4.41,46.94,173.77,173.77,0,0,0,14.12,59,1.47,1.47,0,0,0,1.49.78L376.87,422h0a1.47,1.47,0,0,0,1.64-1.41L380.12,274a1.62,1.62,0,0,0-1.62-1.63L247.34,271Z"/><ellipse class="cls-13" cx="379.41" cy="347.59" rx="74.9" ry="35.29" transform="translate(27.71 723.2) rotate(-89.38)"/><path class="cls-8" d="M367.77,407c20.51,20.95,44.22-28.07,36.83-79.27"/><ellipse class="cls-5" cx="377.56" cy="346.65" rx="12.49" ry="27.24" transform="translate(-1.16 1.27) rotate(-0.19)"/><path class="cls-2" d="M320.87,528.49a2.4,2.4,0,0,1-.43,0l-129-22.58a2.48,2.48,0,0,1-2-2c-3.65-19.1,2-36.92,7.9-55.79,7-22.18,14.2-45.12,6.88-72.27-15.34-56.83,33.31-99.15,38.9-103.79a2.41,2.41,0,0,1,1.55-.56l132.15,1.77a10.86,10.86,0,0,1,1.13-.06,6.3,6.3,0,0,1,1.31.11.82.82,0,0,1-.18,1.62l-2.17,0c-4.49.51-16.06,4.72-27.75,32.66-8.78,21-9.18,49.65-9.53,74.93-.28,20-.52,37.35-4.9,46.8-18.75,40.43-12.87,87.37-11.5,96.37a2.44,2.44,0,0,1-2.41,2.81Z"/><path class="cls-13" d="M245,272h-.25l132.17,1.94c-4.79.52-16.64,5-28.46,33.25C332.65,345,343.82,407.84,334,428.92c-18.67,40.27-13.17,86.3-11.57,96.86a1.63,1.63,0,0,1-1.6,1.88,1.66,1.66,0,0,1-.29,0l-129-22.58a1.65,1.65,0,0,1-1.33-1.3c-7.9-41.34,28.37-77.69,14.77-128.12-15.23-56.44,33.36-98.73,38.63-103.1a1.8,1.8,0,0,1,1-.53M378,274a5.59,5.59,0,0,1,1.13.09l-2.21,0A10.13,10.13,0,0,1,378,274m-133.28-3a3.13,3.13,0,0,0-2.08.59C237,276.26,188,318.81,203.47,376.14c7.26,26.91.08,49.7-6.87,71.77-6,19-11.61,36.87-7.92,56.17a3.29,3.29,0,0,0,2.66,2.6l129,22.58a3.33,3.33,0,0,0,.57,0,3.27,3.27,0,0,0,3.23-3.76c-1.36-9-7.22-55.68,11.43-95.9,4.45-9.61,4.7-27,5-47.14.35-25.2.74-53.77,9.46-74.62,5-12,10.58-20.94,16.48-26.43,4.77-4.44,8.63-5.38,10.55-5.61l2.11.14h0a1.75,1.75,0,0,0,1.63-1.56,1.7,1.7,0,0,0-1.27-1.85,6.15,6.15,0,0,0-1.49-.16c-.37,0-.76.16-1.16.2L244.77,271Z"/><path class="cls-2" d="M159.61,422.75a.93.93,0,0,1-.84-.56c-21.15-49.41-17.62-92.07-10.94-119.15,7.25-29.36,19.69-47.3,19.81-47.48a.93.93,0,0,1,.76-.4l148.27,1.61a.93.93,0,0,1,.92.94l-1.8,165.81a.93.93,0,0,1-.93.92Z"/><path class="cls-13" d="M168.41,256.09l148.26,1.61-1.8,165.81-155.24-1.69c-40.75-95.2,8.78-165.73,8.78-165.73m0-2.09a2,2,0,0,0-1.52.9c-.51.73-12.67,18.31-20,47.84a180.58,180.58,0,0,0-5,53.08,196.49,196.49,0,0,0,16,66.7,1.71,1.71,0,0,0,1.69,1L314.85,425h0a1.71,1.71,0,0,0,1.86-1.66l1.8-165.72a1.75,1.75,0,0,0-.53-1.27,2,2,0,0,0-1.31-.65L168.43,254Z"/><ellipse class="cls-13" cx="317.73" cy="340.76" rx="84.67" ry="39.89" transform="translate(-26.46 654.76) rotate(-89.38)"/><path class="cls-9" d="M304.56,407.86c23.19,23.68,50-31.73,41.63-89.61"/><ellipse class="cls-5" cx="315.64" cy="339.69" rx="14.12" ry="30.79" transform="translate(-1.14 1.06) rotate(-0.19)"/><path class="cls-2" d="M251.55,545.24a2.85,2.85,0,0,1-.48,0L105.29,519.67a2.8,2.8,0,0,1-2.26-2.21c-4.13-21.6,2.22-41.74,8.93-63.07,7.89-25.08,16.06-51,7.78-81.69-17.34-64.25,37.65-112.08,44-117.32a2.71,2.71,0,0,1,1.75-.63l149.39,2a12.49,12.49,0,0,1,1.27-.07,7.15,7.15,0,0,1,1.48.13.93.93,0,0,1-.21,1.83l-2.46,0c-5.07.57-18.16,5.34-31.36,36.92-9.93,23.73-10.37,56.12-10.77,84.7-.31,22.66-.58,42.23-5.54,52.91-21.2,45.71-14.55,98.76-13,108.93a2.76,2.76,0,0,1-2.73,3.18Z"/><path class="cls-13" d="M165,256h.49l149.41,1.84c-5.41.59-18.81,5.43-32.18,37.41-17.87,42.73-5.24,113.7-16.29,137.53-21.11,45.52-14.89,97.51-13.08,109.45a1.82,1.82,0,0,1-1.81,2.1,1.89,1.89,0,0,1-.33,0L105.45,518.76a1.86,1.86,0,0,1-1.51-1.47C95,470.55,136,429.47,120.63,372.46c-17.22-63.81,37.71-111.26,43.67-116.2a1.69,1.69,0,0,1,1.16-.25m150.67,1.61a6.32,6.32,0,0,1,1.27.1l-2.5,0a11.46,11.46,0,0,1,1.23-.07M165.47,254a3.6,3.6,0,0,0-2.35.75C156.75,260,101.35,308.18,118.84,373c8.21,30.42.09,56.2-7.77,81.15-6.75,21.44-13.13,41.69-9,63.51a3.72,3.72,0,0,0,3,2.95l145.78,25.53a3.75,3.75,0,0,0,.65.05,3.69,3.69,0,0,0,3.65-4.25C253.66,531.8,247,479,268.12,433.52c5-10.86,5.31-30.52,5.62-53.29.39-28.49.84-60.78,10.7-84.35,13-31,25.61-35.55,30.56-36.13l2.39.25h0a2.06,2.06,0,0,0,1.84-1.85,2,2,0,0,0-1.43-2.14,6.38,6.38,0,0,0-1.69-.2c-.42,0-.86.09-1.31.13L165.52,254Z"/><path class="cls-2" d="M79.69,425.37a1,1,0,0,1-.94-.63C55.15,369.63,59.09,322,66.55,291.84c8.08-32.75,22-52.76,22.1-53a1,1,0,0,1,.85-.44l165.38,1.8a1,1,0,0,1,1,1l-2,184.94a1,1,0,0,1-1,1Z"/><path class="cls-13" d="M89.49,239.48l165.37,1.8-2,184.94L79.7,424.33c-45.45-106.19,9.8-184.85,9.8-184.85m0-2.48a2.29,2.29,0,0,0-1.7,1.09c-.57.82-14.13,20.47-22.26,53.4A201.54,201.54,0,0,0,60,350.71a219.22,219.22,0,0,0,17.81,74.41,2,2,0,0,0,1.88,1.13L252.83,428h0a2,2,0,0,0,2.07-1.91l2-184.87a2.22,2.22,0,0,0-2-2.26L89.51,237Z"/><ellipse class="cls-13" cx="256.04" cy="333.92" rx="94.44" ry="44.5" transform="translate(-80.64 586.31) rotate(-89.38)"/><path class="cls-10" d="M241.36,408.77c25.86,26.41,55.76-35.39,46.43-99.95"/><ellipse class="cls-5" cx="253.71" cy="332.73" rx="15.74" ry="34.35" transform="translate(-1.11 0.85) rotate(-0.19)"/><path class="cls-2" d="M182.23,562a3.21,3.21,0,0,1-.54,0L19.09,533.48A3.12,3.12,0,0,1,16.57,531c-4.6-24.09,2.47-46.56,10-70.35,8.81-28,17.91-56.89,8.67-91.12-19.33-71.65,42-125,49.05-130.86a3,3,0,0,1,2-.7l166.63,2.23a14,14,0,0,1,1.42-.08,7.93,7.93,0,0,1,1.65.14,1,1,0,0,1-.23,2l-2.74,0c-5.66.64-20.26,6-35,41.18-11.07,26.47-11.57,62.6-12,94.47-.35,25.27-.65,47.1-6.18,59-23.64,51-16.23,110.16-14.5,121.5a3.08,3.08,0,0,1-3,3.54Z"/><path class="cls-13" d="M86,239h.24l166.65,2.24c-6,.65-21,6.16-35.89,41.82-19.93,47.66-5.85,126.87-18.17,153.45-23.54,50.77-16.61,108.79-14.58,122.1a2,2,0,0,1-2,2.35,2.1,2.1,0,0,1-.36,0L19.27,532.46a2.08,2.08,0,0,1-1.68-1.64c-10-52.13,35.78-98,18.62-161.54C17,298.11,78.27,245,84.92,239.47a2,2,0,0,1,1.3-.47m168.05,2.18a7.05,7.05,0,0,1,1.42.11l-2.79,0a12.77,12.77,0,0,1,1.37-.08M86.21,237a4.09,4.09,0,0,0-2.62.91,169.77,169.77,0,0,0-34.5,40.79,131.06,131.06,0,0,0-16.34,40.63,107.62,107.62,0,0,0,1.45,50.49c9.16,33.93.1,62.71-8.66,90.54-7.53,23.92-14.64,46.51-10,70.85a4.16,4.16,0,0,0,3.36,3.29L181.51,563a4.19,4.19,0,0,0,.72.06,4.12,4.12,0,0,0,4.07-4.74A251,251,0,0,1,184,511.7c1.19-28,6.8-53,16.69-74.31,5.62-12.11,5.92-34,6.27-59.43.44-31.78.94-67.8,11.93-94.09,6.35-15.19,13.34-26.4,20.77-33.32,6-5.6,10.88-7.12,13.31-7.4l2.66-.15h0a1.92,1.92,0,0,0,2.06-1.64,2,2,0,0,0-1.6-2.17,11.17,11.17,0,0,0-1.88-.12c-.47,0-1,.07-1.46.12L86.27,237Z"/><path class="cls-2" d="M-.24,428a1.14,1.14,0,0,1-1-.69C-27.31,366.48-23,314-14.74,280.65c8.92-36.14,24.23-58.21,24.38-58.43a1.14,1.14,0,0,1,.94-.49l182.49,2a1.14,1.14,0,0,1,1.13,1.16L192,428.94a1.14,1.14,0,0,1-1.14,1.13Z"/><path class="cls-13" d="M10.58,222.87l182.48,2-2.22,204.07L-.23,426.85c-50.15-117.17,10.81-204,10.81-204m0-1.87a2.12,2.12,0,0,0-1.87.77c-.63.9-15.59,22.37-24.56,58.71A221.67,221.67,0,0,0-22,345.72,241.6,241.6,0,0,0-2.33,427.77,2.18,2.18,0,0,0-.26,429l191.07,2h0a2.2,2.2,0,0,0,2.29-2.15l2.22-204a2.1,2.1,0,0,0-2.26-2.08L10.6,221Z"/><ellipse class="cls-13" cx="194.35" cy="327.08" rx="104.21" ry="49.1" transform="translate(-134.82 517.87) rotate(-89.38)"/><path class="cls-11" d="M178.16,409.68c28.54,29.14,61.52-39,51.24-110.29"/><ellipse class="cls-5" cx="191.78" cy="325.77" rx="17.37" ry="37.9" transform="translate(-1.09 0.64) rotate(-0.19)"/><path class="cls-2" d="M112.91,578.76a3.46,3.46,0,0,1-.6-.05L-67.11,547.29a3.44,3.44,0,0,1-2.78-2.72c-5.08-26.58,2.73-51.37,11-77.62,9.72-30.86,19.76-62.78,9.57-100.55C-70.66,287.33-3,228.45,4.8,222A3.34,3.34,0,0,1,7,221.22l183.87,2.46a15,15,0,0,1,1.56-.08,8.8,8.8,0,0,1,1.82.16A1.14,1.14,0,0,1,194,226l-3,0c-6.24.7-22.35,6.57-38.6,45.44-12.21,29.21-12.77,69.07-13.25,104.24-.39,27.89-.72,52-6.81,65.12-26.08,56.25-17.9,121.55-16,134.07a3.4,3.4,0,0,1-3.36,3.91Z"/><path class="cls-13" d="M7,222H7l183.89,2.65c-6.66.72-23.15,6.88-39.6,46.23-22,52.59-6.45,140-20.05,169.37-26,56-18.33,120.06-16.09,134.75a2.27,2.27,0,0,1-2.23,2.61,2.3,2.3,0,0,1-.4,0L-66.91,546.16a2.29,2.29,0,0,1-1.85-1.81c-11-57.52,39.48-108.08,20.54-178.25C-69.41,287.57-1.8,228.77,5.53,222.69A2.44,2.44,0,0,1,7,222m185.44,2.75a7.78,7.78,0,0,1,1.57.13l-3.08,0a14.1,14.1,0,0,1,1.51-.08M7,220a4.58,4.58,0,0,0-2.89,1.08,187.83,187.83,0,0,0-38.07,45A144.71,144.71,0,0,0-52,311a118.78,118.78,0,0,0,1.6,55.72c10.1,37.44.11,69.2-9.56,99.91-8.31,26.39-16.16,51.32-11,78.18a4.59,4.59,0,0,0,3.7,3.64l179.42,31.42a4.62,4.62,0,0,0,.79.07,4.54,4.54,0,0,0,4.49-5.23,276.92,276.92,0,0,1-2.51-51.42c1.31-30.89,7.51-58.48,18.42-82,6.2-13.37,6.53-37.56,6.92-65.58.49-35.07,1-74.81,13.17-103.82,7-16.76,14.72-29.13,22.92-36.77,6.64-6.18,12-7.73,14.69-8l2.94,0h0a2.22,2.22,0,0,0,2.27-1.93,2.24,2.24,0,0,0-1.76-2.46,10.72,10.72,0,0,0-2.08-.16,16.09,16.09,0,0,0-1.62.05L7,220Z"/><path class="cls-2" d="M-80.17,441.6a1.25,1.25,0,0,1-1.14-.76C-109.78,374.33-105,316.9-96,280.45c9.75-39.53,26.5-63.67,26.67-63.91a1.25,1.25,0,0,1,1-.53l199.6,2.17a1.25,1.25,0,0,1,1.24,1.26l-2.43,223.2a1.25,1.25,0,0,1-1.25,1.24Z"/><path class="cls-13" d="M-68.34,217.25l199.59,2.17-2.43,223.2-209-2.27C-135,312.2-68.34,217.25-68.34,217.25m0-2.25a2.39,2.39,0,0,0-2,.94c-.69,1-17,24.51-26.86,64.27a242.62,242.62,0,0,0-6.7,71.39c1.63,30.07,8.86,60.26,21.49,89.76a2.44,2.44,0,0,0,2.27,1.45l209,2.2h0a2.45,2.45,0,0,0,2.5-2.41l2.43-223.17a2.38,2.38,0,0,0-2.47-2.39l-199.59-2Z"/><ellipse class="cls-13" cx="132.67" cy="331.23" rx="113.98" ry="53.7" transform="translate(-199.99 460.29) rotate(-89.38)"/><path class="cls-12" d="M115,421.57c31.21,31.88,67.29-42.71,56-120.62"/><text></text><ellipse class="cls-5" cx="129.86" cy="329.8" rx="19" ry="41.45" transform="translate(-1.1 0.44) rotate(-0.19)"/><path class="cls-2" d="M43.59,606.5a3.83,3.83,0,0,1-.65-.06l-196.24-34.37a3.76,3.76,0,0,1-3-3c-5.55-29.07,3-56.19,12-84.9,10.63-33.76,21.62-68.67,10.47-110-23.34-86.48,50.68-150.87,59.2-157.93a3.66,3.66,0,0,1,2.36-.84l201.11,2.69a16.52,16.52,0,0,1,1.71-.09,9.62,9.62,0,0,1,2,.17,1.25,1.25,0,0,1-.28,2.47l-3.31,0c-6.83.77-24.45,7.19-42.22,49.7-13.36,32-14,75.55-14.5,114-.42,30.5-.79,56.84-7.45,71.22-28.53,61.53-19.58,133-17.5,146.64a3.72,3.72,0,0,1-3.67,4.28Z"/><path class="cls-13" d="M-72,217h-.26l201.13,2.55c-7.29.79-25.32,7.35-43.32,50.39C61.51,327.45,78.5,423,63.63,455.09c-28.41,61.28-20,131.27-17.6,147.34a2.46,2.46,0,0,1-2.44,2.83,2.55,2.55,0,0,1-.44,0l-196.24-34.37a2.51,2.51,0,0,1-2-2c-12-62.92,43.18-118.22,22.47-195C-155.82,288-81.88,224.06-73.86,217.41a2.31,2.31,0,0,1,1.56-.41m202.82,2.3a8.51,8.51,0,0,1,1.71.14l-3.37,0a15.43,15.43,0,0,1,1.65-.09M-72.29,214a5.06,5.06,0,0,0-3.16,1.23c-8.58,7.11-83.15,72-59.61,159.27,11.05,41,.12,75.71-10.45,109.3-9.09,28.87-17.67,56.14-12.06,85.52a5,5,0,0,0,4.05,4L42.72,607.68a5.05,5.05,0,0,0,.87.08A5,5,0,0,0,48.5,602a302.88,302.88,0,0,1-2.74-56.24c1.44-33.78,8.21-64,20.14-89.69C72.67,441.49,73,415,73.46,384.38,74,346,74.6,302.55,87.86,270.83c17.46-41.74,34.47-48.11,41.13-48.9l3.21.07h0a2.52,2.52,0,0,0,.56-5,10.5,10.5,0,0,0-2.27-.21,17.16,17.16,0,0,0-1.77,0l-201-2.8Z"/></g></g></svg>