<svg id="email" xmlns="http://www.w3.org/2000/svg" viewBox="0 0 500 500"><defs><style>.cls-1{fill:#ffeb4d;}.cls-2{fill:#ff4d5c;}</style></defs><title>email2</title><path class="cls-1" d="M402,143.83V371H87.47V143.83H402m6-17.48H81.43A11.44,11.44,0,0,0,70,137.79V377.06A11.44,11.44,0,0,0,81.43,388.5H408.08a11.44,11.44,0,0,0,11.44-11.44V137.79a11.44,11.44,0,0,0-11.44-11.44Z"/><path class="cls-1" d="M384,144.27,262.14,262.44c-5.22,4.73-11.23,7.23-17.38,7.23s-12.16-2.5-17.38-7.23L105.5,144.27H384m23.62-17.48H81.88c-6.53,0-9.3,10.17-4.08,15L215.4,275.17c8.7,8,19,12,29.36,12s20.66-4,29.36-12l137.6-133.42c5.22-4.79,2.45-15-4.08-15Z"/><path class="cls-2" d="M412.53,129V356.17H98V129H412.53m6-17.48H91.92a11.44,11.44,0,0,0-11.44,11.44V362.21a11.44,11.44,0,0,0,11.44,11.44H418.57A11.44,11.44,0,0,0,430,362.21V122.94a11.44,11.44,0,0,0-11.44-11.44Z"/><path class="cls-2" d="M394.5,129.41,272.62,247.58c-5.22,4.73-11.23,7.23-17.38,7.23s-12.16-2.5-17.38-7.23L116,129.41H394.5m23.62-17.48H92.36c-6.53,0-9.3,10.17-4.08,15l137.6,133.42c8.7,8,19,12,29.36,12s20.66-4,29.36-12L422.2,126.9c5.22-4.79,2.45-15-4.08-15Z"/></svg>