<svg xmlns="http://www.w3.org/2000/svg" viewBox="0 0 500 500"><defs><style>.cls-1{fill:#ffeb4d;}.cls-2{fill:#ff4d5c;}</style></defs><title>tools01</title><g id="individual"><path class="cls-1" d="M152.28,188.59c-.2-3.32-.37-6.08-.54-8.84-.21-3.46-.59-6.93-.57-10.39,0-8.07-.23-16.2.55-24.21A129.35,129.35,0,0,1,156,121.6c2-6.86,6.13-13.07,12.52-16.74,4.87-2.8,9.43-6.2,15.23-7.63,2.54-.62,4.57-4.38,6.28-7.06,3.8-6,8.52-11.12,14.74-14.34,7.55-3.91,15.24-8,23.33-10.37,28.63-8.54,57.84-8.18,86.35-.7,20.57,5.4,39,16.12,51.22,34.8a33.29,33.29,0,0,1,5.56,18.91c0,12.42.79,24.85,1.2,37.27.15,4.39.15,8.78.22,13.16.38.26.75.74,1.1.71,7-.43,10.68,3.61,13.89,9.35a179.58,179.58,0,0,1,14.78,34.31c3.59,11.47,7,23,10.43,34.51.2.66.19,1.55.63,2,8.19,7.43,8,17.58,9.12,27.37,1.48,12.41,3.57,24.76,5,37.18,2,18.4,3.8,36.84,5.43,55.29.65,7.33.9,14.72.83,22.07-.06,5.83-3.39,9.34-8.7,12.13-4.45,2.34-8.85,2.65-13.49,3.42-8.2,1.38-16.22,3.75-24.4,5.29-7,1.33-14.23,1.87-21.28,3.15-10.71,1.95-21.29,4.6-32,6.28-12.12,1.88-24.35,3-36.54,4.46-17,2-34,4.06-51,6-18.87,2.17-37.77,4.07-56.61,6.43-9.64,1.21-19.23,3-28.78,4.83-6.8,1.33-11.62-.71-16.62-5.69-10.47-10.44-22-19.82-32.77-30q-20.23-19-39.89-38.7c-4.2-4.22-7.56-9.33-11-14.26a8.18,8.18,0,0,1-1.17-5.69,288,288,0,0,1,17.73-56.17,510,510,0,0,0,21.65-58.56c4.12-13.91,10-27.32,15.35-40.82.58-1.46,3.14-2.42,5-3.05,9.86-3.4,20-3.23,30.19-2A22.47,22.47,0,0,0,152.28,188.59Zm18.91,44.32,14.43,6.15c-.54-3.76-1.1-6.4-1.29-9.07-1.21-17.78-2.56-35.55-3.33-53.35-.19-4.49-1.78-6.62-6-8a53.36,53.36,0,0,1,0,5.84c-1.8,17.09-.46,34.13.82,51.17.28,3.69-1.37,6.2-4.89,7.44-2.77-5.79-2.66-12-2.91-18.22-.38-9.66-.61-19.33-1.09-29-.4-8-1-16.08-1.69-24.11a11.15,11.15,0,0,0-1.43-5.09c-1.83-2.76-4.13-5.22-7.1-8.86-.13,3.78-.09,6.22-.31,8.62-2,21.34,1,42.28,4.9,63.17C162.52,225.77,165.42,230.33,171.19,232.91Zm241,25.72c-7.31-1.12-13.46.88-19.69,2.51A114.31,114.31,0,0,1,381,263.61c-10.74,1.64-21.52,3-32.27,4.65-16.71,2.52-33.38,5.34-50.12,7.65-9.6,1.32-19.3,1.88-29,2.77-2.77.25-5.55.34-8.3.69-11,1.38-22,2.94-33.06,4.24-17.93,2.11-35.87,4.19-53.83,6-11.12,1.15-20.36-2.81-25.9-12.59-9.69-17.11-19-34.46-25.85-53C120.43,218,118.39,211.79,116,205c-6,10.26-9.54,20.65-12.61,31.35-3.82,13.32-7.94,26.62-13,39.52-7.72,19.81-16.14,39.27-21.39,60-2.85,11.25-1,20,6.57,28.06,7.12,7.59,14.25,15.18,21.72,22.42,12.47,12.08,25.17,23.93,37.89,35.75,2.33,2.17,5.21,3.73,7.81,5.61,1.27.93,2.79,1.74,3.65,3,4.42,6.35,10.27,7.65,17.65,6.39,13.46-2.29,27-4.1,40.56-5.82,17.22-2.18,34.48-4.1,51.73-6.07,15.64-1.79,31.31-3.37,46.94-5.27q18.25-2.23,36.41-5.08c7.54-1.18,15-3,22.51-4.31,13.2-2.38,26.64-3.31,39.49-7.66a93.31,93.31,0,0,1,16.6-3.85c5.78-.83,7.71-2.14,8.39-8.06a45.77,45.77,0,0,0,.17-7.63c-.57-10.63-1-21.27-1.93-31.87-1.11-12.67-2.45-25.34-4.09-38-2.06-15.83-4.48-31.61-6.87-47.4A60.87,60.87,0,0,0,412.21,258.64ZM295.7,193.9c1.83-.27,3.65-.62,5.49-.78,19.91-1.75,36.88-9.68,51.19-23.69,4.88-4.77,6.72-9.43,4-16.08s-1.52-8.31,4.52-11.55c1.88-1,4.24-2.71,4.67-4.51,1.06-4.38,1.81-8.76.9-13.59-.95-5-4.28-10-2-15.53.23-.56-.62-1.64-1.09-2.4-12.42-20-31-31.63-53.27-37.24-14.57-3.68-29.59-5.41-44.8-3.84-7.37.76-15,0-22.16,1.57-8.75,1.91-17.1,5.6-25.65,8.41-11.24,3.7-19.94,10.24-25.75,20.86-2.62,4.79-6.55,8.67-12.6,10.07a23.2,23.2,0,0,0-10.35,5.33c-10.24,9.71-13.34,27.56-3.39,39.69,8.42,10.26,18.92,17.69,30.28,24.08,16,9,33.54,13.22,51.23,17C263,195.24,279.22,197.88,295.7,193.9Zm-143.58,1.41c-9.53-4.87-18.47-2.32-27.33-.94-2.66.41-3.76,2.44-3.14,5.23.85,3.85,1.21,7.86,2.52,11.54,7.81,21.87,17.64,42.8,30.42,62.24,5.34,8.13,13.19,11.34,22.77,10.25,16.79-1.91,33.57-3.91,50.36-5.85,10.81-1.25,21.61-2.5,32.42-3.69,5-.56,10.12-.93,15.17-1.45,9-.93,17.94-1.79,26.88-2.92,4.12-.52,8.13-1.82,12.24-2.44,13-2,26.08-3.77,39.13-5.63,8.7-1.24,17.38-2.61,26.11-3.63a104.22,104.22,0,0,0,27-7.22c-1.78-6.33-3.3-12.14-5.07-17.87-2.11-6.84-4.62-13.55-6.65-20.41a123.54,123.54,0,0,0-14.84-32c-1.78-2.76-4-4.22-7.77-3.43.2,3.41.45,6.62.56,9.83.36,10.17.79,20.34,1,30.52.1,5.8-2.17,8.74-7.69,9.49a45.79,45.79,0,0,0-10.17,3c-3.3,1.24-6.8,2.39-9.64,4.35-6.58,4.53-14.17,6.59-21.37,9.58a44.25,44.25,0,0,1-10,2.79q-19.21,3-38.49,5.67a228.32,228.32,0,0,1-71.18-1.08,127.63,127.63,0,0,1-20.79-5.53c-8.69-3.12-17.25-6.7-24.32-13.05a10.62,10.62,0,0,1-3.77-7C155.15,215.53,153.59,205.49,152.12,195.32Zm95.09,52.21c3.4-16.7.38-32.9,3.34-49.21l-24.22-5.63c.29,8.73.25,16.78,1,24.77.31,3.53,2.13,6.92,3.24,10.38a25.76,25.76,0,0,1,1.35,4.59c.56,4.51.91,9,1.44,14.52Zm38.28-3.43c-.6-7.75-1.34-14.6-1.6-21.47-.26-7.05-.05-14.12-.05-21.32l-18.16-.11c-3.38,14.92-5.07,41.21-2.78,46.17Zm33-4.94c-1.4-14.54.18-28.6-1.95-42.87l-14.22,3.17,1.07,41.89ZM328.66,192l.85,42.86c2.71-.93,4.66-1.59,6.6-2.27,4.54-1.59,7.27-3.91,6.75-9.62-1-11-1.15-22.14-1.72-33.21a8.58,8.58,0,0,0-.9-2.4ZM194.38,181.46c.07,2,0,3.33.2,4.65a263,263,0,0,1,2.56,33.75c.14,6.78,2.48,13.51,3.65,20.29.72,4.23,3.49,4.09,6.68,3.88a8.18,8.18,0,0,0,.51-2.19c-1.53-17.21-3.23-34.42-4.6-51.64C202.94,184.81,200,182.51,194.38,181.46Zm26.46,64.26c3.86,1.27,5.77.41,5.73-3.09a41.41,41.41,0,0,0-.66-6.9c-2-10.69-4.43-21.28-4-32.31.14-3.62-.83-7.31-1.51-10.92-.16-.83-1.21-1.5-2.34-2.81-2.33,6.91-1.19,13-.5,19.14q1.23,11,2.25,22C220.25,235.87,220.5,240.89,220.84,245.72Zm75-.86c3.2-8.25,2.33-38.86-.8-45-6.61,13.48-3.55,27.19-2.25,40.74C292.86,241.77,294.33,242.85,295.8,244.85Zm-101.61-5.3c-3.27-18.95.38-38.72-6.49-57.19C188.13,201.64,185.78,221.23,194.19,239.56Zm168.32-70.81c-3.74,2.08-5.21,3.94-5,7.55.72,15.09,1.06,30.21,1.55,45.61,3.53-.76,3-3.22,3.06-5.41.24-9.2.62-18.39.74-27.59C362.9,182.5,362.64,176.09,362.51,168.75ZM346.8,182.19c.57,3.94,1.2,6.73,1.34,9.55.47,8.94.73,17.89,1.16,26.84a11,11,0,0,0,1,2.89l1.39-.18c2.36-13.66-.31-27.28-.48-41.92ZM258,200.53c-5.58,15-2.94,30.62-3.37,46C257.54,231.33,260.3,216.13,258,200.53Z"/><path class="cls-1" d="M185.16,299.74c-1.94,1.14-2.69,1.93-3.49,2-4.69.4-5.39,4.06-5.76,7.45-.65,6-.63,12-1.15,18-.68,7.82-1.33,15.65-2.5,23.4-1.69,11.16-4.22,22.2-5.67,33.38-1.31,10.07-1.66,20.25-2.4,30.39-.18,2.5-.22,5-.33,7.63,3.1,2.5,6.55,1.42,9.91,1.27,2-.09,4.71-.67,4.71,2.45,0,2.89-2,3.59-4.82,3.29-5.18-.55-10.4-.69-16.36-1.05.45-4.92.81-9,1.19-13,1.14-12.2,1.88-24.44,3.52-36.57,2-14.86,5.11-29.57,7-44.44,1.09-8.43.7-17.05,1.12-25.58.36-7.45,4.49-11.33,11.44-10.78C182.52,297.58,183.35,298.57,185.16,299.74Z"/><path class="cls-1" d="M150.48,292c1.13.77,3,1.38,3.14,2.25.9,6.31,9.9,7.45,9.13,14.77-.48,4.57-.42,9.19-.82,13.77-1.53,17.45-3,34.91-4.81,52.34-.72,7.11-2.22,14.14-3.17,21.23a101.19,101.19,0,0,0-.66,10.36c-.08,2.56-.57,4.86-3.66,4.77-3.29-.1-3.34-2.83-3.11-5.12.66-6.44,1.59-12.85,2.36-19.27,1.48-12.36,3.05-24.72,4.36-37.11,1.23-11.69,2.14-23.42,3.23-35.13.45-4.8,0-8.88-4.36-12.33C148.18,299.47,148.25,296.79,150.48,292Z"/><path class="cls-1" d="M122.17,360.57c-2.72-3-2-5.44-.16-7.91,2-2.64,3.93-5.3,7.6-5.42a2.88,2.88,0,0,1,2.19,1.34,2.75,2.75,0,0,1-.25,2.52C128.63,354.22,125.56,357.19,122.17,360.57Z"/><path class="cls-1" d="M90.48,338.24c-.91-2.45-1.87-3.74-1.55-4.38a61.59,61.59,0,0,1,5.35-8.73c.56-.74,3-1.16,3.44-.68.88.95,1.75,3.19,1.24,3.9C96.74,331.47,94,334.22,90.48,338.24Z"/><path class="cls-1" d="M125.82,281.16c-2.89,4-5,7.21-7.46,10.14-.58.7-2.43.87-3.41.51-.65-.23-1.41-2.31-1.06-2.78a107,107,0,0,1,7.8-9.29C122,279.42,123.63,280.38,125.82,281.16Z"/><path class="cls-1" d="M116.34,337.89c1.25,2.47,2.76,4.15,2.38,4.94A53,53,0,0,1,113,352c-.46.61-2.61.42-3.64-.09-.57-.28-.94-2.31-.51-3C111,345.47,113.35,342.23,116.34,337.89Z"/><path class="cls-1" d="M109.15,334c-.35,1.38-.41,2.93-1.11,4.09a22.13,22.13,0,0,1-4,4.73,16.65,16.65,0,0,1-3.75,2c-.37-1.67-1.32-3.48-1-5,.33-1.34,2-2.43,3.24-3.45,1.53-1.27,3.2-2.36,4.81-3.53Z"/><path class="cls-1" d="M128.07,304.06c1.28,2.25,2.92,4.06,2.55,4.68a78.3,78.3,0,0,1-6.69,9.24,2.59,2.59,0,0,1-2.35-.19c-.52-1.11-1.16-2.81-.66-3.63C122.87,310.94,125.24,308,128.07,304.06Z"/><path class="cls-1" d="M134.07,374.44c-.36-4.54,1.94-9.43,4.95-10.81a2.74,2.74,0,0,1,2.47.16,4.08,4.08,0,0,1,1.11,2.92C142.28,369,137.78,373,134.07,374.44Z"/><path class="cls-1" d="M116.89,304c.68,2.81,1.56,4.3,1.14,5.13a22,22,0,0,1-4.34,6,4.78,4.78,0,0,1-4.15.81c-2.22-.86-2-3.16-.76-4.58C110.85,309,113.38,307.09,116.89,304Z"/><path class="cls-1" d="M106.56,299.89c-3.57,8.86-6.6,10.82-10.64,7.25C100.35,300.26,102,299.07,106.56,299.89Z"/><path class="cls-1" d="M105.11,375.36c-4.67-3.32-4.67-3.32,2.29-11,2.5.57,4.19,1.75,2.51,4.58A70.35,70.35,0,0,1,105.11,375.36Z"/><path class="cls-1" d="M103.49,276.46c-2.73-1.16-3.78-2.36-2.63-4.61a9.64,9.64,0,0,1,10.45-5.4Z"/><path class="cls-1" d="M135.75,278.46a12.39,12.39,0,0,1,2.15,1.2,13,13,0,0,1,1.47,2.07l-5.79,6.49C129.38,284.27,129.38,284.27,135.75,278.46Z"/><path class="cls-1" d="M137.56,323.15c.62.56,1.88,1.21,2.39,2.24.79,1.59-2.63,6.37-4.74,6.43a3.77,3.77,0,0,1-2.83-2C131.51,327.59,134.44,323.67,137.56,323.15Z"/><path class="cls-1" d="M118,277.35c-2.85,3.09-4.39,5.13-6.33,6.68a3.69,3.69,0,0,1-3.57.12,3.54,3.54,0,0,1-.27-3.51,20.73,20.73,0,0,1,5.12-4.44C113.56,275.82,114.92,276.6,118,277.35Z"/><path class="cls-1" d="M123,246.12c.66,2.62-3.1,8.33-5.12,8.46-1.84.13-3.6-.91-2.76-2.71a23.49,23.49,0,0,1,4.89-6.33C120.43,245.11,122.15,245.94,123,246.12Z"/><path class="cls-1" d="M124.37,391.23c-3.77-3.36-4.21-5.1-1.87-7.5.75-.76,2.64-1.3,3.44-.88a3.74,3.74,0,0,1,1.55,3.29C126.9,387.94,125.49,389.49,124.37,391.23Z"/><path class="cls-1" d="M129.95,255.85c1.39,5.23-3.88,6.08-3.86,10.09C120.7,261.46,121.69,259.29,129.95,255.85Z"/><path class="cls-1" d="M117.07,232.09c1.5,4.85-.24,9.14-3.1,9.87a2.83,2.83,0,0,1-2.38-.63,2.52,2.52,0,0,1-.31-2.38C112.83,236.84,114.63,234.93,117.07,232.09Z"/><path class="cls-1" d="M88.42,355.43a52.81,52.81,0,0,1-5.92,4.92c-.41.25-2.44-1-2.73-1.9-.66-2,1.95-5.13,4.25-5.11C85.11,353.35,86.2,354.33,88.42,355.43Z"/><path class="cls-1" d="M346.83,118.35c-1-2.58-1.92-4.67-2.63-6.84a26.4,26.4,0,0,0-9.69-13.25c-12.66-9.29-27-13.92-42.61-14.87-10.84-.66-21.69-1.2-32.55-1.42-7.12-.14-14.39-.35-21.36.85-5.56,1-10.85,3.81-16.1,6.18a19.26,19.26,0,0,0-6.11,4.48c-4.06,4.43-7.89,9.09-11.64,13.78-3.91,4.89-8.6,8.19-15,8.77-3.48.31-13.62,7.77-14.47,10.8-.58,2.08-.3,4.41-.41,7-4.12-.79-4.87-3.74-4.68-6.7a12.81,12.81,0,0,1,8.31-11.72c10.67-4.45,20.37-10.39,28.41-18.81a18.29,18.29,0,0,0,2.6-4.05c3-5.6,7.74-8.8,13.69-10.88,10.14-3.54,20.72-4.44,31.2-5.94a29.62,29.62,0,0,1,5.48.18c3.93.18,7.92.93,11.76.47,12.83-1.57,25.49-.14,37.75,3,10.21,2.64,20.23,6.4,29,12.89,6.92,5.12,10.48,12.24,13.42,19.82C352.66,115.93,352,116.64,346.83,118.35Z"/><path class="cls-1" d="M229.34,358.64a16.77,16.77,0,0,0,1.9-2.24,6.07,6.07,0,0,1,2.66-2.31,2.94,2.94,0,0,0,1.66-2.14A3.56,3.56,0,0,1,239,349c.71,0,1.47-1.2,2-2a4.12,4.12,0,0,1,4.63-1.72c2.78,1.11,5.21,2.75,6.11,5.76a14.82,14.82,0,0,1,.84,6c-.5,4.68-2.23,9-3.4,13.48-1.75,6.65-2.84,13.37-1.89,20.25a17.28,17.28,0,0,0,1.57,4.45,2,2,0,0,0,1.36,1,5.08,5.08,0,0,0,4.18-.82,58.19,58.19,0,0,0,4.87-4.63,22.08,22.08,0,0,0,3-4c1-1.71,1.68-3.58,2.54-5.35a8.49,8.49,0,0,0,.87-5c-.14-1-.19-2-.35-2.94-.41-2.43.29-4.75.67-7.1.28-1.75.9-3.45,1.27-5.19.32-1.49.5-3,.78-4.74a5.06,5.06,0,0,1,3.43-1,54.64,54.64,0,0,0,6.95-.06,3.59,3.59,0,0,0,1.69-.51,34.73,34.73,0,0,0,6.43-4.53,24.73,24.73,0,0,1,4.47-3c1.37-.85,2.85-1.54,4.16-2.48a7.07,7.07,0,0,1,9.57,1.3,27.78,27.78,0,0,1,1.82,3.23c.16.28.36.54.7,1,1-1,2-1.83,2.79-2.82,2.17-2.67,4.21-5.44,6.4-8.09a3.9,3.9,0,0,1,4.4-1.57,8.93,8.93,0,0,1,2.68,1.6,33.85,33.85,0,0,1,2.61,2.64,13.62,13.62,0,0,0,2-3.31,10.84,10.84,0,0,1,2.06-3.65c1.35-1.59,2.58-3.28,4-4.83s2.92-1.79,4.74-2.27c2.36-.61,4.12.16,6.06,1a12.71,12.71,0,0,1,6.32,5.45,18.67,18.67,0,0,1,2.37,10.29,15.25,15.25,0,0,1-.84,4.46c-.41,1.08-.29,2.37-.72,3.45-.9,2.27-2,4.47-3,6.69-1.13,2.44-2.4,4.82-3.4,7.3a58.11,58.11,0,0,0-1.66,5.74,6.69,6.69,0,0,0,1.89.31c2.33-.39,4.66-.79,6.6-2.37,1.74-1.41,3.49-2.8,5.21-4.23s3.41-3.4,5.51-4.7c1-.63,1.55-2,2.73-2.73.27-.16.25-1.14.09-1.66-1.26-4.18-.92-8.37-.11-12.56.28-1.43.69-2.84,1-4.27a25.52,25.52,0,0,1,3.21-7.67,23.11,23.11,0,0,1,3.12-3.57c.31-.34.72-.59,1.06-.91a3.32,3.32,0,0,1,4.45-.61c.67.39,1.37.73,2,1.05,1.18,1.57,2.31,3.17,3.54,4.69,1.5,1.86,3,3.77,3.39,6.17a7.18,7.18,0,0,1-.16,3.28,10.55,10.55,0,0,1-3.43,5.46,1.4,1.4,0,0,0-.52.59c-.89,3.07-3.59,4.63-5.63,6.72-1.15,1.17-2.52,2.13-3.65,3.32-.74.79-1.46,1.77-.82,3,1.36,2.65,3,5.12,5.6,6.67a8.69,8.69,0,0,0,4.94,1.2,17.62,17.62,0,0,0,8.74-2.81,27.71,27.71,0,0,1,4.76-2.38,2.79,2.79,0,0,1,2.3.17,6.85,6.85,0,0,1,2.37,2.74,3.09,3.09,0,0,1-2.69,4.34c-3.24.14-5.9,1.87-8.88,2.68a34.7,34.7,0,0,1-5,.94,14.36,14.36,0,0,1-5.3-.05,15.46,15.46,0,0,1-8-5.19c-1.44-1.64-2.66-3.46-4.13-5.39a29.82,29.82,0,0,0-2.61,2.07,15.51,15.51,0,0,1-3.66,3c-.59.31-1,1.07-1.4,1.63a21.25,21.25,0,0,1-3.49,3.17,20.23,20.23,0,0,1-5.34,2.92,9.67,9.67,0,0,1-2.26.7c-2.94.39-5.88.88-8.84,1a3.84,3.84,0,0,1-3.81-5.28c1.22-3.55,2.42-7.12,3.85-10.59s3-6.62,4.58-9.92A25.32,25.32,0,0,0,348,343.29c.1-3.92-1.6-8.15-6.57-9.44a3.49,3.49,0,0,0-3.67.88,20.68,20.68,0,0,1-2.72,2.87c-1.87,1.38-2.54,3.46-3.42,5.38a84.49,84.49,0,0,0-3.37,8.69,10.34,10.34,0,0,0-.78,4.4,6,6,0,0,1-.47,2.1c-.65,2.3-1.38,4.57-2,6.88-.87,3.46-1.66,6.95-2.43,10.43a6.89,6.89,0,0,0,0,1.58c0,1.68-.8,2.44-2.44,2.22-.39-.05-.79-.07-1.18-.12a2.08,2.08,0,0,1-1.81-1.52c-1-2.33-.36-4.59.08-6.81.54-2.73,1.35-5.4,2.1-8.08s1.84-5.39,2.34-8.16a19.4,19.4,0,0,0-.26-8.21c-.52-2-1.62-2.23-3.07-.71a47.28,47.28,0,0,0-6.77,8.83c-1.09,1.88-2.41,3.63-3.49,5.52a14.08,14.08,0,0,0-1.41,3.49c-.93,3.65-1.73,7.34-2.6,11a37.34,37.34,0,0,1-1.92,5.73,2.78,2.78,0,0,1-4.46,1c-.55-.47-1.06-1-1.5-1.42,0-1.35,0-2.6-.1-3.83-.32-2.93,1.06-5.41,2-8,.88-2.34,2.42-4.45,2.77-7s.47-5,.64-7.5a3.7,3.7,0,0,0-.22-1.57c-.69-1.74-1.15-2.38-3.43-1.89s-3.66,1.86-5.39,2.89c-2.71,1.61-5.2,3.59-7.78,5.42-.32.23-.59.51-1,.87a10.12,10.12,0,0,1,2.79,6c.54,3.17,1.37,6.33,1,9.57a29.71,29.71,0,0,1-2.79,10.7c-.95,1.82-1.73,3.81-3.71,4.79a19,19,0,0,1-3.86,1.42c-3.69.89-6.25-.77-8.12-3.84-.28-.45-.58-.89-.89-1.32-.06-.09-.23-.1-.48-.21-1.18,2-2.44,4-3.55,6.11a23.47,23.47,0,0,1-5.14,6.29,12.27,12.27,0,0,1-9.09,3.35,7.26,7.26,0,0,1-5.31-4c-.42-1.09-1.07-2.08-1.49-3.17-.58-1.48-1-3-1.54-4.51a2.4,2.4,0,0,1-.2-.77c.09-3.44.2-6.88.31-10.32,0-.06.06-.13.05-.19-.26-3.91,1.13-7.52,2-11.23.45-2,1.11-3.94,1.68-5.91a31.74,31.74,0,0,0,1.51-8.14c0-1.26-.3-2.69-1.57-3.21-1.06-.43-2,.5-2.75,1.26-2.77,2.85-5.49,5.75-8.22,8.63a2.41,2.41,0,0,0-.34.49c-2.43,4.38-5.88,8.19-7.51,13-.69,2.06-1.42,4.11-1.94,6.21a106.84,106.84,0,0,0-3,14.39c-.24,2.36-.9,4.67-1.34,7a14,14,0,0,0-.15,2c-.07,1.78-.35,2.08-2.07,2.18-2.21.13-2.35-.08-3-2.22a18.43,18.43,0,0,1-.15-8.83c.3-1.63.52-3.28.89-4.89.24-1.05.11-2.3,1.28-3,.17-.1.22-.46.28-.72.66-2.81,1.34-5.62,2-8.44q1.22-5.53,2.38-11.07c.66-3.16,1.33-6.32,1.92-9.5a28.41,28.41,0,0,0,.21-3.44c-1.33-.07-2,.9-2.69,1.55-1.71,1.62-3.82,2.57-5.77,3.78-1.18.73-2.41,1.4-3.66,2a88.16,88.16,0,0,1-8.77,4.13c-2.85,1-5.86,1.44-8.88.1-1.78-.79-3.36-2.19-3-4.43a12.61,12.61,0,0,0,.07-1.43c1.77.14,3.59-.52,5.32.52a3.76,3.76,0,0,0,3.08.22,40.44,40.44,0,0,0,10.12-4.61,9.64,9.64,0,0,1,3.94-1.62,4.38,4.38,0,0,0,3-2.17c.75-1.13,1.67-2.07,3.24-1.65a3.86,3.86,0,0,1,2.9-3,3.07,3.07,0,0,0,2.14-3c.32-3.42.3-6.86.55-10.28a81.51,81.51,0,0,1,1.5-12.66c.44-1.92,1.2-3.76,1.81-5.64.36-1.11.71-2.22,1.06-3.33,1.19-3.71,2.85-7.12,6.07-9.54,1.67-1.26,3.66-.77,5.56.92a6.79,6.79,0,0,1,2.3,4.49c.25,2.35.84,4.66,1.18,7s-.38,4.6-.76,6.89c-.66,4-2.4,7.52-4.19,11.08a87.42,87.42,0,0,1-6.16,9.92c-1,1.52-2.28,2.91-3.44,4.35a4.27,4.27,0,0,0-.86,2.57c-.14,2.29-.49,4.57-.72,6.86a13.61,13.61,0,0,0,0,1.73Zm54.08,10.67a14.18,14.18,0,0,0-2.2-6.06c-.83-1.34-1.95-1.49-2.79-.18a30.53,30.53,0,0,0-1.69,3.57q-.44.94-.92,1.87a14.8,14.8,0,0,0-1.56,3.12,7,7,0,0,1-1.12,2.45,8.8,8.8,0,0,0-1.35,3c-.68,3.09.72,5.7,2.21,8.23a1.89,1.89,0,0,0,2.57.77,6.71,6.71,0,0,0,3.11-2.67,38.57,38.57,0,0,0,3.18-7.68A13.71,13.71,0,0,0,283.42,369.31ZM238.25,308a17.5,17.5,0,0,0-1.92,2.54,48.73,48.73,0,0,0-2.18,5.09c-1.26,3.4-2.57,6.79-2.77,10.5-.12,2.37-.5,4.72-.7,7.08a35.89,35.89,0,0,0-.08,3.77,8.07,8.07,0,0,0,.43,1.64c.51-.6,1.06-1,1-1.29,0-1.1.68-1.6,1.31-2.29.84-.91,1.94-1.94,2.08-3a8.32,8.32,0,0,1,1.55-3.55c.58-.91.66-2.15,1.81-2.7.13-.06.19-.34.23-.53.31-1.48.61-3,.91-4.43a24.9,24.9,0,0,0,.09-8.3C239.87,311.1,239.91,309.44,238.25,308Zm132.85,45.53a13.74,13.74,0,0,0,1.8-1.13,59,59,0,0,0,9.4-10.43c.42-.62,1-1.59.78-2.11-.83-2.08-1.91-4.1-4-5.22a2,2,0,0,0-1.63-.08,5,5,0,0,0-1.58,1.68,31.13,31.13,0,0,0-4.64,14.82C371.18,351.81,371.14,352.5,371.09,353.58Z"/><path class="cls-1" d="M283.42,369.31a13.71,13.71,0,0,1-.55,6.4,38.57,38.57,0,0,1-3.18,7.68,6.71,6.71,0,0,1-3.11,2.67,1.89,1.89,0,0,1-2.57-.77c-1.49-2.53-2.89-5.14-2.21-8.23a8.8,8.8,0,0,1,1.35-3,7,7,0,0,0,1.12-2.45,14.8,14.8,0,0,1,1.56-3.12q.48-.92.92-1.87a30.53,30.53,0,0,1,1.69-3.57c.84-1.31,2-1.16,2.79.18A14.18,14.18,0,0,1,283.42,369.31Z"/><path class="cls-1" d="M238.25,308c1.66,1.39,1.63,3.06,1.81,4.49a24.9,24.9,0,0,1-.09,8.3c-.3,1.48-.6,3-.91,4.43,0,.19-.1.47-.23.53-1.15.55-1.23,1.79-1.81,2.7a8.32,8.32,0,0,0-1.55,3.55c-.14,1.09-1.24,2.12-2.08,3-.63.69-1.36,1.18-1.31,2.29,0,.33-.54.69-1,1.29a8.07,8.07,0,0,1-.43-1.64,35.89,35.89,0,0,1,.08-3.77c.2-2.36.58-4.71.7-7.08.19-3.71,1.51-7.09,2.77-10.5a48.73,48.73,0,0,1,2.18-5.09A17.5,17.5,0,0,1,238.25,308Z"/><path class="cls-1" d="M371.09,353.58c.05-1.08.09-1.77.11-2.46a31.13,31.13,0,0,1,4.64-14.82,5,5,0,0,1,1.58-1.68,2,2,0,0,1,1.63.08c2.11,1.12,3.18,3.14,4,5.22.21.52-.36,1.49-.78,2.11a59,59,0,0,1-9.4,10.43A13.74,13.74,0,0,1,371.09,353.58Z"/><path class="cls-2" d="M158.51,182.17c-.2-3.32-.37-6.08-.54-8.84-.21-3.46-.59-6.93-.57-10.39,0-8.07-.23-16.2.55-24.21a129.35,129.35,0,0,1,4.25-23.56c2-6.86,6.13-13.07,12.52-16.74,4.87-2.8,9.43-6.2,15.23-7.63,2.54-.62,4.57-4.38,6.28-7.06,3.8-6,8.52-11.12,14.74-14.34,7.55-3.91,15.24-8,23.33-10.37,28.63-8.54,57.84-8.18,86.35-.7,20.57,5.4,39,16.12,51.22,34.8A33.29,33.29,0,0,1,377.45,112c0,12.42.79,24.85,1.2,37.27.15,4.39.15,8.78.22,13.16.38.26.75.74,1.1.71,7-.43,10.68,3.61,13.89,9.35a179.58,179.58,0,0,1,14.78,34.31c3.59,11.47,7,23,10.43,34.51.2.66.19,1.55.63,2,8.19,7.43,8,17.58,9.12,27.37,1.48,12.41,3.57,24.76,5,37.18,2,18.4,3.8,36.84,5.43,55.29.65,7.33.9,14.72.83,22.07-.06,5.83-3.39,9.34-8.7,12.13-4.45,2.34-8.85,2.65-13.49,3.42-8.2,1.38-16.22,3.75-24.4,5.29-7,1.33-14.23,1.87-21.28,3.15-10.71,1.95-21.29,4.6-32,6.28-12.12,1.88-24.35,3-36.54,4.46-17,2-34,4.06-51,6-18.87,2.17-37.77,4.07-56.61,6.43-9.64,1.21-19.23,3-28.78,4.83-6.8,1.33-11.62-.71-16.62-5.69-10.47-10.44-22-19.82-32.77-30q-20.23-19-39.89-38.7c-4.2-4.22-7.56-9.33-11-14.26a8.18,8.18,0,0,1-1.17-5.69,288,288,0,0,1,17.73-56.17,510,510,0,0,0,21.65-58.56c4.12-13.91,10-27.32,15.35-40.82.58-1.46,3.14-2.42,5-3.05,9.86-3.4,20-3.23,30.19-2A22.47,22.47,0,0,0,158.51,182.17Zm18.91,44.32,14.43,6.15c-.54-3.76-1.1-6.4-1.29-9.07-1.21-17.78-2.56-35.55-3.33-53.35-.19-4.49-1.78-6.62-6-8a53.36,53.36,0,0,1,0,5.84c-1.8,17.09-.46,34.13.82,51.17.28,3.69-1.37,6.2-4.89,7.44-2.77-5.79-2.66-12-2.91-18.22-.38-9.66-.61-19.33-1.09-29-.4-8-1-16.08-1.69-24.11a11.15,11.15,0,0,0-1.43-5.09c-1.83-2.76-4.13-5.22-7.1-8.86-.13,3.78-.09,6.22-.31,8.62-2,21.34,1,42.28,4.9,63.17C168.75,219.35,171.66,223.91,177.43,226.49Zm241,25.72c-7.31-1.12-13.46.88-19.69,2.51a114.31,114.31,0,0,1-11.54,2.46c-10.74,1.64-21.52,3-32.27,4.65-16.71,2.52-33.38,5.34-50.12,7.65-9.6,1.32-19.3,1.88-29,2.77-2.77.25-5.55.34-8.3.69-11,1.38-22,2.94-33.06,4.24-17.93,2.11-35.87,4.19-53.83,6-11.12,1.15-20.36-2.81-25.9-12.59-9.69-17.11-19-34.46-25.85-53-2.26-6.11-4.29-12.31-6.65-19.11-6,10.26-9.54,20.65-12.61,31.35-3.82,13.32-7.94,26.62-13,39.52-7.72,19.81-16.14,39.27-21.39,60-2.85,11.25-1,20,6.57,28.06C89,365.13,96.12,372.72,103.6,380c12.47,12.08,25.17,23.93,37.89,35.75,2.33,2.17,5.21,3.73,7.81,5.61,1.27.93,2.79,1.74,3.65,3,4.42,6.35,10.27,7.65,17.65,6.39,13.46-2.29,27-4.1,40.56-5.82,17.22-2.18,34.48-4.1,51.73-6.07,15.64-1.79,31.31-3.37,46.94-5.27q18.25-2.23,36.41-5.08c7.54-1.18,15-3,22.51-4.31,13.2-2.38,26.64-3.31,39.49-7.66a93.31,93.31,0,0,1,16.6-3.85c5.78-.83,7.71-2.14,8.39-8.06a45.77,45.77,0,0,0,.17-7.63c-.57-10.63-1-21.27-1.93-31.87-1.11-12.67-2.45-25.34-4.09-38-2.06-15.83-4.48-31.61-6.87-47.4A60.87,60.87,0,0,0,418.45,252.22ZM301.94,187.48c1.83-.27,3.65-.62,5.49-.78,19.91-1.75,36.88-9.68,51.19-23.69,4.88-4.77,6.72-9.43,4-16.08s-1.52-8.31,4.52-11.55c1.88-1,4.24-2.71,4.67-4.51,1.06-4.38,1.81-8.76.9-13.59-.95-5-4.28-10-2-15.53.23-.56-.62-1.64-1.09-2.4-12.42-20-31-31.63-53.27-37.24-14.57-3.68-29.59-5.41-44.8-3.84-7.37.76-15,0-22.16,1.57-8.75,1.91-17.1,5.6-25.65,8.41C212.47,72,203.77,78.5,198,89.12c-2.62,4.79-6.55,8.67-12.6,10.07A23.2,23.2,0,0,0,175,104.53c-10.24,9.71-13.34,27.56-3.39,39.69,8.42,10.26,18.92,17.69,30.28,24.08,16,9,33.54,13.22,51.23,17C269.26,188.82,285.46,191.46,301.94,187.48ZM158.36,188.9c-9.53-4.87-18.47-2.32-27.33-.94-2.66.41-3.76,2.44-3.14,5.23.85,3.85,1.21,7.86,2.52,11.54,7.81,21.87,17.64,42.8,30.42,62.24,5.34,8.13,13.19,11.34,22.77,10.25,16.79-1.91,33.57-3.91,50.36-5.85,10.81-1.25,21.61-2.5,32.42-3.69,5-.56,10.12-.93,15.17-1.45,9-.93,17.94-1.79,26.88-2.92,4.12-.52,8.13-1.82,12.24-2.44,13-2,26.08-3.77,39.13-5.63,8.7-1.24,17.38-2.61,26.11-3.63a104.22,104.22,0,0,0,27-7.22c-1.78-6.33-3.3-12.14-5.07-17.87-2.11-6.84-4.62-13.55-6.65-20.41a123.54,123.54,0,0,0-14.84-32c-1.78-2.76-4-4.22-7.77-3.43.2,3.41.45,6.62.56,9.83.36,10.17.79,20.34,1,30.52.1,5.8-2.17,8.74-7.69,9.49a45.79,45.79,0,0,0-10.17,3c-3.3,1.24-6.8,2.39-9.64,4.35-6.58,4.53-14.17,6.59-21.37,9.58a44.25,44.25,0,0,1-10,2.79q-19.21,3-38.49,5.67a228.32,228.32,0,0,1-71.18-1.08,127.63,127.63,0,0,1-20.79-5.53c-8.69-3.12-17.25-6.7-24.32-13.05a10.62,10.62,0,0,1-3.77-7C161.39,209.11,159.83,199.07,158.36,188.9Zm95.09,52.21c3.4-16.7.38-32.9,3.34-49.21l-24.22-5.63c.29,8.73.25,16.78,1,24.77.31,3.53,2.13,6.92,3.24,10.38a25.76,25.76,0,0,1,1.35,4.59c.56,4.51.91,9,1.44,14.52Zm38.28-3.43c-.6-7.75-1.34-14.6-1.6-21.47-.26-7.05-.05-14.12-.05-21.32l-18.16-.11c-3.38,14.92-5.07,41.21-2.78,46.17Zm33-4.94c-1.4-14.54.18-28.6-1.95-42.87L308.51,193l1.07,41.89Zm10.22-47.2.85,42.86c2.71-.93,4.66-1.59,6.6-2.27,4.54-1.59,7.27-3.91,6.75-9.62-1-11-1.15-22.14-1.72-33.21a8.58,8.58,0,0,0-.9-2.4ZM200.61,175c.07,2,0,3.33.2,4.65a263,263,0,0,1,2.56,33.75c.14,6.78,2.48,13.51,3.65,20.29.72,4.23,3.49,4.09,6.68,3.88a8.18,8.18,0,0,0,.51-2.19c-1.53-17.21-3.23-34.42-4.6-51.64C209.18,178.39,206.28,176.09,200.61,175Zm26.46,64.26c3.86,1.27,5.77.41,5.73-3.09a41.41,41.41,0,0,0-.66-6.9c-2-10.69-4.43-21.28-4-32.31.14-3.62-.83-7.31-1.51-10.92-.16-.83-1.21-1.5-2.34-2.81-2.33,6.91-1.19,13-.5,19.14q1.23,11,2.25,22C226.49,229.45,226.74,234.47,227.07,239.3Zm75-.86c3.2-8.25,2.33-38.86-.8-45-6.61,13.48-3.55,27.19-2.25,40.74C299.1,235.36,300.57,236.43,302,238.43Zm-101.61-5.3c-3.27-18.95.38-38.72-6.49-57.19C194.37,195.22,192,214.81,200.43,233.14Zm168.32-70.81c-3.74,2.08-5.21,3.94-5,7.55.72,15.09,1.06,30.21,1.55,45.61,3.53-.76,3-3.22,3.06-5.41.24-9.2.62-18.39.74-27.59C369.14,176.08,368.88,169.67,368.75,162.33ZM353,175.77c.57,3.94,1.2,6.73,1.34,9.55.47,8.94.73,17.89,1.16,26.84a11,11,0,0,0,1,2.89l1.39-.18c2.36-13.66-.31-27.28-.48-41.92Zm-88.77,18.34c-5.58,15-2.94,30.62-3.37,46C263.78,224.91,266.54,209.71,264.28,194.11Z"/><path class="cls-2" d="M191.4,293.32c-1.94,1.14-2.69,1.93-3.49,2-4.69.4-5.39,4.06-5.76,7.45-.65,6-.63,12-1.15,18-.68,7.82-1.33,15.65-2.5,23.4-1.69,11.16-4.22,22.2-5.67,33.38-1.31,10.07-1.66,20.25-2.4,30.39-.18,2.5-.22,5-.33,7.63,3.1,2.5,6.55,1.42,9.91,1.27,2-.09,4.71-.67,4.71,2.45,0,2.89-2,3.59-4.82,3.29-5.18-.55-10.4-.69-16.36-1.05.45-4.92.81-9,1.19-13,1.14-12.2,1.88-24.44,3.52-36.57,2-14.86,5.11-29.57,7-44.44,1.09-8.43.7-17.05,1.12-25.58.36-7.45,4.49-11.33,11.44-10.78C188.76,291.16,189.59,292.15,191.4,293.32Z"/><path class="cls-2" d="M156.72,285.61c1.13.77,3,1.38,3.14,2.25.9,6.31,9.9,7.45,9.13,14.77-.48,4.57-.42,9.19-.82,13.77-1.53,17.45-3,34.91-4.81,52.34-.72,7.11-2.22,14.14-3.17,21.23a101.19,101.19,0,0,0-.66,10.36c-.08,2.56-.57,4.86-3.66,4.77-3.29-.1-3.34-2.83-3.11-5.12.66-6.44,1.59-12.85,2.36-19.27,1.48-12.36,3.05-24.72,4.36-37.11,1.23-11.69,2.14-23.42,3.23-35.13.45-4.8,0-8.88-4.36-12.33C154.42,293.05,154.49,290.37,156.72,285.61Z"/><path class="cls-2" d="M128.41,354.15c-2.72-3-2-5.44-.16-7.91,2-2.64,3.93-5.3,7.6-5.42a2.88,2.88,0,0,1,2.19,1.34,2.75,2.75,0,0,1-.25,2.52C134.87,347.8,131.8,350.77,128.41,354.15Z"/><path class="cls-2" d="M96.72,331.82c-.91-2.45-1.87-3.74-1.55-4.38a61.59,61.59,0,0,1,5.35-8.73c.56-.74,3-1.16,3.44-.68.88.95,1.75,3.19,1.24,3.9C103,325,100.26,327.8,96.72,331.82Z"/><path class="cls-2" d="M132.06,274.74c-2.89,4-5,7.21-7.46,10.14-.58.7-2.43.87-3.41.51-.65-.23-1.41-2.31-1.06-2.78a107,107,0,0,1,7.8-9.29C128.22,273,129.87,274,132.06,274.74Z"/><path class="cls-2" d="M122.58,331.47c1.25,2.47,2.76,4.15,2.38,4.94a53,53,0,0,1-5.68,9.17c-.46.61-2.61.42-3.64-.09-.57-.28-.94-2.31-.51-3C117.2,339,119.59,335.81,122.58,331.47Z"/><path class="cls-2" d="M115.39,327.58c-.35,1.38-.41,2.93-1.11,4.09a22.13,22.13,0,0,1-4,4.73,16.65,16.65,0,0,1-3.75,2c-.37-1.67-1.32-3.48-1-5,.33-1.34,2-2.43,3.24-3.45,1.53-1.27,3.2-2.36,4.81-3.53Z"/><path class="cls-2" d="M134.31,297.64c1.28,2.25,2.92,4.06,2.55,4.68a78.3,78.3,0,0,1-6.69,9.24,2.59,2.59,0,0,1-2.35-.19c-.52-1.11-1.16-2.81-.66-3.63C129.11,304.52,131.48,301.55,134.31,297.64Z"/><path class="cls-2" d="M140.3,368c-.36-4.54,1.94-9.43,4.95-10.81a2.74,2.74,0,0,1,2.47.16,4.08,4.08,0,0,1,1.11,2.92C148.51,362.62,144,366.61,140.3,368Z"/><path class="cls-2" d="M123.13,297.56c.68,2.81,1.56,4.3,1.14,5.13a22,22,0,0,1-4.34,6,4.78,4.78,0,0,1-4.15.81c-2.22-.86-2-3.16-.76-4.58C117.09,302.57,119.62,300.67,123.13,297.56Z"/><path class="cls-2" d="M112.8,293.47c-3.57,8.86-6.6,10.82-10.64,7.25C106.59,293.84,108.22,292.65,112.8,293.47Z"/><path class="cls-2" d="M111.35,368.94c-4.67-3.32-4.67-3.32,2.29-11,2.5.57,4.19,1.75,2.51,4.58A70.35,70.35,0,0,1,111.35,368.94Z"/><path class="cls-2" d="M109.73,270c-2.73-1.16-3.78-2.36-2.63-4.61a9.64,9.64,0,0,1,10.45-5.4Z"/><path class="cls-2" d="M142,272a12.39,12.39,0,0,1,2.15,1.2,13,13,0,0,1,1.47,2.07l-5.79,6.49C135.62,277.85,135.62,277.85,142,272Z"/><path class="cls-2" d="M143.8,316.73c.62.56,1.88,1.21,2.39,2.24.79,1.59-2.63,6.37-4.74,6.43a3.77,3.77,0,0,1-2.83-2C137.75,321.17,140.68,317.25,143.8,316.73Z"/><path class="cls-2" d="M124.24,270.93c-2.85,3.09-4.39,5.13-6.33,6.68a3.69,3.69,0,0,1-3.57.12,3.54,3.54,0,0,1-.27-3.51,20.73,20.73,0,0,1,5.12-4.44C119.8,269.4,121.16,270.18,124.24,270.93Z"/><path class="cls-2" d="M129.22,239.7c.66,2.62-3.1,8.33-5.12,8.46-1.84.13-3.6-.91-2.76-2.71a23.49,23.49,0,0,1,4.89-6.33C126.67,238.69,128.38,239.52,129.22,239.7Z"/><path class="cls-2" d="M130.6,384.81c-3.77-3.36-4.21-5.1-1.87-7.5.75-.76,2.64-1.3,3.44-.88a3.74,3.74,0,0,1,1.55,3.29C133.14,381.52,131.73,383.07,130.6,384.81Z"/><path class="cls-2" d="M136.19,249.44c1.39,5.23-3.88,6.08-3.86,10.09C126.93,255,127.93,252.87,136.19,249.44Z"/><path class="cls-2" d="M123.31,225.67c1.5,4.85-.24,9.14-3.1,9.87a2.83,2.83,0,0,1-2.38-.63,2.52,2.52,0,0,1-.31-2.38C119.07,230.42,120.87,228.51,123.31,225.67Z"/><path class="cls-2" d="M94.66,349a52.81,52.81,0,0,1-5.92,4.92c-.41.25-2.44-1-2.73-1.9-.66-2,1.95-5.13,4.25-5.11C91.35,346.93,92.44,347.91,94.66,349Z"/><path class="cls-2" d="M353.07,111.93c-1-2.58-1.92-4.67-2.63-6.84a26.4,26.4,0,0,0-9.69-13.25c-12.66-9.29-27-13.92-42.61-14.87-10.84-.66-21.69-1.2-32.55-1.42-7.12-.14-14.39-.35-21.36.85-5.56,1-10.85,3.81-16.1,6.18A19.26,19.26,0,0,0,222,87.07c-4.06,4.43-7.89,9.09-11.64,13.78-3.91,4.89-8.6,8.19-15,8.77-3.48.31-13.62,7.77-14.47,10.8-.58,2.08-.3,4.41-.41,7-4.12-.79-4.87-3.74-4.68-6.7A12.81,12.81,0,0,1,184.08,109c10.67-4.45,20.37-10.39,28.41-18.81a18.29,18.29,0,0,0,2.6-4.05c3-5.6,7.74-8.8,13.69-10.88,10.14-3.54,20.72-4.44,31.2-5.94a29.62,29.62,0,0,1,5.48.18c3.93.18,7.92.93,11.76.47,12.83-1.57,25.49-.14,37.75,3,10.21,2.64,20.23,6.4,29,12.89,6.92,5.12,10.48,12.24,13.42,19.82C358.9,109.51,358.21,110.22,353.07,111.93Z"/><path class="cls-2" d="M235.58,352.22a16.77,16.77,0,0,0,1.9-2.24,6.07,6.07,0,0,1,2.66-2.31,2.94,2.94,0,0,0,1.66-2.14,3.56,3.56,0,0,1,3.43-2.92c.71,0,1.47-1.2,2-2a4.12,4.12,0,0,1,4.63-1.72c2.78,1.11,5.21,2.75,6.11,5.76a14.82,14.82,0,0,1,.84,6c-.5,4.68-2.23,9-3.4,13.48-1.75,6.65-2.84,13.37-1.89,20.25a17.28,17.28,0,0,0,1.57,4.45,2,2,0,0,0,1.36,1,5.08,5.08,0,0,0,4.18-.82,58.19,58.19,0,0,0,4.87-4.63,22.08,22.08,0,0,0,3-4c1-1.71,1.68-3.58,2.54-5.35a8.49,8.49,0,0,0,.87-5c-.14-1-.19-2-.35-2.94-.41-2.43.29-4.75.67-7.1.28-1.75.9-3.45,1.27-5.19.32-1.49.5-3,.78-4.74a5.06,5.06,0,0,1,3.43-1,54.64,54.64,0,0,0,6.95-.06,3.59,3.59,0,0,0,1.69-.51,34.73,34.73,0,0,0,6.43-4.53,24.73,24.73,0,0,1,4.47-3c1.37-.85,2.85-1.54,4.16-2.48a7.07,7.07,0,0,1,9.57,1.3,27.78,27.78,0,0,1,1.82,3.23c.16.28.36.54.7,1,1-1,2-1.83,2.79-2.82,2.17-2.67,4.21-5.44,6.4-8.09a3.9,3.9,0,0,1,4.4-1.57,8.93,8.93,0,0,1,2.68,1.6,33.85,33.85,0,0,1,2.61,2.64,13.62,13.62,0,0,0,2-3.31,10.84,10.84,0,0,1,2.06-3.65c1.35-1.59,2.58-3.28,4-4.83s2.92-1.79,4.74-2.27c2.36-.61,4.12.16,6.06,1a12.71,12.71,0,0,1,6.32,5.45,18.67,18.67,0,0,1,2.37,10.29,15.25,15.25,0,0,1-.84,4.46c-.41,1.08-.29,2.37-.72,3.45-.9,2.27-2,4.47-3,6.69-1.13,2.44-2.4,4.82-3.4,7.3a58.11,58.11,0,0,0-1.66,5.74,6.69,6.69,0,0,0,1.89.31c2.33-.39,4.66-.79,6.6-2.37,1.74-1.41,3.49-2.8,5.21-4.23s3.41-3.4,5.51-4.7c1-.63,1.55-2,2.73-2.73.27-.16.25-1.14.09-1.66-1.26-4.18-.92-8.37-.11-12.56.28-1.43.69-2.84,1-4.27a25.52,25.52,0,0,1,3.21-7.67,23.11,23.11,0,0,1,3.12-3.57c.31-.34.72-.59,1.06-.91a3.32,3.32,0,0,1,4.45-.61c.67.39,1.37.73,2,1.05,1.18,1.57,2.31,3.17,3.54,4.69,1.5,1.86,3,3.77,3.39,6.17a7.18,7.18,0,0,1-.16,3.28,10.55,10.55,0,0,1-3.43,5.46,1.4,1.4,0,0,0-.52.59c-.89,3.07-3.59,4.63-5.63,6.72-1.15,1.17-2.52,2.13-3.65,3.32-.74.79-1.46,1.77-.82,3,1.36,2.65,3,5.12,5.6,6.67a8.69,8.69,0,0,0,4.94,1.2,17.62,17.62,0,0,0,8.74-2.81,27.71,27.71,0,0,1,4.76-2.38,2.79,2.79,0,0,1,2.3.17,6.85,6.85,0,0,1,2.37,2.74,3.09,3.09,0,0,1-2.69,4.34c-3.24.14-5.9,1.87-8.88,2.68a34.7,34.7,0,0,1-5,.94,14.36,14.36,0,0,1-5.3-.05,15.46,15.46,0,0,1-8-5.19c-1.44-1.64-2.66-3.46-4.13-5.39a29.82,29.82,0,0,0-2.61,2.07,15.51,15.51,0,0,1-3.66,3c-.59.31-1,1.07-1.4,1.63a21.25,21.25,0,0,1-3.49,3.17,20.23,20.23,0,0,1-5.34,2.92,9.67,9.67,0,0,1-2.26.7c-2.94.39-5.88.88-8.84,1a3.84,3.84,0,0,1-3.81-5.28c1.22-3.55,2.42-7.12,3.85-10.59s3-6.62,4.58-9.92a25.32,25.32,0,0,0,2.85-10.14c.1-3.92-1.6-8.15-6.57-9.44a3.49,3.49,0,0,0-3.67.88,20.68,20.68,0,0,1-2.72,2.87c-1.87,1.38-2.54,3.46-3.42,5.38a84.49,84.49,0,0,0-3.37,8.69,10.34,10.34,0,0,0-.78,4.4,6,6,0,0,1-.47,2.1c-.65,2.3-1.38,4.57-2,6.88-.87,3.46-1.66,6.95-2.43,10.43a6.89,6.89,0,0,0,0,1.58c0,1.68-.8,2.44-2.44,2.22-.39-.05-.79-.07-1.18-.12a2.08,2.08,0,0,1-1.81-1.52c-1-2.33-.36-4.59.08-6.81.54-2.73,1.35-5.4,2.1-8.08s1.84-5.39,2.34-8.16a19.4,19.4,0,0,0-.26-8.21c-.52-2-1.62-2.23-3.07-.71a47.28,47.28,0,0,0-6.77,8.83c-1.09,1.88-2.41,3.63-3.49,5.52a14.08,14.08,0,0,0-1.41,3.49c-.93,3.65-1.73,7.34-2.6,11a37.34,37.34,0,0,1-1.92,5.73,2.78,2.78,0,0,1-4.46,1c-.55-.47-1.06-1-1.5-1.42,0-1.35,0-2.6-.1-3.83-.32-2.93,1.06-5.41,2-8,.88-2.34,2.42-4.45,2.77-7s.47-5,.64-7.5a3.7,3.7,0,0,0-.22-1.57c-.69-1.74-1.15-2.38-3.43-1.89s-3.66,1.86-5.39,2.89c-2.71,1.61-5.2,3.59-7.78,5.42-.32.23-.59.51-1,.87a10.12,10.12,0,0,1,2.79,6c.54,3.17,1.37,6.33,1,9.57a29.71,29.71,0,0,1-2.79,10.7c-.95,1.82-1.73,3.81-3.71,4.79a19,19,0,0,1-3.86,1.42c-3.69.89-6.25-.77-8.12-3.84-.28-.45-.58-.89-.89-1.32-.06-.09-.23-.1-.48-.21-1.18,2-2.44,4-3.55,6.11a23.47,23.47,0,0,1-5.14,6.29,12.27,12.27,0,0,1-9.09,3.35,7.26,7.26,0,0,1-5.31-4c-.42-1.09-1.07-2.08-1.49-3.17-.58-1.48-1-3-1.54-4.51a2.4,2.4,0,0,1-.2-.77c.09-3.44.2-6.88.31-10.32,0-.06.06-.13.05-.19-.26-3.91,1.13-7.52,2-11.23.45-2,1.11-3.94,1.68-5.91a31.74,31.74,0,0,0,1.51-8.14c0-1.26-.3-2.69-1.57-3.21-1.06-.43-2,.5-2.75,1.26-2.77,2.85-5.49,5.75-8.22,8.63a2.41,2.41,0,0,0-.34.49c-2.43,4.38-5.88,8.19-7.51,13-.69,2.06-1.42,4.11-1.94,6.21a106.84,106.84,0,0,0-3,14.39c-.24,2.36-.9,4.67-1.34,7a14,14,0,0,0-.15,2c-.07,1.78-.35,2.08-2.07,2.18-2.21.13-2.35-.08-3-2.22a18.43,18.43,0,0,1-.15-8.83c.3-1.63.52-3.28.89-4.89.24-1.05.11-2.3,1.28-3,.17-.1.22-.46.28-.72.66-2.81,1.34-5.62,2-8.44q1.22-5.53,2.38-11.07c.66-3.16,1.33-6.32,1.92-9.5a28.41,28.41,0,0,0,.21-3.44c-1.33-.07-2,.9-2.69,1.55-1.71,1.62-3.82,2.57-5.77,3.78-1.18.73-2.41,1.4-3.66,2a88.16,88.16,0,0,1-8.77,4.13c-2.85,1-5.86,1.44-8.88.1-1.78-.79-3.36-2.19-3-4.43a12.61,12.61,0,0,0,.07-1.43c1.77.14,3.59-.52,5.32.52a3.76,3.76,0,0,0,3.08.22A40.44,40.44,0,0,0,216,349.24a9.64,9.64,0,0,1,3.94-1.62,4.38,4.38,0,0,0,3-2.17c.75-1.13,1.67-2.07,3.24-1.65a3.86,3.86,0,0,1,2.9-3,3.07,3.07,0,0,0,2.14-3c.32-3.42.3-6.86.55-10.28a81.51,81.51,0,0,1,1.5-12.66c.44-1.92,1.2-3.76,1.81-5.64.36-1.11.71-2.22,1.06-3.33,1.19-3.71,2.85-7.12,6.07-9.54,1.67-1.26,3.66-.77,5.56.92a6.79,6.79,0,0,1,2.3,4.49c.25,2.35.84,4.66,1.18,7s-.38,4.6-.76,6.89c-.66,4-2.4,7.52-4.19,11.08a87.42,87.42,0,0,1-6.16,9.92c-1,1.52-2.28,2.91-3.44,4.35a4.27,4.27,0,0,0-.86,2.57c-.14,2.29-.49,4.57-.72,6.86a13.61,13.61,0,0,0,0,1.73Zm54.08,10.67a14.18,14.18,0,0,0-2.2-6.06c-.83-1.34-1.95-1.49-2.79-.18a30.53,30.53,0,0,0-1.69,3.57q-.44.94-.92,1.87a14.8,14.8,0,0,0-1.56,3.12,7,7,0,0,1-1.12,2.45,8.8,8.8,0,0,0-1.35,3c-.68,3.09.72,5.7,2.21,8.23a1.89,1.89,0,0,0,2.57.77,6.71,6.71,0,0,0,3.11-2.67,38.57,38.57,0,0,0,3.18-7.68A13.71,13.71,0,0,0,289.66,362.89Zm-45.17-61.26a17.5,17.5,0,0,0-1.92,2.54,48.73,48.73,0,0,0-2.18,5.09c-1.26,3.4-2.57,6.79-2.77,10.5-.12,2.37-.5,4.72-.7,7.08a35.89,35.89,0,0,0-.08,3.77,8.07,8.07,0,0,0,.43,1.64c.51-.6,1.06-1,1-1.29,0-1.1.68-1.6,1.31-2.29.84-.91,1.94-1.94,2.08-3a8.32,8.32,0,0,1,1.55-3.55c.58-.91.66-2.15,1.81-2.7.13-.06.19-.34.23-.53.31-1.48.61-3,.91-4.43a24.9,24.9,0,0,0,.09-8.3C246.11,304.68,246.15,303,244.49,301.63Zm132.85,45.53a13.74,13.74,0,0,0,1.8-1.13,59,59,0,0,0,9.4-10.43c.42-.62,1-1.59.78-2.11-.83-2.08-1.91-4.1-4-5.22a2,2,0,0,0-1.63-.08,5,5,0,0,0-1.58,1.68,31.13,31.13,0,0,0-4.64,14.82C377.42,345.39,377.38,346.08,377.33,347.16Z"/><path class="cls-2" d="M289.66,362.89a13.71,13.71,0,0,1-.55,6.4,38.57,38.57,0,0,1-3.18,7.68,6.71,6.71,0,0,1-3.11,2.67,1.89,1.89,0,0,1-2.57-.77c-1.49-2.53-2.89-5.14-2.21-8.23a8.8,8.8,0,0,1,1.35-3,7,7,0,0,0,1.12-2.45,14.8,14.8,0,0,1,1.56-3.12q.48-.92.92-1.87a30.53,30.53,0,0,1,1.69-3.57c.84-1.31,2-1.16,2.79.18A14.18,14.18,0,0,1,289.66,362.89Z"/><path class="cls-2" d="M244.49,301.63c1.66,1.39,1.63,3.06,1.81,4.49a24.9,24.9,0,0,1-.09,8.3c-.3,1.48-.6,3-.91,4.43,0,.19-.1.47-.23.53-1.15.55-1.23,1.79-1.81,2.7a8.32,8.32,0,0,0-1.55,3.55c-.14,1.09-1.24,2.12-2.08,3-.63.69-1.36,1.18-1.31,2.29,0,.33-.54.69-1,1.29a8.07,8.07,0,0,1-.43-1.64,35.89,35.89,0,0,1,.08-3.77c.2-2.36.58-4.71.7-7.08.19-3.71,1.51-7.09,2.77-10.5a48.73,48.73,0,0,1,2.18-5.09A17.5,17.5,0,0,1,244.49,301.63Z"/><path class="cls-2" d="M377.33,347.16c.05-1.08.09-1.77.11-2.46a31.13,31.13,0,0,1,4.64-14.82,5,5,0,0,1,1.58-1.68,2,2,0,0,1,1.63.08c2.11,1.12,3.18,3.14,4,5.22.21.52-.36,1.49-.78,2.11a59,59,0,0,1-9.4,10.43A13.74,13.74,0,0,1,377.33,347.16Z"/></g></svg>