<svg xmlns="http://www.w3.org/2000/svg" viewBox="0 0 500 500"><defs><style>.cls-1{fill:#ffeb4d;}.cls-2{fill:#ff4d5c;}</style></defs><title>socialIcon</title><g id="instagram"><path class="cls-1" d="M391,177.27A70.27,70.27,0,0,0,320.73,107H145.27A70.27,70.27,0,0,0,75,177.27V352.73A70.27,70.27,0,0,0,145.27,423H320.73A70.27,70.27,0,0,0,391,352.73ZM356,318.32A69.68,69.68,0,0,1,286.32,388H180.68A69.68,69.68,0,0,1,111,318.32V212.68A69.68,69.68,0,0,1,180.68,143H286.32A69.68,69.68,0,0,1,356,212.68Z"/><circle class="cls-1" cx="232.83" cy="265.33" r="36.5"/><path class="cls-1" d="M329,221.93A52.93,52.93,0,0,0,276.07,169H189.93A52.93,52.93,0,0,0,137,221.93v86.14A52.93,52.93,0,0,0,189.93,361h86.14A52.93,52.93,0,0,0,329,308.07Zm-96.17,110.4a67,67,0,1,1,67-67A67,67,0,0,1,232.83,332.33Zm63.5-117a13.5,13.5,0,1,1,13.5-13.5A13.5,13.5,0,0,1,296.33,215.33Z"/><path class="cls-2" d="M408,162.27A70.27,70.27,0,0,0,337.73,92H162.27A70.27,70.27,0,0,0,92,162.27V337.73A70.27,70.27,0,0,0,162.27,408H337.73A70.27,70.27,0,0,0,408,337.73ZM373,303.32A69.68,69.68,0,0,1,303.32,373H197.68A69.68,69.68,0,0,1,128,303.32V197.68A69.68,69.68,0,0,1,197.68,128H303.32A69.68,69.68,0,0,1,373,197.68Z"/><circle class="cls-2" cx="250.33" cy="250.33" r="36.5"/><path class="cls-2" d="M346,206.93A52.93,52.93,0,0,0,293.07,154H206.93A52.93,52.93,0,0,0,154,206.93v86.14A52.93,52.93,0,0,0,206.93,346h86.14A52.93,52.93,0,0,0,346,293.07ZM250.33,317.33a67,67,0,1,1,67-67A67,67,0,0,1,250.33,317.33Zm63.5-117a13.5,13.5,0,1,1,13.5-13.5A13.5,13.5,0,0,1,313.83,200.33Z"/></g></svg>