<svg xmlns="http://www.w3.org/2000/svg" viewBox="0 0 500 500"><defs><style>.cls-1{fill:#ffeb4d;}.cls-2{fill:#ff4d5c;}</style></defs><title>socialIcon</title><g id="pinterest"><path class="cls-1" d="M161.52,259.34a11.11,11.11,0,0,1,3.34,9.64c-1.3,8.86-4.28,23.22-9.86,21.36C147,287.67,90.33,257,127,171s212.67-84.67,224.67,19.33S288.33,367.67,215,313.67c0,0-14,79.7-40.8,100.52a4.47,4.47,0,0,1-7.16-2.68c-2-10.67-5.11-33.49-.71-54.51,5-23.91,14.64-74.24,20.41-94.55a40.85,40.85,0,0,0,1-17.64c-3.32-20.76-6.32-68.19,35.88-67.15,54,1.33-18.67,92.67,12,117.33s60-22,60-22,54.67-116.67-44-132.67C157.61,125.08,135.65,234.63,161.52,259.34Z"/><path class="cls-2" d="M184.19,242.67a11.11,11.11,0,0,1,3.34,9.64c-1.3,8.86-4.28,23.22-9.86,21.36-8-2.67-64.67-33.33-28-119.33s212.67-84.67,224.67,19.33S311,351,237.67,297c0,0-14,79.7-40.8,100.52a4.47,4.47,0,0,1-7.16-2.68c-2-10.67-5.11-33.49-.71-54.51,5-23.91,14.64-74.24,20.41-94.55a40.85,40.85,0,0,0,1-17.64c-3.32-20.76-6.32-68.19,35.88-67.15,54,1.33-18.67,92.67,12,117.33s60-22,60-22,54.67-116.67-44-132.67C180.27,108.41,158.31,218,184.19,242.67Z"/></g></svg>