<?xml version="1.0" encoding="utf-8"?>
<!-- Generator: Adobe Illustrator 20.1.0, SVG Export Plug-In . SVG Version: 6.00 Build 0)  -->
<svg version="1.1" xmlns="http://www.w3.org/2000/svg" xmlns:xlink="http://www.w3.org/1999/xlink" x="0px" y="0px"
	 viewBox="0 0 500 600" style="enable-background:new 0 0 500 600;" xml:space="preserve">
<style type="text/css">
	.st0{fill:#FFBEC9;}
	.st1{fill:#FF4D5C;}
	.st2{fill:#91D4FF;}
	.st3{fill:#4D3538;}
	.st4{fill:#110631;}
	.st5{fill:#FFA731;}
	.st6{fill:#FFEB4D;}
	.st7{fill:#1C419F;}
	.st8{fill:#FECC3F;}
	.st9{fill:#FF6F5A;}
	.st10{fill:#4666A4;}
	.st11{fill:#2B838D;}
	.st12{fill:#79AAD4;}
	.st13{fill:#CC5A43;}
	.st14{fill:#FFFFFF;stroke:#000000;stroke-miterlimit:10;}
	.st15{fill:#F8B7A2;}
	.st16{fill:#F398AE;}
	.st17{fill:#4D396D;}
	.st18{fill:#00D3AE;}
	.st19{fill:#052A6F;}
	.st20{fill:#FFBBA9;}
	.st21{fill:none;stroke:#FFEB4D;stroke-width:12;stroke-linecap:round;stroke-linejoin:round;stroke-miterlimit:10;}
	.st22{fill:none;stroke:#FFEB4D;stroke-width:12;stroke-miterlimit:10;}
	.st23{fill:#FFEB4D;stroke:#FFEB4D;stroke-width:12;stroke-miterlimit:10;}
	.st24{fill:none;stroke:#110631;stroke-width:6;stroke-linecap:round;stroke-linejoin:round;stroke-miterlimit:10;}
	.st25{fill:none;stroke:#110631;stroke-width:6;stroke-miterlimit:10;}
	.st26{fill:#57CCFF;}
	.st27{fill:#3678FF;}
	.st28{fill:none;stroke:#4D3538;stroke-width:6;stroke-linecap:round;stroke-linejoin:round;stroke-miterlimit:10;}
	.st29{fill:none;stroke:#1C419F;stroke-width:6.8833;stroke-linecap:round;stroke-linejoin:round;stroke-miterlimit:10;}
	.st30{fill:none;stroke:#1C419F;stroke-width:6;stroke-linecap:round;stroke-linejoin:round;stroke-miterlimit:10;}
	.st31{fill:none;stroke:#1C419F;stroke-width:4.9788;stroke-linecap:round;stroke-linejoin:round;stroke-miterlimit:10;}
	.st32{fill:#FFFFFF;stroke:#4D3538;stroke-width:6;stroke-linecap:round;stroke-linejoin:round;stroke-miterlimit:10;}
	.st33{fill:url(#);}
	.st34{fill:#FFFFFF;}
	.st35{fill:none;}
	.st36{fill:#FFEB4D;stroke:#FFEB4D;stroke-width:6;stroke-miterlimit:10;}
	.st37{fill:none;stroke:#FFEB4D;stroke-width:6;stroke-linecap:round;stroke-linejoin:round;stroke-miterlimit:10;}
	.st38{fill:none;stroke:#FF4D5C;stroke-width:8;stroke-linecap:round;stroke-linejoin:round;stroke-miterlimit:10;}
	.st39{fill:#FFFFFF;stroke:#1C419F;stroke-width:6;stroke-linecap:round;stroke-linejoin:round;stroke-miterlimit:10;}
	.st40{fill:none;stroke:#FF4D5C;stroke-width:7.3975;stroke-linecap:round;stroke-linejoin:round;stroke-miterlimit:10;}
	.st41{fill:#0000FF;}
	.st42{fill:#FFFFFF;stroke:#110631;stroke-width:6;stroke-linecap:round;stroke-linejoin:round;stroke-miterlimit:10;}
	.st43{fill:#FFFFFF;stroke:#110631;stroke-width:6.2401;stroke-linecap:round;stroke-linejoin:round;stroke-miterlimit:10;}
	.st44{fill:none;stroke:#110631;stroke-width:6.2401;stroke-linecap:round;stroke-linejoin:round;stroke-miterlimit:10;}
	.st45{fill:none;stroke:#FF4D5C;stroke-width:6.2401;stroke-linecap:round;stroke-linejoin:round;stroke-miterlimit:10;}
	.st46{opacity:0.8;fill:#FF4D5C;}
	.st47{fill:none;stroke:#FF4D5C;stroke-width:6;stroke-linecap:round;stroke-linejoin:round;stroke-miterlimit:10;}
	.st48{fill:none;stroke:#110631;stroke-width:5.8511;stroke-linecap:round;stroke-linejoin:round;stroke-miterlimit:10;}
	.st49{fill:none;stroke:#FF4D5C;stroke-width:8.0045;stroke-linecap:round;stroke-linejoin:round;stroke-miterlimit:10;}
	.st50{fill:none;stroke:#1C419F;stroke-width:6;stroke-miterlimit:10;}
	.st51{fill:#FF4D5C;stroke:#FF4D5C;stroke-width:5;stroke-miterlimit:10;}
	.st52{fill:#FF4D5C;stroke:#FF4D5C;stroke-width:3.4427;stroke-miterlimit:10;}
	.st53{fill:none;stroke:#FF4D5C;stroke-width:4.5903;stroke-miterlimit:10;}
	.st54{fill:none;stroke:#FF4D5C;stroke-width:4.5903;stroke-linecap:round;stroke-linejoin:round;stroke-miterlimit:10;}
	.st55{fill:#FFFFFF;stroke:#FF4D5C;stroke-width:4.5903;stroke-linecap:round;stroke-linejoin:round;stroke-miterlimit:10;}
	.st56{fill:none;stroke:#FF4D5C;stroke-width:5;stroke-linecap:round;stroke-linejoin:round;stroke-miterlimit:10;}
	.st57{fill:#FFFFFF;stroke:#FF4D5C;stroke-width:3.4427;stroke-miterlimit:10;}
	.st58{fill:#FFFFFF;stroke:#FF4D5C;stroke-width:3.6728;stroke-miterlimit:10;}
	.st59{display:none;fill:#57CCFF;}
	.st60{fill:#FFEB4D;stroke:#FFEB4D;stroke-width:12;stroke-linecap:round;stroke-linejoin:round;stroke-miterlimit:10;}
	.st61{fill:none;stroke:#3678FF;stroke-width:4.0664;stroke-miterlimit:10;}
	.st62{fill:none;stroke:#3678FF;stroke-width:4.0664;stroke-linecap:round;stroke-linejoin:round;stroke-miterlimit:10;}
	.st63{fill:#FFFFFF;stroke:#3678FF;stroke-width:4.0664;stroke-linecap:round;stroke-linejoin:round;stroke-miterlimit:10;}
	.st64{fill:none;stroke:#3678FF;stroke-width:4;stroke-linecap:round;stroke-linejoin:round;stroke-miterlimit:10;}
	.st65{fill:#57CCFF;stroke:#1C419F;stroke-width:7;stroke-linecap:round;stroke-linejoin:round;stroke-miterlimit:10;}
	.st66{fill:#FFFFFF;stroke:#1C419F;stroke-width:7.0847;stroke-miterlimit:10;}
	.st67{fill:#FFFFFF;stroke:#1C419F;stroke-width:7.0847;stroke-linecap:round;stroke-linejoin:round;stroke-miterlimit:10;}
	.st68{fill:none;stroke:#1C419F;stroke-width:7.0847;stroke-linecap:round;stroke-linejoin:round;stroke-miterlimit:10;}
	.st69{fill:none;stroke:#1C419F;stroke-width:7;stroke-linecap:round;stroke-linejoin:round;stroke-miterlimit:10;}
	.st70{fill:none;stroke:#3678FF;stroke-width:4.3923;stroke-linecap:round;stroke-linejoin:round;stroke-miterlimit:10;}
	.st71{display:none;}
	.st72{display:inline;}
	.st73{fill:none;stroke:#000000;stroke-width:2.6484;stroke-miterlimit:10;}
	.st74{fill:none;stroke:#000000;stroke-miterlimit:10;}
	.st75{fill:none;stroke:#000000;stroke-width:0.9715;stroke-miterlimit:10;}
	.st76{fill:#FFEB4D;stroke:#FFEB4D;stroke-width:3.5721;stroke-miterlimit:10;}
	.st77{fill:none;stroke:#FFEB4D;stroke-width:3.5721;stroke-linecap:round;stroke-linejoin:round;stroke-miterlimit:10;}
	.st78{fill:none;stroke:#4D3538;stroke-width:1.786;stroke-linecap:round;stroke-linejoin:round;stroke-miterlimit:10;}
	.st79{fill:none;stroke:#4D3538;stroke-width:2.3571;stroke-linecap:round;stroke-linejoin:round;stroke-miterlimit:10;}
	.st80{fill:#FFEB4D;stroke:#FFEB4D;stroke-width:4;stroke-miterlimit:10;}
	.st81{fill:none;stroke:#FFEB4D;stroke-width:3.78;stroke-linecap:round;stroke-linejoin:round;stroke-miterlimit:10;}
	.st82{fill:#FFEB4D;stroke:#FFEB4D;stroke-width:3.78;stroke-miterlimit:10;}
	.st83{fill:none;stroke:#4D3538;stroke-width:1.89;stroke-linecap:round;stroke-linejoin:round;stroke-miterlimit:10;}
	.st84{fill:none;stroke:#FFEB4D;stroke-width:4.32;stroke-linecap:round;stroke-linejoin:round;stroke-miterlimit:10;}
	.st85{fill:none;stroke:#FFEB4D;stroke-width:4.32;stroke-miterlimit:10;}
	.st86{fill:none;stroke:#110631;stroke-width:2.16;stroke-linecap:round;stroke-linejoin:round;stroke-miterlimit:10;}
	.st87{fill:none;stroke:#110631;stroke-width:2.16;stroke-miterlimit:10;}
	.st88{fill:none;stroke:#110631;stroke-width:2;stroke-linecap:round;stroke-linejoin:round;stroke-miterlimit:10;}
	.st89{fill:none;stroke:#FFEB4D;stroke-width:3.9501;stroke-linecap:round;stroke-linejoin:round;stroke-miterlimit:10;}
	.st90{fill:none;stroke:#FFEB4D;stroke-width:3.9501;stroke-miterlimit:10;}
	.st91{fill:#FFEB4D;stroke:#FFEB4D;stroke-width:3.9501;stroke-miterlimit:10;}
	.st92{fill:none;stroke:#110631;stroke-width:1.975;stroke-linecap:round;stroke-linejoin:round;stroke-miterlimit:10;}
	.st93{fill:none;stroke:#110631;stroke-width:1.975;stroke-miterlimit:10;}
	.st94{fill:none;stroke:#FFEB4D;stroke-width:4;stroke-linecap:round;stroke-linejoin:round;stroke-miterlimit:10;}
	.st95{fill:none;stroke:#FFEB4D;stroke-width:3.24;stroke-linecap:round;stroke-linejoin:round;stroke-miterlimit:10;}
	.st96{fill:#FFEB4D;stroke:#FFEB4D;stroke-width:3.24;stroke-miterlimit:10;}
	.st97{fill:none;stroke:#110631;stroke-width:1.62;stroke-linecap:round;stroke-linejoin:round;stroke-miterlimit:10;}
	.st98{fill:none;stroke:#FF4D5C;stroke-width:2.16;stroke-linecap:round;stroke-linejoin:round;stroke-miterlimit:10;}
	.st99{fill:#FFEB4D;stroke:#FFEB4D;stroke-width:3.402;stroke-miterlimit:10;}
	.st100{fill:none;stroke:#FFEB4D;stroke-width:3.402;stroke-linecap:round;stroke-linejoin:round;stroke-miterlimit:10;}
	.st101{fill:none;stroke:#110631;stroke-width:1.701;stroke-linecap:round;stroke-linejoin:round;stroke-miterlimit:10;}
	.st102{fill:none;stroke:#110631;stroke-width:1.6588;stroke-linecap:round;stroke-linejoin:round;stroke-miterlimit:10;}
	.st103{fill:none;stroke:#FF4D5C;stroke-width:2.2693;stroke-linecap:round;stroke-linejoin:round;stroke-miterlimit:10;}
	.st104{fill:#FFC580;}
	.st105{fill:#FFE8CC;}
	.st106{fill:#FFC4AF;}
	.st107{fill:#FFCCC0;}
	.st108{fill:#FFD7CC;}
	.st109{fill:#B3E8FF;}
	.st110{fill:#CCEFFF;}
</style>
<g id="reference">
</g>
<g id="QT">
</g>
<g id="Butch">
</g>
<g id="Vincent">
</g>
<g id="Jules_1_">
</g>
<g id="Fabienne">
</g>
<g id="Mia">
</g>
<g id="me_1_">
	<rect x="-81" y="-33" class="st59" width="667" height="667"/>
	<g>
		<g>
			<g>
				<g>
					<path class="st21" d="M366.1,324.6c-20.8,82.4-93.4,162.9-123.8,162.9c-36.7,0-106.8-79.3-123-160.2
						c-13.7-68.4-17.5-213.4,121.9-213.7C384,113.1,384.1,253.5,366.1,324.6z"/>
					<path class="st21" d="M188,456v44.4c0,6.2-4.9,11.6-11.1,11.6H84.7c-6.9,0-13.5,0.6-19.8,2.1c-8.1,1.9-11.4,11.8-6,18.1
						c24.2,28.3,97.1,48.8,183.4,48.8c86.6,0,159.7-20.7,183.7-49.2c5.5-6.5,1.9-16.3-6.4-18.1c-5.9-1.3-12.1-1.8-18.5-1.8h-93.2
						c-6.2,0-10.9-5.3-10.9-11.6V450"/>
				</g>
				<path class="st22" d="M113.5,281c-10.9,0-21.2,1.8-21.2,16.4c0,14.5,6.4,33.6,15.6,41.6c0.8,0.7,1.2,1.7,1.1,2.7
					c-0.1,1.6,0,3.3,0.5,5c1.5,5.3,6.1,9.3,11.5,10c2.2,0.3,4.3,0.1,6.2-0.5"/>
				<path class="st22" d="M373.3,281.1c10.1,0.3,19,2.8,19.1,16.3c0,14.5-6.4,33.6-15.6,41.6c-0.8,0.7-1.2,1.7-1.1,2.7
					c0.1,1.6,0,3.3-0.5,5c-1.5,5.3-6.1,9.3-11.5,10c-2.8,0.4-5.5,0-7.9-1.1"/>
			</g>
			<g>
				<g>
					<path class="st23" d="M109.7,256.6C98.9,116.4,169.5,93.9,242.2,93.9s147.4,22.9,135.4,162.2
						C374,296.7,113.1,296.5,109.7,256.6z"/>
					<path class="st23" d="M261.6,20.6c-6.9,0-13.4,1.2-19.4,3.4c-6-2.2-12.6-3.4-19.4-3.4c-29.3,0-53,21.8-53,48.7
						c0,26.9,23.7,48.7,53,48.7c6.9,0,13.4-1.2,19.4-3.4c6,2.2,12.6,3.4,19.4,3.4c29.3,0,53-21.8,53-48.7
						C314.6,42.4,290.9,20.6,261.6,20.6z"/>
				</g>
				<g>
					<g>
						<path class="st60" d="M346.8,192.4c42.8,52.6,9.9,78.3,7.4,71.6"/>
						<path class="st60" d="M319.5,200.7c34,41.1,12,73.9,6.7,69.5"/>
						<path class="st60" d="M290.7,206.1c30.8,37.9,7.9,72.2,8.3,65.6"/>
						<path class="st60" d="M258.7,208.7c30.8,37.9,7.9,72.2,8.3,65.6"/>
					</g>
					<g>
						<path class="st60" d="M137.8,192.4c-42.8,52.6-9.9,78.3-7.4,71.6"/>
						<path class="st60" d="M165.1,200.7c-34,41.1-12,73.9-6.7,69.5"/>
						<path class="st60" d="M193.9,206.1c-30.8,37.9-7.9,72.2-8.3,65.6"/>
						<path class="st60" d="M226,208.7c-30.8,37.9-7.9,72.2-8.3,65.6"/>
					</g>
				</g>
			</g>
		</g>
		<g>
			<path class="st30" d="M114.3,303.7c-1.2-2.4-1.9-5.1-1.9-7.9c0-5.9,2.8-11.1,7.2-14.3"/>
			<g>
				<g>
					<path class="st30" d="M378,313.9c-20.8,82.4-93.4,162.9-123.8,162.9c-36.7,0-106.8-79.3-123-160.2
						c-13.7-68.4-17.5-213.4,121.9-213.7C395.8,102.4,395.9,242.8,378,313.9z"/>
					<path class="st30" d="M200,445v44.7c0,6.2-5,11.3-11.3,11.3H96.5c-6.9,0-13.5,0.8-19.8,2.2c-8.1,1.9-11.4,11.9-6,18.2
						c24.2,28.3,97.1,48.9,183.4,48.9c86.6,0,159.7-20.7,183.7-49.1c5.5-6.5,1.9-16.4-6.4-18.2c-5.9-1.3-12.1-2-18.5-2h-93.2
						c-6.2,0-11.7-5-11.7-11.3V440"/>
				</g>
				<path class="st50" d="M125.3,270.3c-10.9,0-21.2,1.8-21.2,16.4c0,14.5,6.4,33.6,15.6,41.6c0.8,0.7,1.2,1.7,1.1,2.7
					c-0.1,1.6,0,3.3,0.5,5c1.5,5.3,6.1,9.3,11.5,10c2.2,0.3,4.3,0.1,6.2-0.5"/>
				<path class="st50" d="M385.2,270.3c10.1,0.3,19,2.8,19.1,16.3c0,14.5-6.4,33.6-15.6,41.6c-0.8,0.7-1.2,1.7-1.1,2.7
					c0.1,1.6,0,3.3-0.5,5c-1.5,5.3-6.1,9.3-11.5,10c-2.8,0.4-5.5,0-7.9-1.1"/>
			</g>
			<path class="st39" d="M394.1,303.7c1.2-2.4,1.9-5.1,1.9-7.9c0-5.9-2.8-11.1-7.2-14.3"/>
			<g>
				<g>
					<path class="st1" d="M121.5,245.9C110.7,105.6,181.4,83.2,254,83.2s147.4,22.9,135.4,162.2C385.9,285.9,125,285.8,121.5,245.9z
						"/>
					<path class="st1" d="M273.5,9.9c-6.9,0-13.4,1.2-19.4,3.4c-6-2.2-12.6-3.4-19.4-3.4c-29.3,0-53,21.8-53,48.7
						c0,26.9,23.7,48.7,53,48.7c6.9,0,13.4-1.2,19.4-3.4c6,2.2,12.6,3.4,19.4,3.4c29.3,0,53-21.8,53-48.7
						C326.5,31.7,302.8,9.9,273.5,9.9z"/>
				</g>
				<g>
					<g>
						<path class="st30" d="M358.6,181.6c42.8,52.6,9.9,78.3,7.4,71.6"/>
						<path class="st30" d="M331.4,189.9c34,41.1,12,73.9,6.7,69.5"/>
						<path class="st30" d="M302.5,195.4c30.8,37.9,7.9,72.2,8.3,65.6"/>
						<path class="st30" d="M270.5,198c30.8,37.9,7.9,72.2,8.3,65.6"/>
					</g>
					<g>
						<path class="st30" d="M149.7,181.6c-42.8,52.6-9.9,78.3-7.4,71.6"/>
						<path class="st30" d="M176.9,189.9c-34,41.1-12,73.9-6.7,69.5"/>
						<path class="st30" d="M205.8,195.4c-30.8,37.9-7.9,72.2-8.3,65.6"/>
						<path class="st30" d="M237.8,198c-30.8,37.9-7.9,72.2-8.3,65.6"/>
					</g>
				</g>
			</g>
			<path class="st46" d="M206,303.8c1.8-7.6-9-16.1-24.3-19c-15.3-2.9-45.4-17.4-47.2-9.7s25.3,34.5,40.6,37.4
				C190.3,315.3,204.2,311.4,206,303.8z"/>
			<path class="st46" d="M302.3,303.8c-1.8-7.6,9-16.1,24.3-19c15.3-2.9,45.4-17.4,47.2-9.7s-25.3,34.5-40.6,37.4
				C318,315.3,304.2,311.4,302.3,303.8z"/>
			<path class="st7" d="M140,277.1l93.1,23.1c0.9,0.2,1.4,1.1,1,1.9l-4.1,8.4c-1.6,3.2-5.9,4.6-9.4,3L140,277.1z"/>
			<path class="st7" d="M368.3,277.1l-93.1,23.1c-0.9,0.2-1.4,1.1-1,1.9l4.1,8.4c1.6,3.2,5.9,4.6,9.4,3L368.3,277.1z"/>
			<path class="st30" d="M242.7,310.7L234,382c-0.2,1.6,0.7,3.1,2.2,3.7l14.2,5.7c2.4,0.9,5,0.9,7.3-0.1l13.8-6.1"/>
			<line class="st30" x1="221" y1="419" x2="287" y2="419"/>
			<path class="st46" d="M278.8,429.2c0,5.9-10.9,10.8-24.4,10.8s-24.4-4.8-24.4-10.8c0-5.9,8.9-2.7,22.4-2.7
				S278.8,423.3,278.8,429.2z"/>
			<g>
				<g>
					<path class="st30" d="M148.8,309.1c6.3,18.1,34.1,32.6,62.1,16.4"/>
				</g>
				<g>
					<path class="st7" d="M150.4,322c0,0,0.2-0.5,0.6-1.1c0.2-0.3,0.4-0.7,0.7-1c0.3-0.4,0.6-0.7,0.9-1c0.3-0.3,0.5-0.9,0.8-1.1
						c0.3-0.2,0.8,0,1.2,0.3c0.2,0.1,0.4,0.3,0.6,0.5c0.1,0.1,0.2,0.2,0.3,0.2c0.1,0.1,0.2,0.2,0.3,0.3c0.2,0.2,0.3,0.3,0.4,0.4
						c0.1,0.1,0.2,0.2,0.2,0.2c0.1,0.2,0.2,0.4,0.2,0.6c0,0,0,0.1,0,0.2c0,0.2,0,0.3,0,0.6c0,0.1,0,0.2,0,0.4c0,0.1,0,0.2,0,0.4
						c0,0.3-0.1,0.5-0.1,0.8c-0.1,0.5-0.3,0.9-0.7,1.1c-0.4,0.1-0.9-0.2-1.4-0.2c-0.5,0-0.9-0.1-1.3-0.1c-0.4-0.1-0.9-0.2-1.2-0.2
						c-0.7-0.2-1.2-0.3-1.2-0.3C150.4,322.5,150.3,322.3,150.4,322C150.3,322.1,150.4,322.1,150.4,322z"/>
				</g>
				<g>
					<path class="st7" d="M153.9,326.4c0,0,0.2-0.5,0.6-1.2c0.2-0.3,0.4-0.8,0.7-1.2c0.3-0.4,0.6-0.8,0.9-1.2
						c0.3-0.4,0.5-1.1,0.8-1.3c0.4-0.2,0.9-0.1,1.4,0.1c0.2,0.1,0.5,0.2,0.7,0.3c0.1,0.1,0.2,0.1,0.3,0.2c0.1,0.1,0.2,0.2,0.3,0.2
						c0.2,0.2,0.3,0.2,0.5,0.4c0.1,0.1,0.2,0.2,0.2,0.2c0.2,0.1,0.3,0.3,0.3,0.5c0,0,0,0.1,0,0.2c0,0.2,0,0.3,0.1,0.6
						c0,0.1,0,0.3,0,0.4c0,0.1,0,0.3,0,0.4c0,0.3,0,0.5-0.1,0.8c-0.1,0.5-0.3,1-0.7,1.2c-0.4,0.2-1.1-0.1-1.5,0
						c-0.5,0-1,0.1-1.5,0.1c-0.5,0-1,0-1.4,0c-0.8,0-1.4-0.1-1.4-0.1C154,326.9,153.9,326.7,153.9,326.4
						C153.9,326.5,153.9,326.5,153.9,326.4z"/>
				</g>
				<g>
					<path class="st7" d="M159.5,331.3c0,0,0.1-0.6,0.4-1.4c0.1-0.4,0.3-0.9,0.5-1.4c0.2-0.5,0.4-1,0.7-1.5c0.3-0.5,0.3-1.2,0.6-1.5
						c0.3-0.3,0.9-0.4,1.4-0.3c0.3,0,0.6,0.1,0.8,0.2c0.1,0,0.3,0.1,0.4,0.1c0.1,0.1,0.3,0.1,0.4,0.1c0.2,0.1,0.4,0.1,0.5,0.2
						c0.1,0.1,0.2,0.1,0.2,0.1c0.2,0.1,0.3,0.3,0.4,0.4c0,0,0,0.1,0.1,0.2c0.1,0.2,0.1,0.3,0.2,0.6c0,0.1,0.1,0.2,0.1,0.4
						c0,0.1,0,0.3,0.1,0.4c0,0.3,0.1,0.6,0,0.8c0,0.5-0.1,1.1-0.5,1.4c-0.4,0.3-1.1,0.2-1.6,0.4c-0.5,0.2-1,0.4-1.5,0.5
						c-0.5,0.1-1,0.3-1.4,0.3c-0.8,0.2-1.5,0.2-1.5,0.2c-0.2,0-0.4-0.1-0.4-0.3C159.5,331.4,159.5,331.4,159.5,331.3z"/>
				</g>
				<g>
					<path class="st7" d="M166.3,334.5c0,0,0-0.6,0.1-1.5c0.1-0.4,0.1-0.9,0.2-1.4c0.1-0.5,0.2-1,0.4-1.5c0.2-0.5,0.1-1.2,0.3-1.6
						c0.3-0.4,0.8-0.5,1.3-0.6c0.3,0,0.6,0,0.8,0c0.1,0,0.3,0,0.4,0c0.1,0,0.3,0.1,0.4,0.1c0.2,0.1,0.4,0.1,0.6,0.1
						c0.2,0,0.2,0.1,0.2,0.1c0.2,0.1,0.4,0.2,0.5,0.4c0,0,0,0.1,0.1,0.2c0.1,0.1,0.2,0.3,0.3,0.5c0.1,0.1,0.1,0.2,0.2,0.4
						c0,0.1,0.1,0.2,0.1,0.4c0.1,0.3,0.2,0.5,0.2,0.8c0.1,0.5,0.1,1.1-0.2,1.4c-0.3,0.3-1,0.4-1.5,0.7c-0.5,0.3-0.9,0.5-1.4,0.8
						c-0.5,0.2-0.9,0.4-1.3,0.6c-0.8,0.3-1.4,0.5-1.4,0.5c-0.2,0.1-0.4-0.1-0.5-0.3C166.3,334.6,166.3,334.5,166.3,334.5z"/>
				</g>
				<g>
					<path class="st7" d="M173.6,336.9c0,0-0.1-0.6-0.2-1.4c0-0.4-0.1-0.9,0-1.4c0-0.5,0-1,0.1-1.5c0.1-0.5-0.2-1.2,0-1.6
						c0.2-0.4,0.7-0.6,1.2-0.8c0.3-0.1,0.5-0.1,0.8-0.1c0.1,0,0.3,0,0.4,0c0.1,0,0.3,0,0.4,0c0.3,0,0.4,0,0.6,0c0.2,0,0.2,0,0.2,0
						c0.2,0,0.4,0.1,0.5,0.3c0,0,0.1,0.1,0.2,0.2c0.1,0.1,0.2,0.3,0.4,0.5c0.1,0.1,0.2,0.2,0.2,0.3c0.1,0.1,0.1,0.2,0.2,0.3
						c0.1,0.2,0.3,0.5,0.4,0.7c0.2,0.5,0.3,1,0.1,1.4c-0.2,0.4-0.9,0.6-1.3,0.9c-0.4,0.3-0.8,0.7-1.2,1c-0.4,0.3-0.8,0.6-1.2,0.8
						c-0.7,0.4-1.2,0.7-1.2,0.7c-0.2,0.1-0.4,0-0.5-0.2C173.7,336.9,173.6,336.9,173.6,336.9z"/>
				</g>
				<g>
					<path class="st7" d="M182,338.7c0,0-0.4-0.5-0.8-1.2c-0.2-0.4-0.5-0.8-0.7-1.2c-0.3-0.4-0.4-0.9-0.6-1.4
						c-0.2-0.5-0.7-0.9-0.7-1.4c0-0.4,0.3-0.9,0.7-1.2c0.2-0.2,0.4-0.3,0.7-0.5c0.1-0.1,0.2-0.1,0.3-0.2c0.1-0.1,0.3-0.1,0.4-0.2
						c0.2-0.1,0.4-0.2,0.5-0.2c0.1-0.1,0.2-0.1,0.2-0.1c0.2-0.1,0.4-0.1,0.6,0c0,0,0.1,0,0.2,0.1c0.2,0.1,0.3,0.1,0.5,0.2
						c0.1,0.1,0.2,0.1,0.4,0.2c0.1,0.1,0.2,0.1,0.3,0.2c0.2,0.1,0.5,0.3,0.7,0.5c0.4,0.4,0.7,0.8,0.7,1.2c0,0.4-0.6,0.9-0.7,1.4
						c-0.2,0.5-0.4,0.9-0.6,1.4c-0.2,0.4-0.5,0.9-0.7,1.2c-0.4,0.7-0.8,1.2-0.8,1.2C182.5,338.8,182.3,338.9,182,338.7
						C182.1,338.7,182,338.7,182,338.7z"/>
				</g>
				<g>
					<path class="st7" d="M188.8,338.8c0,0-0.4-0.4-1-1c-0.3-0.3-0.6-0.7-0.9-1.1c-0.3-0.4-0.6-0.8-0.8-1.3
						c-0.2-0.4-0.8-0.8-0.9-1.3c-0.1-0.4,0.2-0.9,0.5-1.3c0.2-0.2,0.4-0.4,0.6-0.6c0.1-0.1,0.2-0.2,0.3-0.3c0.1-0.1,0.2-0.2,0.3-0.2
						c0.2-0.1,0.3-0.2,0.5-0.3c0.1-0.1,0.2-0.1,0.2-0.1c0.2-0.1,0.4-0.1,0.6-0.1c0,0,0.1,0,0.2,0c0.2,0,0.3,0.1,0.6,0.2
						c0.1,0,0.2,0.1,0.4,0.1c0.1,0,0.2,0.1,0.4,0.1c0.2,0.1,0.5,0.2,0.7,0.4c0.4,0.3,0.8,0.6,0.9,1.1c0,0.4-0.4,1-0.5,1.5
						c-0.1,0.5-0.2,1-0.4,1.5c-0.1,0.5-0.3,0.9-0.5,1.3c-0.3,0.8-0.6,1.3-0.6,1.3C189.3,338.9,189.1,339,188.8,338.8
						C188.9,338.9,188.9,338.8,188.8,338.8z"/>
				</g>
				<g>
					<path class="st7" d="M195.8,338c0,0-0.5-0.4-1.1-1c-0.3-0.3-0.6-0.6-1-1c-0.4-0.4-0.6-0.8-1-1.2c-0.3-0.4-0.9-0.7-1.1-1.2
						c-0.1-0.4,0.1-0.9,0.4-1.4c0.1-0.2,0.3-0.4,0.5-0.6c0.1-0.1,0.2-0.2,0.3-0.3c0.1-0.1,0.2-0.2,0.3-0.3c0.2-0.2,0.3-0.3,0.5-0.4
						c0.1-0.1,0.2-0.1,0.2-0.1c0.2-0.1,0.4-0.2,0.6-0.1c0,0,0.1,0,0.2,0c0.2,0,0.3,0.1,0.6,0.1c0.1,0,0.2,0,0.4,0.1
						c0.1,0,0.2,0.1,0.4,0.1c0.2,0.1,0.5,0.2,0.8,0.3c0.5,0.2,0.9,0.6,1,1c0.1,0.4-0.3,1-0.4,1.5c-0.1,0.5-0.1,1-0.3,1.5
						c-0.1,0.5-0.2,0.9-0.4,1.3c-0.2,0.8-0.5,1.3-0.5,1.3C196.3,338,196.1,338.1,195.8,338C195.9,338,195.8,338,195.8,338z"/>
				</g>
				<g>
					<path class="st7" d="M204.2,335.1c0,0-0.6-0.1-1.3-0.2c-0.4-0.1-0.8-0.2-1.3-0.3c-0.5-0.1-0.9-0.3-1.4-0.5
						c-0.4-0.2-1.1-0.2-1.4-0.4c-0.3-0.3-0.3-0.8-0.3-1.3c0-0.3,0.1-0.5,0.2-0.8c0-0.1,0.1-0.3,0.1-0.4c0.1-0.1,0.1-0.3,0.1-0.4
						c0.1-0.2,0.1-0.4,0.2-0.5c0.1-0.1,0.1-0.2,0.1-0.2c0.1-0.2,0.3-0.3,0.4-0.4c0,0,0.1,0,0.2-0.1c0.1-0.1,0.3-0.1,0.5-0.2
						c0.1,0,0.2-0.1,0.4-0.1c0.1,0,0.2-0.1,0.4-0.1c0.3-0.1,0.5-0.1,0.8-0.1c0.5,0,1,0,1.3,0.3c0.3,0.3,0.2,1,0.4,1.4
						c0.2,0.5,0.3,0.9,0.5,1.4c0.1,0.5,0.2,0.9,0.3,1.3c0.2,0.8,0.2,1.3,0.2,1.3C204.6,334.9,204.5,335.1,204.2,335.1
						C204.2,335.1,204.2,335.1,204.2,335.1z"/>
				</g>
				<g>
					<path class="st7" d="M209.2,332.6c0,0-0.5,0.1-1.1,0c-0.3,0-0.7,0-1.1,0c-0.4,0-0.8-0.1-1.1-0.2c-0.4-0.1-0.9,0.1-1.2-0.1
						c-0.2-0.2-0.2-0.6-0.2-1.1c0-0.2,0.1-0.5,0.2-0.7c0-0.1,0.1-0.2,0.1-0.3c0.1-0.1,0.1-0.2,0.1-0.3c0.1-0.2,0.2-0.4,0.2-0.5
						c0.1-0.1,0.1-0.2,0.1-0.2c0.1-0.2,0.2-0.3,0.4-0.4c0,0,0.1,0,0.2-0.1c0.1-0.1,0.3-0.2,0.5-0.3c0.1-0.1,0.2-0.1,0.3-0.2
						c0.1-0.1,0.2-0.1,0.3-0.2c0.2-0.1,0.5-0.2,0.7-0.3c0.4-0.1,0.9-0.2,1.1,0c0.2,0.2,0.1,0.8,0.2,1.2c0.1,0.4,0.2,0.7,0.3,1.1
						c0.1,0.4,0.1,0.7,0.2,1.1c0.1,0.6,0.1,1.1,0.1,1.1C209.6,332.4,209.4,332.5,209.2,332.6z"/>
				</g>
			</g>
			<g>
				<g>
					<path class="st30" d="M359.5,309.1c-6.3,18.1-34.1,32.6-62.1,16.4"/>
				</g>
				<g>
					<path class="st7" d="M357.7,322.6c0,0-0.5,0.2-1.2,0.3c-0.4,0.1-0.8,0.2-1.2,0.2c-0.4,0.1-0.9,0.1-1.3,0.1
						c-0.4,0-1,0.3-1.4,0.2c-0.4-0.1-0.5-0.6-0.7-1.1c-0.1-0.2-0.1-0.5-0.1-0.8c0-0.1,0-0.3,0-0.4c0-0.1,0-0.3,0-0.4
						c0-0.2,0-0.4,0-0.6c0-0.2,0-0.2,0-0.2c0-0.2,0.1-0.4,0.2-0.6c0,0,0.1-0.1,0.2-0.2c0.1-0.1,0.2-0.2,0.4-0.4
						c0.1-0.1,0.2-0.2,0.3-0.3c0.1-0.1,0.2-0.2,0.3-0.2c0.2-0.2,0.4-0.3,0.6-0.5c0.4-0.2,0.9-0.4,1.2-0.3c0.3,0.2,0.5,0.8,0.8,1.1
						c0.3,0.3,0.6,0.7,0.9,1c0.3,0.3,0.5,0.7,0.7,1c0.4,0.6,0.6,1.1,0.6,1.1C358.1,322.2,358,322.5,357.7,322.6
						C357.8,322.6,357.7,322.6,357.7,322.6z"/>
				</g>
				<g>
					<path class="st7" d="M354.1,326.9c0,0-0.6,0.1-1.4,0.1c-0.4,0-0.9,0-1.4,0c-0.5,0-1-0.1-1.5-0.1c-0.5-0.1-1.1,0.2-1.5,0
						c-0.4-0.2-0.6-0.7-0.7-1.2c-0.1-0.3-0.1-0.5-0.1-0.8c0-0.1,0-0.3,0-0.4c0-0.1,0-0.3,0-0.4c0-0.2,0-0.4,0.1-0.6
						c0-0.2,0-0.2,0-0.2c0-0.2,0.1-0.4,0.3-0.5c0,0,0.1-0.1,0.2-0.2c0.1-0.1,0.3-0.2,0.5-0.4c0.1-0.1,0.2-0.1,0.3-0.2
						c0.1-0.1,0.2-0.1,0.3-0.2c0.2-0.1,0.5-0.3,0.7-0.3c0.5-0.2,1-0.3,1.4-0.1c0.4,0.2,0.5,0.9,0.8,1.3c0.3,0.4,0.6,0.8,0.9,1.2
						c0.3,0.4,0.5,0.8,0.7,1.2c0.4,0.7,0.6,1.2,0.6,1.2C354.5,326.6,354.4,326.8,354.1,326.9C354.2,326.9,354.1,326.9,354.1,326.9z"
						/>
				</g>
				<g>
					<path class="st7" d="M348.4,331.8c0,0-0.6-0.1-1.5-0.2c-0.4-0.1-0.9-0.2-1.4-0.3c-0.5-0.1-1-0.3-1.5-0.5
						c-0.5-0.2-1.2-0.1-1.6-0.4c-0.4-0.3-0.5-0.9-0.5-1.4c0-0.3,0-0.6,0-0.8c0-0.1,0-0.3,0.1-0.4c0-0.1,0.1-0.3,0.1-0.4
						c0.1-0.2,0.1-0.4,0.2-0.6c0.1-0.1,0.1-0.2,0.1-0.2c0.1-0.2,0.2-0.4,0.4-0.4c0,0,0.1,0,0.2-0.1c0.1-0.1,0.3-0.1,0.5-0.2
						c0.1,0,0.2-0.1,0.4-0.1c0.1,0,0.2-0.1,0.4-0.1c0.3-0.1,0.5-0.1,0.8-0.2c0.5,0,1.1,0,1.4,0.3c0.3,0.3,0.4,1.1,0.6,1.5
						c0.2,0.5,0.5,1,0.7,1.5c0.2,0.5,0.4,1,0.5,1.4c0.3,0.8,0.4,1.4,0.4,1.4c0,0.2-0.1,0.4-0.3,0.4
						C348.5,331.8,348.4,331.8,348.4,331.8z"/>
				</g>
				<g>
					<path class="st7" d="M341.5,334.8c0,0-0.6-0.2-1.4-0.5c-0.4-0.2-0.8-0.4-1.3-0.6c-0.5-0.2-0.9-0.5-1.4-0.8
						c-0.4-0.3-1.2-0.3-1.5-0.7c-0.3-0.4-0.3-0.9-0.2-1.4c0-0.3,0.1-0.5,0.2-0.8c0.1-0.1,0.1-0.3,0.1-0.4c0.1-0.1,0.1-0.3,0.2-0.4
						c0.1-0.2,0.2-0.4,0.3-0.5c0.1-0.1,0.1-0.2,0.1-0.2c0.1-0.2,0.3-0.3,0.5-0.4c0,0,0.1,0,0.2-0.1c0.2-0.1,0.3-0.1,0.6-0.1
						c0.1,0,0.2-0.1,0.4-0.1c0.1,0,0.3,0,0.4,0c0.3,0,0.6,0,0.8,0c0.5,0.1,1.1,0.2,1.3,0.6c0.3,0.4,0.1,1.1,0.3,1.6
						c0.1,0.5,0.3,1,0.4,1.5c0.1,0.5,0.2,1,0.2,1.4c0.1,0.8,0.1,1.5,0.1,1.5c0,0.2-0.2,0.4-0.4,0.4
						C341.6,334.9,341.5,334.9,341.5,334.8z"/>
				</g>
				<g>
					<path class="st7" d="M334.1,337.1c0,0-0.5-0.3-1.2-0.7c-0.3-0.2-0.8-0.5-1.2-0.8c-0.4-0.3-0.8-0.6-1.2-1
						c-0.4-0.4-1.1-0.5-1.3-0.9c-0.2-0.4-0.1-0.9,0.1-1.4c0.1-0.3,0.2-0.5,0.4-0.7c0.1-0.1,0.1-0.2,0.2-0.3c0.1-0.1,0.2-0.2,0.2-0.3
						c0.2-0.2,0.2-0.3,0.4-0.5c0.1-0.1,0.2-0.2,0.2-0.2c0.1-0.2,0.3-0.3,0.5-0.3c0,0,0.1,0,0.2,0c0.2,0,0.3,0,0.6,0
						c0.1,0,0.3,0,0.4,0c0.1,0,0.3,0,0.4,0c0.3,0,0.5,0.1,0.8,0.1c0.5,0.1,1,0.4,1.2,0.8c0.2,0.4-0.1,1.1,0,1.6c0,0.5,0.1,1,0.1,1.5
						c0,0.5,0,1,0,1.4c-0.1,0.8-0.2,1.4-0.2,1.4c0,0.2-0.2,0.3-0.4,0.3C334.2,337.2,334.2,337.1,334.1,337.1z"/>
				</g>
				<g>
					<path class="st7" d="M325.7,338.7c0,0-0.4-0.5-0.8-1.2c-0.2-0.4-0.5-0.8-0.7-1.2c-0.3-0.4-0.4-0.9-0.6-1.4
						c-0.2-0.5-0.7-0.9-0.7-1.4c0-0.4,0.3-0.9,0.7-1.2c0.2-0.2,0.4-0.3,0.7-0.5c0.1-0.1,0.2-0.1,0.3-0.2c0.1-0.1,0.3-0.1,0.4-0.2
						c0.2-0.1,0.4-0.2,0.5-0.2c0.1-0.1,0.2-0.1,0.2-0.1c0.2-0.1,0.4-0.1,0.6,0c0,0,0.1,0,0.2,0.1c0.2,0.1,0.3,0.1,0.5,0.2
						c0.1,0.1,0.2,0.1,0.4,0.2c0.1,0.1,0.2,0.1,0.3,0.2c0.2,0.1,0.5,0.3,0.7,0.5c0.4,0.4,0.7,0.8,0.7,1.2c0,0.4-0.6,0.9-0.7,1.4
						c-0.2,0.5-0.4,0.9-0.6,1.4c-0.2,0.4-0.5,0.9-0.7,1.2c-0.4,0.7-0.8,1.2-0.8,1.2C326.2,338.8,325.9,338.9,325.7,338.7
						C325.7,338.7,325.7,338.7,325.7,338.7z"/>
				</g>
				<g>
					<path class="st7" d="M318.9,338.7c0,0-0.3-0.5-0.6-1.3c-0.1-0.4-0.3-0.8-0.5-1.3c-0.2-0.5-0.3-1-0.4-1.5
						c-0.1-0.5-0.5-1-0.5-1.5c0.1-0.4,0.5-0.8,0.9-1.1c0.2-0.1,0.5-0.3,0.7-0.4c0.1-0.1,0.3-0.1,0.4-0.1c0.1,0,0.3-0.1,0.4-0.1
						c0.2-0.1,0.4-0.1,0.6-0.2c0.2,0,0.2,0,0.2,0c0.2,0,0.4,0,0.6,0.1c0,0,0.1,0,0.2,0.1c0.1,0.1,0.3,0.2,0.5,0.3
						c0.1,0.1,0.2,0.1,0.3,0.2c0.1,0.1,0.2,0.2,0.3,0.3c0.2,0.2,0.4,0.4,0.6,0.6c0.3,0.4,0.6,0.9,0.5,1.3c-0.1,0.4-0.7,0.8-0.9,1.3
						c-0.3,0.4-0.5,0.9-0.8,1.3c-0.3,0.4-0.6,0.8-0.9,1.1c-0.5,0.6-1,1-1,1C319.3,339,319.1,339,318.9,338.7
						C318.9,338.8,318.9,338.8,318.9,338.7z"/>
				</g>
				<g>
					<path class="st7" d="M311.9,337.8c0,0-0.2-0.5-0.5-1.3c-0.1-0.4-0.2-0.9-0.4-1.3c-0.1-0.5-0.2-1-0.3-1.5c0-0.5-0.4-1.1-0.4-1.5
						c0.1-0.4,0.5-0.7,1-1c0.2-0.1,0.5-0.2,0.8-0.3c0.1,0,0.3-0.1,0.4-0.1c0.1,0,0.3-0.1,0.4-0.1c0.2,0,0.4-0.1,0.6-0.1
						c0.2,0,0.2,0,0.2,0c0.2,0,0.4,0,0.6,0.1c0,0,0.1,0,0.2,0.1c0.1,0.1,0.3,0.2,0.5,0.4c0.1,0.1,0.2,0.2,0.3,0.3
						c0.1,0.1,0.2,0.2,0.3,0.3c0.2,0.2,0.4,0.4,0.5,0.6c0.3,0.4,0.5,0.9,0.4,1.4c-0.1,0.4-0.8,0.7-1.1,1.2c-0.3,0.4-0.6,0.8-1,1.2
						c-0.3,0.4-0.7,0.7-1,1c-0.6,0.6-1.1,1-1.1,1C312.3,338.1,312.1,338.1,311.9,337.8C312,337.9,311.9,337.9,311.9,337.8z"/>
				</g>
				<g>
					<path class="st7" d="M303.7,334.7c0,0,0.1-0.6,0.2-1.3c0.1-0.4,0.2-0.8,0.3-1.3c0.1-0.5,0.3-0.9,0.5-1.4
						c0.2-0.4,0.1-1.1,0.4-1.4c0.3-0.3,0.8-0.3,1.3-0.3c0.3,0,0.5,0.1,0.8,0.1c0.1,0,0.3,0.1,0.4,0.1c0.1,0,0.3,0.1,0.4,0.1
						c0.2,0.1,0.4,0.1,0.5,0.2c0.1,0.1,0.2,0.1,0.2,0.1c0.2,0.1,0.3,0.2,0.4,0.4c0,0,0,0.1,0.1,0.2c0.1,0.1,0.1,0.3,0.2,0.5
						c0,0.1,0.1,0.2,0.1,0.4c0,0.1,0.1,0.2,0.1,0.4c0.1,0.3,0.1,0.5,0.2,0.8c0,0.5,0,1-0.3,1.3c-0.3,0.3-1,0.2-1.4,0.4
						c-0.5,0.2-0.9,0.4-1.4,0.5c-0.4,0.1-0.9,0.2-1.3,0.3c-0.8,0.2-1.3,0.2-1.3,0.2C303.9,335.1,303.7,335,303.7,334.7
						C303.7,334.7,303.7,334.7,303.7,334.7z"/>
				</g>
				<g>
					<path class="st7" d="M298.8,332.1c0,0,0-0.5,0.1-1.1c0-0.3,0.1-0.7,0.2-1.1c0.1-0.4,0.2-0.7,0.3-1.1c0.1-0.3,0-1,0.2-1.2
						c0.2-0.2,0.7-0.1,1.1,0c0.2,0.1,0.5,0.2,0.7,0.3c0.1,0.1,0.2,0.1,0.3,0.2c0.1,0.1,0.2,0.1,0.3,0.2c0.2,0.1,0.3,0.2,0.5,0.3
						c0.1,0.1,0.2,0.1,0.2,0.1c0.2,0.1,0.3,0.3,0.4,0.4c0,0,0,0.1,0.1,0.2c0.1,0.1,0.1,0.3,0.2,0.5c0,0.1,0.1,0.2,0.1,0.3
						c0,0.1,0.1,0.2,0.1,0.3c0.1,0.2,0.1,0.5,0.2,0.7c0.1,0.5,0.1,0.9-0.2,1.1c-0.2,0.2-0.8,0-1.2,0.1c-0.4,0.1-0.7,0.1-1.1,0.2
						c-0.4,0-0.8,0-1.1,0c-0.7,0-1.1,0-1.1,0C298.9,332.5,298.8,332.3,298.8,332.1z"/>
				</g>
			</g>
		</g>
	</g>
</g>
<g id="testing">
</g>
<g id="pulpfiction">
</g>
</svg>
