<svg xmlns="http://www.w3.org/2000/svg" viewBox="0 0 500 500"><defs><style>.cls-1{fill:#ffeb4d;}.cls-2{fill:#ff4d5c;}</style></defs><title>tools01</title><g id="individual"><path class="cls-1" d="M55.43,171.51c0-3.51-.06-7,0-10.54.12-5.69.34-11.37.48-17.05.12-4.55.2-9.11.27-13.66a3.41,3.41,0,0,0-.28-1.4c-.7-1.56-.68-2,.7-2.93a33.34,33.34,0,0,1,4.51-2.68,23.62,23.62,0,0,0,6.1-4.74,6.32,6.32,0,0,0,1.61-4.63c.15-4.77.3-9.55.36-14.32.09-6.8.11-13.6.17-20.41a10.62,10.62,0,0,0-.73-4.31c-1.1-2.64-.27-5.24.58-7.79s2.7-4.08,4.26-6c1.93-2.32,4.05-4.47,6.08-6.71A20.63,20.63,0,0,0,84.9,41.82c.24-2.9.22-5.83.26-8.75A4.16,4.16,0,0,1,86.24,30a1.26,1.26,0,0,1,2.13,0,2.73,2.73,0,0,1,.5,2.36c-.38,2.56-.65,5.13-1,7.69a18.22,18.22,0,0,1-.52,3.32c-1.41,4.33.2,7.84,2.89,11,1.4,1.67,3,3.18,4.41,4.81,5.54,6.3,6.74,13.32,3.44,21.08a58.1,58.1,0,0,0-2.57,6.89,23.65,23.65,0,0,0-.71,5.41c-.18,4.35-.18,8.71-.34,13.06s-.36,8.7-.68,13a3.75,3.75,0,0,0,1.34,3.32,13.28,13.28,0,0,0,4.74,3c1.65.55,2.13,1.54,1.92,3.22-.3,2.36-.48,4.75-.8,7.11-.27,2-.68,4-1,6a5.52,5.52,0,0,0-.14.83c-.07,3.92-.1,7.84-.19,11.76,0,2-.18,4.06-.26,6.09-.06,1.61-.12,3.23-.16,4.84-.14,6.46-.35,12.92-1.74,19.27A156.63,156.63,0,0,1,92,203.85a16,16,0,0,0-.76,9.28c1.38,6.05.73,12.14,0,18.23-.54,4.31-.91,8.65-1.16,13-.3,5.19-.4,10.38-.56,15.58-.22,6.74-.46,13.47-.61,20.21-.11,5.2-.07,10.4-.15,15.59-.11,6.95-.23,13.9-.43,20.84-.16,5.47-.45,10.94-.7,16.4-.13,3-.23,6-.45,9-.28,3.71-.73,7.4-1,11.11-.22,2.87-.24,5.75-.43,8.62-.26,3.92-.6,7.84-.91,11.76a33.63,33.63,0,0,0-.33,3.77A30,30,0,0,1,83.3,386a16.29,16.29,0,0,0-.51,2.89c-.31,4-1.89,7.6-2.94,11.38s-2,7.74-3.26,11.53a65.78,65.78,0,0,1-3.38,7.9,11.06,11.06,0,0,1-2.2,2.8c-1.35,1.36-2.41,1.18-3.76-.15-2.32-2.29-2.81-5-2.41-8.11a26,26,0,0,0-.15-6.27c-.51-4.25-1.24-8.47-1.81-12.71-1.05-7.86-2-15.73-2.47-23.67-.7-10.8-.88-21.61-1.23-32.42-.24-7.3-.74-14.59-1-21.89-.18-5.9-.07-11.8-.21-17.7-.21-8.64-.53-17.27-.81-25.91A91.61,91.61,0,0,1,58,256.43c.91-5.82,1.52-11.69,2.21-17.54.57-4.81,1.27-9.61,1.57-14.44a26.23,26.23,0,0,0-1.6-11.79,20.27,20.27,0,0,0-2.09-4.11,18.7,18.7,0,0,1-3.13-9.69,134.81,134.81,0,0,1,.32-20.62c.17-2.23,0-4.49,0-6.74Zm2.69-42.2c-.08,1.38-.18,2.42-.19,3.46-.1,6.46-.15,12.91-.28,19.37-.1,4.85-.34,9.69-.44,14.53,0,2.32.19,4.64.1,7-.29,7.93-1,15.85-.56,23.8a20,20,0,0,0,3.1,10.34,20.81,20.81,0,0,1,3.42,8.54,52.08,52.08,0,0,1,.06,14.91c-1,7.44-2.17,14.87-3.13,22.32-.52,4-.91,8.1-1.09,12.16-.16,3.71,0,7.43.1,11.14.2,7.73.5,15.45.68,23.17.14,6,.08,12.08.25,18.12.21,7.3.62,14.6.86,21.9.23,7.08.28,14.18.56,21.26.25,6.24.47,12.51,1.17,18.71,1,9.2,2.48,18.36,3.78,27.54.39,2.78.92,5.52.36,8.35a4.65,4.65,0,0,0,2.39,5.23A25.17,25.17,0,0,0,71,419.22a28.14,28.14,0,0,0,4.21-9.81c2.19-8.18,4.81-16.27,6.34-24.63a30.32,30.32,0,0,0,.89-7.07,22.45,22.45,0,0,1,.17-2.94c.36-4.48.74-9,1.09-13.43.27-3.43.47-6.86.74-10.29.16-2,.49-3.9.61-5.86.27-4.35.5-8.7.67-13,.31-8.21.61-16.42.83-24.64.2-7.72.27-15.45.42-23.18.16-8.07.32-16.15.55-24.22.21-7.58.5-15.16.77-22.74a27,27,0,0,1,.3-2.72c.4-2.92.94-5.82,1.21-8.75a47.24,47.24,0,0,0-.88-13.82,10.18,10.18,0,0,1-.16-3.95,45.36,45.36,0,0,1,2.17-7.87c1.9-4.71,2.85-9.67,4.14-14.54a75.07,75.07,0,0,0,2.1-17.94,40.73,40.73,0,0,1,.19-5.68c.92-5.79-.16-11.65.72-17.44,0-.2,0-.42,0-.63a24.88,24.88,0,0,1,.26-4,42.06,42.06,0,0,0,.95-11,9.34,9.34,0,0,1-2.56,1.67,21.27,21.27,0,0,1-8.37.47c-5.18-.83-10.38-.29-15.57-.36-4-.06-8,0-11.88-1.14A20.05,20.05,0,0,0,58.13,129.31ZM70,118.38c2-.11,4-.32,6-.32,4.55,0,9.12-.26,13.54,1.28,1.6.56,2.2.06,2.31-1.66.23-3.5.58-7,.59-10.5s1-7.16-.9-10.64c-.66-1.21-1.81-2.37-1.63-4,0-.16-.35-.42-.59-.53-1.7-.8-2.26-2.27-2.65-4-.56-2.52-.8-2.62-3.35-2.79-1.31-.08-1.88-.46-1.71-1.58a2.37,2.37,0,0,0-1.32-2.56,3.3,3.3,0,0,0-3.15-.58c-1.91.61-3.86,1.12-5.89,1.71a14,14,0,0,0-.14,1.4c0,2.74,0,5.47,0,8.21-.1,5.82-.21,11.64-.37,17.46-.08,2.92.36,5.9-.86,8.72C69.83,118.09,69.93,118.24,70,118.38Zm22.09-24,.57-.4c0-.34.07-.68.05-1a23.52,23.52,0,0,1,1.44-8.87c.81-2.24,1.71-4.45,2.66-6.63a12,12,0,0,0,.89-7.13,18.43,18.43,0,0,0-4.61-9.93c-1.31-1.37-2.54-2.82-3.87-4.16a17.4,17.4,0,0,1-3.66-5.59,7.64,7.64,0,0,0-.52-.91c-1.3,1.9-2.39,3.79-3.77,5.44-2.15,2.58-4.46,5-6.78,7.48-2.89,3-3.57,6.72-3.36,10.69.08,1.6.31,3.19.41,4.79s.9,2.21,2.5,1.84c1.23-.29,2.45-.62,3.68-.9a3.66,3.66,0,0,1,3,.59c1.39,1,2.8,1.88,2.63,3.83,3,.23,4.37,1.45,4.76,4.17a3.55,3.55,0,0,0,1.5,2.65c1.15.79,2.26,1.65,2.18,3.29C91.74,93.87,91.95,94.14,92.05,94.4ZM78.5,129.23h8.07a11.91,11.91,0,0,1,.65-1.84,2.27,2.27,0,0,1,2.44-.76c.77.3,1.08,1.06.84,2.1-.09.36-.21.72-.38,1.27,1.32-.1,2.44-.27,3.55-.24,2.59.07,4.1-1.29,5.14-3.57a5.9,5.9,0,0,0-3.9-.86c.26.59.48,1,.64,1.45.23.62.07,1.15-.6,1.33a1.06,1.06,0,0,1-1.45-.8c-.13-.52-.19-1.06-.28-1.58-.49-.1-.83-.21-1.17-.25-2.16-.24-4.32-.46-6.47-.71-3.83-.44-7.65-1-11.49-1.3a22,22,0,0,0-7.69.69c1.08,2.3,1,3.1-.33,3.61s-2.22,0-2.91-2.06a4.45,4.45,0,0,0-3.54,1.79c5.09,2,10.16,1.89,15.23,1.48.67-2.33,1.29-2.91,2.68-2.6C78.71,126.64,79,127.29,78.5,129.23Zm-11-7.37c1.49-.09,3-.14,4.48-.28.93-.09.9-.64.47-1.33A6.61,6.61,0,0,0,67.46,121.86Zm18.48.85c-.14-.71-.23-1.25-.36-1.78a.9.9,0,0,0-1.29-.65,1.43,1.43,0,0,0-.65,1.08C83.59,122.38,83.91,122.54,85.94,122.71ZM77.85,120c-.22,2.13.08,2.4,2,1.92C79.82,119.93,79.82,119.93,77.85,120Zm13.72,2.64c.77,1,.77,1,1.81.38Zm-16-2.61L75,120c-.11.56-.75,1.21.63,1.72Zm13.14,1.61.23,1.83C89.93,122.49,89.36,122,88.71,121.6Z"/><path class="cls-1" d="M82,70.93l1.2.74a3,3,0,0,0,.36-.52,8.68,8.68,0,0,0,.58-4.31,50.31,50.31,0,0,1,0-5.16A10.68,10.68,0,0,1,83,61.52,1.4,1.4,0,0,1,81.75,60a2.24,2.24,0,0,1,1.18-1.54,2.05,2.05,0,0,1,1.76.68c1,1.34,1,3,1,4.62,0,1.39,0,2.78,0,4.17a10.76,10.76,0,0,1-1.16,5.28c-.47,1-1.11,1.09-1.8.3S81.08,72.3,82,70.93Z"/><path class="cls-1" d="M89.54,69.69c-1.25-1.48-.84-2.83,1.41-5.06l1.4,1.1Z"/><path class="cls-1" d="M91.79,77.31c-.85.88-1.68,1.81-2.61,2.64a1.14,1.14,0,0,1-1.11,0,1.12,1.12,0,0,1-.2-1.08,22.24,22.24,0,0,1,2.46-2.54C90.66,76.06,90.8,76.2,91.79,77.31Z"/><path class="cls-1" d="M84.92,53l1.21,1.41c-.86.73-1.55,1.41-2.33,2-.27.19-1,.2-1.09,0-.22-.34-.39-1.06-.2-1.28A24.85,24.85,0,0,1,84.92,53Z"/><path class="cls-1" d="M77.06,69.48l-3.29,2.68c-.9-.51-1.42-1.09-.66-1.85a7.39,7.39,0,0,1,2.24-1.42C75.63,68.76,76.14,69.14,77.06,69.48Z"/><path class="cls-1" d="M91.59,71.07c0-1.4,1.18-2.08,1.9-3,.12-.15,1,.27,1.52.43C94,70.75,93.24,71.27,91.59,71.07Z"/><path class="cls-1" d="M93.36,80.92a20.59,20.59,0,0,1-2.05,1.86,1.24,1.24,0,0,1-1.2,0,1.34,1.34,0,0,1,0-1.26,7.28,7.28,0,0,1,1.5-1.42C92.49,79.36,93,79.79,93.36,80.92Z"/><path class="cls-1" d="M78.68,62.56C76.84,65,76.1,65.31,75,64,76.72,61.5,77.31,61.24,78.68,62.56Z"/><path class="cls-1" d="M94.3,75.82c-.39-.44-.78-.69-.85-1a2.77,2.77,0,0,1,1.74-2.57,1.44,1.44,0,0,1,1.07.34,1,1,0,0,1,0,.92C95.66,74.26,95,75,94.3,75.82Z"/><path class="cls-1" d="M87.67,75.88c-.55-1.21-.2-2.81.74-3.27a1.37,1.37,0,0,1,1.12.14.94.94,0,0,1,.27.88C89.36,74.55,89,75.61,87.67,75.88Z"/><path class="cls-1" d="M82.9,66.49c-2.22,1.87-2.55,1.91-3.52.49C81.82,65,81.82,65,82.9,66.49Z"/><path class="cls-1" d="M89.69,59.21l-2.26,2c-.27-.34-.74-.67-.77-1-.07-1,1-2.07,1.74-1.9C88.78,58.36,89.09,58.76,89.69,59.21Z"/><path class="cls-1" d="M92.15,61.1l.93,1.37-2.17,1.69C90.25,62.36,90.25,62.36,92.15,61.1Z"/><path class="cls-1" d="M75.62,74.8a15.38,15.38,0,0,1,2.07-1.13c.59-.22,1.25.51.9.91a5.21,5.21,0,0,1-1.77,1.3c-.26.12-.76-.31-1.16-.5Z"/><path class="cls-1" d="M84.3,77.74c-.5.88-.71,1.73-1.68,1.57-.27,0-.71-.64-.64-.86A2.41,2.41,0,0,1,82.86,77C83.13,76.87,83.77,77.45,84.3,77.74Z"/><path class="cls-1" d="M91.21,87.61c-.2-.32-.58-.67-.63-1.07-.09-.75.86-1.6,1.46-1.33a1.16,1.16,0,0,1,.55.93A1.42,1.42,0,0,1,91.21,87.61Z"/><path class="cls-1" d="M81.92,125.73c.74.29,1.71.31,1.7,1.42,0,.33-.38.91-.64.94a1.88,1.88,0,0,1-1.47-.35C81,127.08,81.14,126.33,81.92,125.73Z"/><path class="cls-1" d="M71.87,123.94c1,.54,1.82,1,1.48,2.09a1.17,1.17,0,0,1-1.77.36C70.61,125.56,71.25,124.84,71.87,123.94Z"/><path class="cls-1" d="M400.06,36.39c4.54-2.91,9.33-2.53,14-2.21,6.7.46,13.43,1.07,20,2.18a77.46,77.46,0,0,1,15.61,4.15c3.6,1.43,6.78,4.08,9.89,6.51,5.3,4.14,11,7.91,14.91,13.56,2.25,3.26,4.15,6.75,6.19,10.15.37.62.63,1.3.95,2,.65,1.32,2.12,2.91,1.8,3.9A20.82,20.82,0,0,1,479.68,83,53.24,53.24,0,0,1,467,94.19c-11.34,7.25-22.35,15-33.63,22.36-4.42,2.88-9.22,5.17-13.82,7.78a4.63,4.63,0,0,0-1.43,1.47,51.21,51.21,0,0,0-5.46,10.07c-1.54,4-4.24,7.55-6,11.49-3.83,8.67-7.31,17.49-11.08,26.18-2.91,6.72-6,13.36-9.05,20-4.24,9.17-8.22,18.47-12.91,27.41-5.72,10.91-9.93,22.42-14.75,33.69-4.5,10.5-9.5,20.78-14.1,31.23-3.49,7.93-6.57,16-10,24-3.28,7.49-6.81,14.86-10.29,22.26-2.77,5.87-5.67,11.68-8.43,17.55-1.48,3.15-2.83,6.37-4.2,9.57q-6.73,15.76-13.42,31.53c-3.94,9.29-7.93,18.55-11.71,27.91-1.93,4.79-3.44,9.75-5.13,14.63a7.75,7.75,0,0,1-.37,1.39c-2.61,4.43-3.33,9.58-5.37,14.23-1.65,3.74-4.92,5.29-8.09,3.53a3.19,3.19,0,0,1-1.55-2.11,22.39,22.39,0,0,1,.28-6.44,133.33,133.33,0,0,1,9.79-27c3.86-7.94,6.52-16.29,10-24.35,4.43-10.27,8.5-20.69,12.77-31,1.84-4.44,3.79-8.83,5.69-13.24,3.5-8.18,7.07-16.33,10.47-24.54,5.89-14.21,11.69-28.47,17.51-42.71,7.61-18.6,15.31-37.16,24.8-54.91,1.64-3.06,2.79-6.39,4.3-9.52,3.91-8.12,8.06-16.13,11.82-24.33,3.15-6.89,5.94-13.94,8.78-21q7.23-17.9,14.27-35.87c.91-2.33,1.1-4.93,1.84-7.34,1.06-3.44,2.41-6.79,3.44-10.24a14.72,14.72,0,0,0,.64-4.93c-.53-9.5-1.26-19-1.79-28.48-.42-7.57-.67-15.14-1-22.72-.2-5.17-.49-10.35-.49-15.52C399.34,42.94,399.8,39.71,400.06,36.39ZM277.29,437.53c2-4.9,4.33-9.31,5.42-14,1.47-6.32,4.9-11.74,7-17.75s5-11.42,7.5-17.16c2.62-6.07,5-12.25,7.72-18.29q8.71-19.41,17.65-38.71c5.72-12.34,11.48-24.65,16.53-37.3,4-10,8.45-19.94,13.09-29.71,6.86-14.45,12-29.64,19.32-43.9,6.34-12.28,11.86-25,17.61-37.56,2.4-5.25,4.49-10.64,6.66-16,2.9-7.14,5.68-14.32,8.61-21.44,1.36-3.31,3-6.53,4.63-10.21l-8-3c-2.76,6.87-5.37,13.44-8,20q-5.09,12.53-10.25,25c-1.28,3.11-2.44,6.28-3.86,9.32-3.37,7.18-6.9,14.3-10.32,21.46-2.81,5.86-5.51,11.77-8.35,17.61-3.84,7.89-8.08,15.61-11.57,23.65-5.5,12.68-10.47,25.59-15.74,38.37-4.49,10.89-9.06,21.74-13.63,32.59q-10.35,24.61-20.74,49.2c-.48,1.14-.92,2.31-1.67,4.2l3.89-2.55c1.62,1,2.05,2,.95,3.36-1.43,1.73-3.13,1.94-5.21.68l-2.13,5.42,3.23-.82c.82,3.36-.94,4.89-5.09,4.59l-1.82,4.34c1.32.08,2.49-1.4,3.36.16.64,1.15-.11,2.81-1.72,3.5a18.5,18.5,0,0,1-3.45.75,7.84,7.84,0,0,0-.52.9c-3.57,8.4-7.27,16.76-10.66,25.24-2.22,5.54-4,11.26-6.17,17.47l3.45-1.89ZM413,36.86c0,1.59,0,2.65,0,3.71-.06,3.23,0,6.47-.25,9.69-.29,4-1.07,8.07-1.19,12.11-.2,6.85-.05,13.71,0,20.56q0,15.52.05,31a13.19,13.19,0,0,0,.34,2.09l.75,0c.51-3.4,1.06-6.8,1.52-10.2,1.37-10,2.68-20,4.06-30,1-7.51,2.23-15,3.21-22.51.66-5.09,1.08-10.21,1.67-15.87Zm13.69,1.25c-3.15,12.13-9.39,58.65-8.52,63.08,2.24-3.73,15.13-58.58,14.6-62.51Zm15.15,56.57.56.51a13.33,13.33,0,0,0,1.25-1q10.44-10.47,20.85-21c2-2.05,3.89-4.26,5.9-6.33.9-.93,1.95-1.71,3.12-2.73a30.39,30.39,0,0,0-9.13-9.69c-5.1,9.9-12.13,18.15-18.14,27.06s-12.37,17.57-18.58,26.34a29.41,29.41,0,0,0,6.2-6.26c7.37-10.27,15.4-20,23.65-29.57,3.06-3.54,6-7.18,8.84-10.92.78-1,1.36-1.78,2.51-1a1.86,1.86,0,0,1,.47,2.84c-.8,1.05-1.66,2.06-2.54,3-5.64,6.23-11.36,12.4-16.92,18.7C447.08,87.94,444.53,91.37,441.86,94.69Zm-7.93,13.8.74.82c4.92-3,10-5.74,14.73-8.9,7.21-4.77,14.25-9.78,21.33-14.75,2.45-1.72,4.88-3.51,7.16-5.45,2.58-2.2,2.65-3.69.51-6.48C463.46,85.17,448.16,96.15,433.94,108.49Zm-9.48-.83a503.27,503.27,0,0,0,37.88-55l-3.58-3C445.91,68.52,437.09,89.23,424.46,107.66ZM409.6,37.12c-1.75-.21-2.21.46-2.35,1.77-.45,4.18-1.1,8.34-1.47,12.53a68,68,0,0,0-.23,9c.36,7.92,1,15.82,1.34,23.73.27,5.77.28,11.54.53,17.31.11,2.53.54,5,.82,7.57L409,109c-.11-2-.35-4-.3-6,.11-4.09.53-8.17.54-12.26,0-14.82-.11-29.63,1.29-44.41C410.84,43.32,410,40.21,409.6,37.12Zm42.26,7.63c-3.25,6.12-6.48,11.75-9.25,17.59s-5.19,12.14-7.79,18.21c-2.49,5.81-6.61,10.9-8.2,18,3.47-4.12,27.7-47.26,28.92-51.23-.69-.57-1.39-1.23-2.16-1.79A9.78,9.78,0,0,0,451.86,44.75Zm-28.1,44.94c4.62-7.46,6.74-15.88,9.73-24s5.81-16.35,8.81-24.8l-5.85-1.28Zm5.34-3.64c4-5.19,6.09-11.31,8.56-17.24,1.52-3.65,3.06-7.3,4.7-10.9,2.17-4.79,4.45-9.54,6.78-14.54L446,42C438.65,56.19,434.66,71.42,429.1,86.06ZM475.26,66.4,448.61,92.09l.59.65,28.46-22.3ZM403.88,90.23l.78,0c.06-1.05.19-2.11.18-3.16q-.15-9.35-.37-18.69a11.12,11.12,0,0,0-.21-2.15c-1.29-5.81-1.06-11.61-.35-17.48.35-2.86.8-5.84-.41-8.69A38.17,38.17,0,0,0,402,53c.26,5.87.29,11.74.6,17.6C402.91,77.17,403.44,83.7,403.88,90.23Zm-2.35,39c2.64,1.14,4.67,2.16,6.81,2.86a2.91,2.91,0,0,0,2.52-.56,12.93,12.93,0,0,0,3.22-5.71c-4.08.89-7.43.21-10.35-2.82ZM275.17,444.82l-5.76,1.86a5,5,0,0,0-.08,1.73c.17.72.55,1.75,1.09,1.94a2.36,2.36,0,0,0,2.14-.68A45.28,45.28,0,0,0,275.17,444.82Zm145.9-324.54a58.73,58.73,0,0,0,13-7.65A34.9,34.9,0,0,0,421.07,120.29ZM275.57,439.2l-5.08,1.24-.6,2.74,5.41-2.12Z"/><path class="cls-1" d="M197.28,66.58c5.94,0,11.17,1.39,16.48,2.46,6.71,1.34,13.52,2.19,20.25,3.42a93.39,93.39,0,0,1,11.91,2.73c6.18,2,12.23,4.36,18.31,6.63,2,.73,2.23,1.6,1.47,3.68-1.16,3.16-2.14,6.4-3.52,9.46-2.67,5.94-3.07,12.35-4.24,18.61-.51,2.71-1.09,5.42-1.62,8.13-.2,1-.37,2.1-.53,3.06,3.22,1.91,3.18,2,3,5.47a29.8,29.8,0,0,1-5.17,14.82,8.23,8.23,0,0,1-6.91,3.91c-5.05.08-10.1.1-15.15.16-.7,0-1.41.07-2.26.11-1.71,8.6-3.49,17.08-5.06,25.59-2.21,11.94-4.2,23.93-6.42,35.87-1.8,9.68-3.87,19.31-5.67,29-1,5.43-1.65,10.92-2.55,16.37-.7,4.24-1.57,8.46-2.28,12.7-1.82,10.92-3.4,21.88-5.43,32.76-1.61,8.63-3.68,17.17-5.66,25.72-1.57,6.79-3.27,13.55-5,20.31-1.05,4.2-2.23,8.36-3.33,12.54q-3,11.51-6,23c-.43,1.63-.77,3.29-1.32,4.88-1.22,3.53-1.18,7.23-1.57,10.87-.07.67-1,1.87-1.19,1.81-1.88-.57-3.4.48-5.08.79-3,.56-5.24-2.62-4.24-5.6a18.32,18.32,0,0,0,1.12-4.9c.3-6.66,1.89-13.07,3.33-19.52,1.34-6,2.73-12,4.11-17.93q3.76-16.33,7.52-32.65c3.64-15.71,6.75-31.53,9-47.51,1.55-11.06,2.69-22.19,4.48-33.21,1.5-9.24,3.68-18.38,5.58-27.56.83-4,1.79-8,2.57-12,2.67-13.69,5.36-27.38,9.19-40.81,1-3.57,1.91-7.2,1.51-11.17-.83-.17-1.62-.39-2.42-.5-3.79-.53-7.64-.8-11.38-1.6a9.79,9.79,0,0,1-7.3-6.82A41.6,41.6,0,0,1,194,129.49c-.24-3.92.1-7.88.23-11.82,0-.58.09-1.47.44-1.66,2.18-1.17,1.86-3.23,1.89-5.08.13-9,.14-18.08.27-27.12C196.87,78.19,197.11,72.57,197.28,66.58Zm23.63,82.2L216.82,165c-2,8-4.16,16-6,24.09-1.92,8.31-3.33,16.74-5.37,25A377.42,377.42,0,0,0,198,256c-1.62,12.52-3.11,25.08-5.31,37.5-2.37,13.38-5.41,26.65-8.32,39.93-2.26,10.33-5,20.56-7.12,30.91-2,9.89-3.62,19.87-5.4,29.82-.25,1.41-.52,2.83.91,4,2.55-1.41,3.56-3.64,4.19-6.29,1.31-5.48,2.75-10.93,4.25-16.37,1.86-6.72,4-13.38,5.72-20.13,2.31-8.84,4.36-17.74,6.58-26.6,3.08-12.26,6-24.53,7.69-37.1,1.16-8.82,2.71-17.59,4.24-26.36,2.29-13,4.73-26,7.08-39,1.16-6.39,2.24-12.79,3.39-19.19.8-4.5,1.69-9,2.48-13.48,1.41-8.06,2.76-16.12,4.14-24.18,1-5.8,2-11.6,3-17.41a24.72,24.72,0,0,0,0-3.67Zm-12-78.28c-1.65-.27-2.93-.53-4.22-.69-3.43-.41-4.34.23-4.65,3.73s-.48,7.19-.59,10.79c-.23,7.81-.39,15.61-.54,23.42-.05,2.62,0,5.24,0,8.24l7,.38C207.5,101,209.17,85.86,208.95,70.5ZM224.86,120l7.28-45.3-7.83-1.07a24.24,24.24,0,0,0-.83,2.69c-1.3,7.45-2.7,14.89-3.79,22.37-.95,6.51-1.54,13.07-2.32,19.93Zm9.89.68,8.32-44.08c-1.87-.41-3.38-.78-4.9-1-2.34-.41-2.8-.17-3.32,2.06-.44,1.87-.61,3.8-1,5.69-1.67,9-3.39,18-5,27-.57,3.15-1,6.33-1.47,9.76ZM212.4,71.12c-1.25,13.49-2.46,26.42-3.64,39.36-.57,6.26-.55,6.26,5.62,7.28.18,0,.4-.16.75-.32L220.66,73Zm31.09,51.4c1-3,2.13-5.65,2.79-8.39,1.79-7.34,3.44-14.72,5-22.1.85-3.94,1.5-7.93,2.24-11.93-1.24-.48-2.24-.85-3.23-1.24s-2.17-.88-3.7-1.51c-4.3,14.41-6.9,28.94-9.41,43.55Zm13.43-41.34c-.7,2.8-1.11,5-1.81,7.18a171.87,171.87,0,0,0-6.59,25.7c-.51,3.09-.6,6.41-3.37,9.25l7.31,1.42c2.78-7,3.24-14,4.75-20.72s3.39-13.41,5.17-20.38Z"/><path class="cls-1" d="M304.48,138.19a40.21,40.21,0,0,1-4.52-1.66c-3.67-1.91-4.65-5.49-4.79-9.14A19.92,19.92,0,0,0,293.4,119c-.62-1.25-1.2-2.57-.5-4.13a3,3,0,0,0-.46-2.27c-7.64-12.85-6.68-25.57.2-38.41a46.15,46.15,0,0,1,14.09-16.13c4.7-3.35,10-4.36,15.48-5.51,6-1.26,11.19.14,16.09,3.43a7,7,0,0,1,1.92,1.63c4.43,6.42,9.2,12.58,9.64,21a75.33,75.33,0,0,1-.42,15.45c-1.29,8.41-5.56,15.23-11,21.49-1.74,2-3.46,4-5.61,6.53.37,1.4-.5,3.46-1.73,5.46-1.74,2.84-2.52,6.23-5.42,8.4-2.18,1.63-4.38,3-7.15,3a3.21,3.21,0,0,0-3.56,2.7c-2.2,7.62-4.67,15.16-7,22.74-2.51,8-5.2,16-7.47,24.14s-4.18,16.55-6.23,24.83c-.12.47-.08,1-.23,1.42-3.88,10.94-5,22.53-8,33.68-2.4,8.95-4.52,18-7.11,26.85-1.68,5.75-4,11.33-6,17a392.65,392.65,0,0,0-13.14,42.38c-1.89,7.84-4.43,15.51-6.46,23.32-2.81,10.81-5.42,21.66-8.11,32.5-.81,3.26-1.42,6.59-2.44,9.78-.94,3-2.37,5.78-3.47,8.7-.85,2.25-1.47,4.58-2.31,6.83a4.48,4.48,0,0,1-4.16,2.94c-1.69-.14-3.15-.95-3.54-2.6a24.65,24.65,0,0,1-.42-5.33c-.07-6,1.76-11.67,3.58-17.24,5.77-17.72,10.35-35.76,15.08-53.77,2.38-9.07,5-18.07,7.63-27.07,4-13.84,8.17-27.65,12.23-41.49s8.11-27.67,12.06-41.54c2.47-8.67,4.65-17.42,7.1-26.09,3-10.64,6.15-21.24,9.23-31.86,2.34-8.08,4.76-16.14,7-24.25C303.52,144.5,303.88,141.38,304.48,138.19Zm-59.2,239.74c-1.75.06-3.32,2.24-5.48-.31-2.51,9.83-4.91,19-7.16,28.2a29.45,29.45,0,0,0-.49,6.1,9.37,9.37,0,0,0,.56,2.34c3.24-.6,2.29-3.38,2.87-4.2-.46-1.76-1.1-2.84-.9-3.75.35-1.66,1.67-2.08,3.06-1.25,3.58-5.1,3.18-11.09,5.13-16.4-3.52,2.38-3.52,2.38-5-.51.76-.68,1.45-1.71,2.38-2s2.12.1,3.28.2q.81-4.23,1.62-8.49a158,158,0,0,0,5.4-19.53c-1.5-.33-3.58.08-3.24-2s2.34-2,4-1.85l2.95-9.88c-2.93,2.7-4.28,1.09-5.64-.51.8-.45,1.84-.7,2.35-1.37,1.3-1.73,2.57-1,3.9,0l1.86-5.93a5.59,5.59,0,0,1-1.47.27c-.73-.15-1.87-.23-2.05-.66a2.4,2.4,0,0,1,.52-2.17,43.2,43.2,0,0,1,4.39-3.12c.13-.41.5-1.43.76-2.48,3.09-12.65,7.55-24.85,12-37.06A381.88,381.88,0,0,0,288,227.13a16.66,16.66,0,0,1,.53-2.84c3.35-9.18,4.58-18.9,7.27-28.24,2.06-7.17,3.55-14.53,6.12-21.51,4.25-11.54,6.35-23.62,10.07-35.71l-4-.55c-.33,1.12-.55,1.8-.73,2.49-2,7.8-3.88,15.65-6.11,23.39-2,6.91-4.77,13.57-6.5,20.6-2.33,9.44-5.42,18.7-8.16,28s-5.53,18.92-8.26,28.39c-2.06,7.16-4,14.36-6.11,21.51-4.57,15.45-9.35,30.84-13.81,46.32-3,10.39-5.59,20.9-8.4,31.35-.33,1.24-.86,2.43-1.27,3.64-.61,2.67-1.18,5.35-1.85,8-1.1,4.39-2.27,8.76-3.31,12.77,1.33.31,2.41.31,3.11.83.34.25.23,1.6-.12,2.2-1,1.61-2.4.91-3.85.06l-2.17,8.64,3.13-1.09ZM327.65,54.51c-.22,2.92-.29,5.07-.56,7.18-.85,6.55-1.87,13.08-2.66,19.64-1,8.59-1.92,17.21-2.88,25.81-.34,3.11-.68,6.21-1.07,9.31-.13,1-.57,2.05-1.8,1.61-.41-.15-.71-1.34-.63-2,.79-6.57,1.71-13.13,2.5-19.7.72-6,1.33-11.95,2-17.92.67-6.34,1.33-12.67,1.94-19,.13-1.38,0-2.78,0-4.17l-.77-.43c-.67.5-1.6.87-2,1.55A8.75,8.75,0,0,0,321,59.5c-.71,6.58-1.28,13.17-2.08,19.73-1.13,9.3-2.48,18.58-3.6,27.89-.49,4-.67,8.08-1,12.18l8.41.79c5.53-20.82,8-42.17,12-63.62ZM297.22,120c.5,3.43.83,6.64,1.47,9.78.48,2.36,1.85,4.4,4.41,4.67,4.66.51,9.35.79,14,1,6,.22,9.24-3.17,11.14-10.66Zm28.55.94c2.76-.72,2.59-2.86,3.11-4.43.83-2.5,1.35-5.11,2-7.66,2.1-7.65,4.32-15.26,6.32-22.94,1.66-6.39,3.08-12.85,4.58-19.28a2.91,2.91,0,0,0,.1-1.69,14.29,14.29,0,0,0-4-5.64,13.67,13.67,0,0,0-.9,2.08c-.67,2.8-1.32,5.6-1.91,8.42-1.25,6-2.5,12-3.67,18-1.51,7.77-3,15.54-4.4,23.33C326.49,114.23,325.2,117.3,325.77,120.92Zm-16.08-2.51c1.84.63,2.36-.6,2.57-2,.25-1.66.22-3.36.45-5,1.91-13.66,3.95-27.31,4.72-41.11.21-3.69.45-7.39.71-11.62C315.42,63.22,308.66,112.4,309.69,118.41Zm34.72-48.56-13.12,46.68a109.86,109.86,0,0,0,7.45-14.45c2.61-6.21,4.71-12.63,7.31-18.84,1.9-4.52.54-8.65-.78-12.86C345.21,70.21,344.88,70.13,344.41,69.84ZM304.8,117.6c1.41.82,2,.13,2.14-1.21.29-2.39.5-4.78.81-7.17.78-6.08,1.61-12.16,2.38-18.24q2.08-16.28,4.11-32.57a5,5,0,0,0-.22-1.21l-1.86.88C310.5,68.26,308.61,78,307.4,87.87S305.64,107.67,304.8,117.6ZM298.33,116c.86-6.24-1.48-38.34-2.94-41.08a11.75,11.75,0,0,0-2.1,7.3c.27,9.66,1.7,19.15,3.22,28.64C296.75,112.41,296.72,114.14,298.33,116Zm10.43-55.75c-2.18.53-3.78,1.65-4,3.48-.4,3-.19,6.15-.34,9.22-.36,7.53-.82,15.05-1.13,22.58-.14,3.46,0,6.93,0,10.63Zm-7,5.94c-1.4,1.25-2.91,2.22-2.87,4.06.18,8.14.45,16.27.74,24.41a20.34,20.34,0,0,0,.51,2.88l.75-.07c.29-5.14.7-10.27.84-15.42S301.8,71.76,301.8,66.18Zm-7.92,43-3.23-22.45C288,94.43,289.35,104.06,293.88,109.18Zm43.78,1.71a31.71,31.71,0,0,0,8.94-21.32Z"/><path class="cls-1" d="M397.32,152.72c2.2,2,2.24,2.52.05,3.88a29.09,29.09,0,0,1-3.16,1.5C393.32,154.89,393.32,154.89,397.32,152.72Z"/><path class="cls-1" d="M399.79,141.91a32.25,32.25,0,0,1,2.63-4,2.12,2.12,0,0,1,2.11-.06,2.21,2.21,0,0,1,.32,2.14,7,7,0,0,1-4.2,2.7Z"/><path class="cls-1" d="M397.29,150c-.54-2.73.88-4.7,2.8-4.34a2.11,2.11,0,0,1,1.21,1.12,1.34,1.34,0,0,1-.26,1.28C399.88,148.79,398.62,149.35,397.29,150Z"/><path class="cls-1" d="M213,196.92c-1.91-.32-2.37-1.28-1.79-2.16a16.65,16.65,0,0,1,3.1-3.29,1.58,1.58,0,0,1,1.55.14c.43.44.93,1.54.72,1.77C215.43,194.75,214.06,195.94,213,196.92Z"/><path class="cls-1" d="M210.51,205.77c-.24-.39-.9-1-.95-1.6-.09-1.19,2.66-3.74,3.6-3.36a2.82,2.82,0,0,1,1.49,1.7C214.94,203.67,212.43,205.78,210.51,205.77Z"/><path class="cls-1" d="M216.49,176.53a5.38,5.38,0,0,1-1.15-1.51c-.32-.94,2.13-3.67,3.3-3.55a2.35,2.35,0,0,1,1.6,1.43C220.61,174.24,218.52,176.37,216.49,176.53Z"/><path class="cls-1" d="M220.88,161.19c2.4,2.81,1.67,4.4-2.21,5.5C217.54,164.17,219.16,162.8,220.88,161.19Z"/><path class="cls-1" d="M217.92,182.44c-.11,1.66-2,3.7-2.73,3.26s-1.49-1.64-1.29-2a8.06,8.06,0,0,1,2.44-2.63C216.46,180.93,217.53,182.08,217.92,182.44Z"/><path class="cls-1" d="M207.73,221.44c-.26-.34-.89-.8-1-1.35-.19-1.23,2.07-3.6,3.11-3.27a2.07,2.07,0,0,1,1.11,1.51C211.08,219.46,209.06,221.46,207.73,221.44Z"/><path class="cls-1" d="M208.7,213.4c-.2-.32-.9-.94-.86-1.5a2.56,2.56,0,0,1,2.69-2.28c.42,0,1.23,1,1.29,1.62C212,212.61,210.72,213.53,208.7,213.4Z"/><path class="cls-1" d="M234.66,398.42c1.36-.88,1.73-3.22,3.81-1.79,1.17.8.71,1.85-.17,2.71C236.93,400.66,235.83,400.4,234.66,398.42Z"/><path class="cls-1" d="M137.69,144.29c-4.08-3-7.84-5.93-9.21-10.66a98.74,98.74,0,0,1-3.16-14.28,23.43,23.43,0,0,1,.87-8.38,40.92,40.92,0,0,1,7-14.71c2.26-3,4.79-5.9,7.29-8.76,1.84-2.11,3.75-2.45,5.84-.77,3.95,3.17,8.19,6.15,11.46,9.95a37.33,37.33,0,0,1,8.86,17.6,35.29,35.29,0,0,1,.91,4.89c.22,5.83-1.92,10.82-5.56,15.31-2.59,3.19-6.08,5.12-9.56,7.35-.83,10.85-1.71,21.78-2.49,32.73-.7,9.84-1.41,19.68-1.89,29.54-.43,8.78-.24,17.6-.88,26.36-.84,11.49-.43,23-1.31,34.48-.52,6.8-.6,13.63-1.07,20.44-.38,5.54-1.11,11.07-1.58,16.6-.7,8.07-1.33,16.16-2,24.24-.39,5.06-.66,10.14-1.11,15.19-.58,6.51-1.35,13-1.93,19.5-.28,3.1-.2,6.23-.45,9.34-.33,4-1.22,4.89-5.2,5.41-.57,1.14-1.15,2.33-2.85,2.41-3.28.16-5.2-1.5-5.23-5-.05-5.17.16-10.34.08-15.51-.07-4.59-.59-9.17-.56-13.75.06-8.89.3-17.78.57-26.66.25-7.91.42-15.83,1-23.72.9-11.58,1.57-23.2,3.56-34.68,1.39-8,2.49-16,3.59-24q1.78-13.06,3.27-26.17c.38-3.3.28-6.64.57-10,.33-3.79,1-7.56,1.27-11.35.72-11.1,1.3-22.2,1.89-33.31.05-1,.11-2.23-.42-2.83C137.49,149,137.84,146.51,137.69,144.29ZM130.25,373.9l1-.2c3.23-.68,3.51-.93,3.82-4.12.38-4,.66-8,1-12,.66-7.89,1.28-15.78,2-23.66,1.47-16.44,3.08-32.87,4.45-49.32.59-7.09.7-14.21,1.05-21.32.19-3.9.52-7.79.64-11.69.11-3.42-.09-6.85,0-10.26.24-7.22.61-14.44.91-21.67.33-8.09.65-16.19,1-24.37-2.22,1.52-3,1.62-4.11.57a2.87,2.87,0,0,1-.6-3.71c.87-1.35,2.08-1.35,4.87,0,1-3.31,2.51-37.06,1.78-40.29h-5.54l-4.29,56.64c1.78-.55,3.19-1.63,4.34.14a2.33,2.33,0,0,1-.1,3c-1.42,1.66-2.95.72-4.68-.43-.8,6.86-1.46,13.36-2.33,19.82q-1.58,11.76-3.44,23.49c-2.06,13-2.94,26.2-4.08,39.34-.14,1.61,0,3.23,0,4.89,1.31-.36,2.49-1.36,3.53.13a2.58,2.58,0,0,1-.09,3.26c-1.19,1.59-2.4.18-3.73-.28-.29,6.92-.63,13.62-.83,20.33-.15,5.08-.07,10.16-.14,15.24,0,3.51-.28,7-.24,10.53.06,4.87.29,9.74.47,14.61.13,3.41.19,6.83.47,10.23.12,1.44.61,2.94,2.7,2.95Zm13.8-235.83.86.34a18.45,18.45,0,0,0,2.68-3.34A41.76,41.76,0,0,0,152,113.52a80.67,80.67,0,0,0-2.24-12.37,63.75,63.75,0,0,0-2.86-7.92c-.17-.43-.65-.73-1.52-1.65Zm7.33-5.2a17.65,17.65,0,0,0,1.48-1.09c2.8-2.67,4-6.16,5-9.78s.7-7.55.65-11.36c-.07-5.69-2.4-10.37-6.2-14.43a15.41,15.41,0,0,0-1.78-1.35,107.82,107.82,0,0,1,3.64,19C154.86,120.29,152.8,126.31,151.38,132.87Zm-4,6.63.54.69c7.7-2.58,13.65-7.19,16.11-15.3,1.95-6.43-.15-15.93-3.5-18.54.1,3.54.45,7.24.26,10.9-.4,7.61-2.89,14.26-9.55,18.78A36.43,36.43,0,0,0,147.4,139.5Zm-5.86.25a17.84,17.84,0,0,0,.43-2.27c.19-6.72.33-13.45.53-20.17.14-4.67.37-9.33.52-14,.06-1.77,0-3.55,0-5.47-.37.27-.61.35-.65.49a90.48,90.48,0,0,0-4,23.5,47.31,47.31,0,0,1-.09,5.27c-.56,4,.74,7.72,1.94,11.42C140.34,138.88,140.85,139.12,141.54,139.74ZM137.62,98.5c-.78.66-1,.79-1.16,1-3.34,6.35-4.65,13.44-7.25,20.06a2,2,0,0,0-.1.58,29.15,29.15,0,0,0,2.23,14.31,6.36,6.36,0,0,0,2.65,3.38,36.39,36.39,0,0,0-1.35-3.87,13.89,13.89,0,0,1-1.16-3.89c-.34-8,.37-15.78,3.32-23.29C135.76,104.29,136.53,101.7,137.62,98.5Zm-.48,38.42c-.38-2.27-.86-4.53-1.1-6.82a38,38,0,0,1,0-5c.11-4.18.07-8.36,1.13-12.47a50.41,50.41,0,0,0,.81-6c-.44.12-.59.11-.62.17a49,49,0,0,0-3.47,22.86A12.72,12.72,0,0,0,137.14,136.92Zm-9.41-22.13.85.19c1.35-2.58,1.71-5.42,2.32-8.2l-.76-.21Z"/><path class="cls-1" d="M130.7,353.37a2.76,2.76,0,0,1,2.91,2.31,3.3,3.3,0,0,1-3.1,2.89,2.59,2.59,0,0,1-2.45-2.72A2.46,2.46,0,0,1,130.7,353.37Z"/><path class="cls-1" d="M134,281.53a3,3,0,0,1,2.73,2.51,2.1,2.1,0,0,1-2.19,2.2,2.45,2.45,0,0,1-2.72-2.4A2.33,2.33,0,0,1,134,281.53Z"/><path class="cls-1" d="M136.62,264.5a9.68,9.68,0,0,1,1.67-1.06c1.79-.63,2.8,0,3.09,1.91.2,1.32-.46,3-1.35,2.85a4.34,4.34,0,0,1-2.3-1.38A8.75,8.75,0,0,1,136.62,264.5Z"/><path class="cls-1" d="M133.7,323.22a2.8,2.8,0,0,1-2.84-2.16,2.18,2.18,0,0,1,1.71-2.32c1-.06,2.49,1.17,2.27,2.12A10.52,10.52,0,0,1,133.7,323.22Z"/><path class="cls-1" d="M139.3,249.66c-.37.3-1,1.1-1.73,1.29-1.07.27-2.22-1.06-2.15-2.19a2,2,0,0,1,2.14-1.88C138.72,247,139.39,247.82,139.3,249.66Z"/><path class="cls-1" d="M138.62,231.68c1.38.41,2.84-1.28,3.68.69a2.55,2.55,0,0,1-1.5,2.79C139.65,235.33,138.78,234.11,138.62,231.68Z"/><path class="cls-1" d="M133.38,339.63c-1.39,0-2.64-1.07-2.37-2a2.35,2.35,0,0,1,1.48-1.34c.95-.23,2,1,1.79,2.09C134.18,338.93,133.6,339.35,133.38,339.63Z"/><path class="cls-1" d="M141,300.34c-1.23.72-1.9,1.43-2.54,1.41-1.19,0-1.46-1.21-1.35-2.15,0-.36,1-.95,1.47-.85C139.27,298.91,139.85,299.55,141,300.34Z"/><path class="cls-1" d="M131.07,367.76c1.48-1.72,2.56-2.11,3.14-1.07a2.33,2.33,0,0,1-.21,2.22C132.59,370,131.81,368.78,131.07,367.76Z"/><path class="cls-1" d="M144.13,166.25a9.69,9.69,0,0,1,1.43,2.46c.15.87-.51,1.4-1.43,1.37a1.52,1.52,0,0,1-1.48-1.76C142.68,167.76,143.38,167.25,144.13,166.25Z"/><path class="cls-2" d="M59.43,168.51c0-3.51-.06-7,0-10.54.12-5.69.34-11.37.48-17.05.12-4.55.2-9.11.27-13.66a3.41,3.41,0,0,0-.28-1.4c-.7-1.56-.68-2,.7-2.93a33.34,33.34,0,0,1,4.51-2.68,23.62,23.62,0,0,0,6.1-4.74,6.32,6.32,0,0,0,1.61-4.63c.15-4.77.3-9.55.36-14.32.09-6.8.11-13.6.17-20.41a10.62,10.62,0,0,0-.73-4.31c-1.1-2.64-.27-5.24.58-7.79s2.7-4.08,4.26-6c1.93-2.32,4.05-4.47,6.08-6.71A20.63,20.63,0,0,0,88.9,38.82c.24-2.9.22-5.83.26-8.75A4.16,4.16,0,0,1,90.24,27a1.26,1.26,0,0,1,2.13,0,2.73,2.73,0,0,1,.5,2.36c-.38,2.56-.65,5.13-1,7.69a18.22,18.22,0,0,1-.52,3.32c-1.41,4.33.2,7.84,2.89,11,1.4,1.67,3,3.18,4.41,4.81,5.54,6.3,6.74,13.32,3.44,21.08a58.1,58.1,0,0,0-2.57,6.89,23.65,23.65,0,0,0-.71,5.41c-.18,4.35-.18,8.71-.34,13.06s-.36,8.7-.68,13a3.75,3.75,0,0,0,1.34,3.32,13.28,13.28,0,0,0,4.74,3c1.65.55,2.13,1.54,1.92,3.22-.3,2.36-.48,4.75-.8,7.11-.27,2-.68,4-1,6a5.52,5.52,0,0,0-.14.83c-.07,3.92-.1,7.84-.19,11.76,0,2-.18,4.06-.26,6.09-.06,1.61-.12,3.23-.16,4.84-.14,6.46-.35,12.92-1.74,19.27A156.63,156.63,0,0,1,96,200.85a16,16,0,0,0-.76,9.28c1.38,6.05.73,12.14,0,18.23-.54,4.31-.91,8.65-1.16,13-.3,5.19-.4,10.38-.56,15.58-.22,6.74-.46,13.47-.61,20.21-.11,5.2-.07,10.4-.15,15.59-.11,6.95-.23,13.9-.43,20.84-.16,5.47-.45,10.94-.7,16.4-.13,3-.23,6-.45,9-.28,3.71-.73,7.4-1,11.11-.22,2.87-.24,5.75-.43,8.62-.26,3.92-.6,7.84-.91,11.76a33.63,33.63,0,0,0-.33,3.77A30,30,0,0,1,87.3,383a16.29,16.29,0,0,0-.51,2.89c-.31,4-1.89,7.6-2.94,11.38s-2,7.74-3.26,11.53a65.78,65.78,0,0,1-3.38,7.9,11.06,11.06,0,0,1-2.2,2.8c-1.35,1.36-2.41,1.18-3.76-.15-2.32-2.29-2.81-5-2.41-8.11a26,26,0,0,0-.15-6.27c-.51-4.25-1.24-8.47-1.81-12.71-1.05-7.86-2-15.73-2.47-23.67-.7-10.8-.88-21.61-1.23-32.42-.24-7.3-.74-14.59-1-21.89-.18-5.9-.07-11.8-.21-17.7-.21-8.64-.53-17.27-.81-25.91A91.61,91.61,0,0,1,62,253.43c.91-5.82,1.52-11.69,2.21-17.54.57-4.81,1.27-9.61,1.57-14.44a26.23,26.23,0,0,0-1.6-11.79,20.27,20.27,0,0,0-2.09-4.11,18.7,18.7,0,0,1-3.13-9.69,134.81,134.81,0,0,1,.32-20.62c.17-2.23,0-4.49,0-6.74Zm2.69-42.2c-.08,1.38-.18,2.42-.19,3.46-.1,6.46-.15,12.91-.28,19.37-.1,4.85-.34,9.69-.44,14.53,0,2.32.19,4.64.1,7-.29,7.93-1,15.85-.56,23.8a20,20,0,0,0,3.1,10.34,20.81,20.81,0,0,1,3.42,8.54,52.08,52.08,0,0,1,.06,14.91c-1,7.44-2.17,14.87-3.13,22.32-.52,4-.91,8.1-1.09,12.16-.16,3.71,0,7.43.1,11.14.2,7.73.5,15.45.68,23.17.14,6,.08,12.08.25,18.12.21,7.3.62,14.6.86,21.9.23,7.08.28,14.18.56,21.26.25,6.24.47,12.51,1.17,18.71,1,9.2,2.48,18.36,3.78,27.54.39,2.78.92,5.52.36,8.35a4.65,4.65,0,0,0,2.39,5.23A25.17,25.17,0,0,0,75,416.22a28.14,28.14,0,0,0,4.21-9.81c2.19-8.18,4.81-16.27,6.34-24.63a30.32,30.32,0,0,0,.89-7.07,22.45,22.45,0,0,1,.17-2.94c.36-4.48.74-9,1.09-13.43.27-3.43.47-6.86.74-10.29.16-2,.49-3.9.61-5.86.27-4.35.5-8.7.67-13,.31-8.21.61-16.42.83-24.64.2-7.72.27-15.45.42-23.18.16-8.07.32-16.15.55-24.22.21-7.58.5-15.16.77-22.74a27,27,0,0,1,.3-2.72c.4-2.92.94-5.82,1.21-8.75a47.24,47.24,0,0,0-.88-13.82,10.18,10.18,0,0,1-.16-3.95,45.36,45.36,0,0,1,2.17-7.87c1.9-4.71,2.85-9.67,4.14-14.54a75.07,75.07,0,0,0,2.1-17.94,40.73,40.73,0,0,1,.19-5.68c.92-5.79-.16-11.65.72-17.44,0-.2,0-.42,0-.63a24.88,24.88,0,0,1,.26-4,42.06,42.06,0,0,0,.95-11,9.34,9.34,0,0,1-2.56,1.67,21.27,21.27,0,0,1-8.37.47c-5.18-.83-10.38-.29-15.57-.36-4-.06-8,0-11.88-1.14A20.05,20.05,0,0,0,62.13,126.31ZM74,115.38c2-.11,4-.32,6-.32,4.55,0,9.12-.26,13.54,1.28,1.6.56,2.2.06,2.31-1.66.23-3.5.58-7,.59-10.5s1-7.16-.9-10.64c-.66-1.21-1.81-2.37-1.63-4,0-.16-.35-.42-.59-.53-1.7-.8-2.26-2.27-2.65-4-.56-2.52-.8-2.62-3.35-2.79-1.31-.08-1.88-.46-1.71-1.58a2.37,2.37,0,0,0-1.32-2.56,3.3,3.3,0,0,0-3.15-.58c-1.91.61-3.86,1.12-5.89,1.71a14,14,0,0,0-.14,1.4c0,2.74,0,5.47,0,8.21-.1,5.82-.21,11.64-.37,17.46-.08,2.92.36,5.9-.86,8.72C73.83,115.09,73.93,115.24,74,115.38Zm22.09-24,.57-.4c0-.34.07-.68.05-1a23.52,23.52,0,0,1,1.44-8.87c.81-2.24,1.71-4.45,2.66-6.63a12,12,0,0,0,.89-7.13,18.43,18.43,0,0,0-4.61-9.93c-1.31-1.37-2.54-2.82-3.87-4.16a17.4,17.4,0,0,1-3.66-5.59,7.64,7.64,0,0,0-.52-.91c-1.3,1.9-2.39,3.79-3.77,5.44-2.15,2.58-4.46,5-6.78,7.48-2.89,3-3.57,6.72-3.36,10.69.08,1.6.31,3.19.41,4.79s.9,2.21,2.5,1.84c1.23-.29,2.45-.62,3.68-.9a3.66,3.66,0,0,1,3,.59c1.39,1,2.8,1.88,2.63,3.83,3,.23,4.37,1.45,4.76,4.17a3.55,3.55,0,0,0,1.5,2.65c1.15.79,2.26,1.65,2.18,3.29C95.74,90.87,95.95,91.14,96.05,91.4ZM82.5,126.23h8.07a11.91,11.91,0,0,1,.65-1.84,2.27,2.27,0,0,1,2.44-.76c.77.3,1.08,1.06.84,2.1-.09.36-.21.72-.38,1.27,1.32-.1,2.44-.27,3.55-.24,2.59.07,4.1-1.29,5.14-3.57a5.9,5.9,0,0,0-3.9-.86c.26.59.48,1,.64,1.45.23.62.07,1.15-.6,1.33a1.06,1.06,0,0,1-1.45-.8c-.13-.52-.19-1.06-.28-1.58-.49-.1-.83-.21-1.17-.25-2.16-.24-4.32-.46-6.47-.71-3.83-.44-7.65-1-11.49-1.3a22,22,0,0,0-7.69.69c1.08,2.3,1,3.1-.33,3.61s-2.22,0-2.91-2.06a4.45,4.45,0,0,0-3.54,1.79c5.09,2,10.16,1.89,15.23,1.48.67-2.33,1.29-2.91,2.68-2.6C82.71,123.64,83,124.29,82.5,126.23Zm-11-7.37c1.49-.09,3-.14,4.48-.28.93-.09.9-.64.47-1.33A6.61,6.61,0,0,0,71.46,118.86Zm18.48.85c-.14-.71-.23-1.25-.36-1.78a.9.9,0,0,0-1.29-.65,1.43,1.43,0,0,0-.65,1.08C87.59,119.38,87.91,119.54,89.94,119.71ZM81.85,117c-.22,2.13.08,2.4,2,1.92C83.82,116.93,83.82,116.93,81.85,117Zm13.72,2.64c.77,1,.77,1,1.81.38Zm-16-2.61L79,117c-.11.56-.75,1.21.63,1.72Zm13.14,1.61.23,1.83C93.93,119.49,93.36,119,92.71,118.6Z"/><path class="cls-2" d="M86,67.93l1.2.74a3,3,0,0,0,.36-.52,8.68,8.68,0,0,0,.58-4.31,50.31,50.31,0,0,1,0-5.16A10.68,10.68,0,0,1,87,58.52,1.4,1.4,0,0,1,85.75,57a2.24,2.24,0,0,1,1.18-1.54,2.05,2.05,0,0,1,1.76.68c1,1.34,1,3,1,4.62,0,1.39,0,2.78,0,4.17a10.76,10.76,0,0,1-1.16,5.28c-.47,1-1.11,1.09-1.8.3S85.08,69.3,86,67.93Z"/><path class="cls-2" d="M93.54,66.69c-1.25-1.48-.84-2.83,1.41-5.06l1.4,1.1Z"/><path class="cls-2" d="M95.79,74.31c-.85.88-1.68,1.81-2.61,2.64a1.14,1.14,0,0,1-1.11,0,1.12,1.12,0,0,1-.2-1.08,22.24,22.24,0,0,1,2.46-2.54C94.66,73.06,94.8,73.2,95.79,74.31Z"/><path class="cls-2" d="M88.92,50l1.21,1.41c-.86.73-1.55,1.41-2.33,2-.27.19-1,.2-1.09,0-.22-.34-.39-1.06-.2-1.28A24.85,24.85,0,0,1,88.92,50Z"/><path class="cls-2" d="M81.06,66.48l-3.29,2.68c-.9-.51-1.42-1.09-.66-1.85a7.39,7.39,0,0,1,2.24-1.42C79.63,65.76,80.14,66.14,81.06,66.48Z"/><path class="cls-2" d="M95.59,68.07c0-1.4,1.18-2.08,1.9-3,.12-.15,1,.27,1.52.43C98,67.75,97.24,68.27,95.59,68.07Z"/><path class="cls-2" d="M97.36,77.92a20.59,20.59,0,0,1-2.05,1.86,1.24,1.24,0,0,1-1.2,0,1.34,1.34,0,0,1,0-1.26,7.28,7.28,0,0,1,1.5-1.42C96.49,76.36,97,76.79,97.36,77.92Z"/><path class="cls-2" d="M82.68,59.56C80.84,62,80.1,62.31,79,61,80.72,58.5,81.31,58.24,82.68,59.56Z"/><path class="cls-2" d="M98.3,72.82c-.39-.44-.78-.69-.85-1a2.77,2.77,0,0,1,1.74-2.57,1.44,1.44,0,0,1,1.07.34,1,1,0,0,1,0,.92C99.66,71.26,99,72,98.3,72.82Z"/><path class="cls-2" d="M91.67,72.88c-.55-1.21-.2-2.81.74-3.27a1.37,1.37,0,0,1,1.12.14.94.94,0,0,1,.27.88C93.36,71.55,93,72.61,91.67,72.88Z"/><path class="cls-2" d="M86.9,63.49c-2.22,1.87-2.55,1.91-3.52.49C85.82,62,85.82,62,86.9,63.49Z"/><path class="cls-2" d="M93.69,56.21l-2.26,2c-.27-.34-.74-.67-.77-1-.07-1,1-2.07,1.74-1.9C92.78,55.36,93.09,55.76,93.69,56.21Z"/><path class="cls-2" d="M96.15,58.1l.93,1.37-2.17,1.69C94.25,59.36,94.25,59.36,96.15,58.1Z"/><path class="cls-2" d="M79.62,71.8a15.38,15.38,0,0,1,2.07-1.13c.59-.22,1.25.51.9.91a5.21,5.21,0,0,1-1.77,1.3c-.26.12-.76-.31-1.16-.5Z"/><path class="cls-2" d="M88.3,74.74c-.5.88-.71,1.73-1.68,1.57-.27,0-.71-.64-.64-.86A2.41,2.41,0,0,1,86.86,74C87.13,73.87,87.77,74.45,88.3,74.74Z"/><path class="cls-2" d="M95.21,84.61c-.2-.32-.58-.67-.63-1.07-.09-.75.86-1.6,1.46-1.33a1.16,1.16,0,0,1,.55.93A1.42,1.42,0,0,1,95.21,84.61Z"/><path class="cls-2" d="M85.92,122.73c.74.29,1.71.31,1.7,1.42,0,.33-.38.91-.64.94a1.88,1.88,0,0,1-1.47-.35C85,124.08,85.14,123.33,85.92,122.73Z"/><path class="cls-2" d="M75.87,120.94c1,.54,1.82,1,1.48,2.09a1.17,1.17,0,0,1-1.77.36C74.61,122.56,75.25,121.84,75.87,120.94Z"/><path class="cls-2" d="M404.06,33.39c4.54-2.91,9.33-2.53,14-2.21,6.7.46,13.43,1.07,20,2.18a77.46,77.46,0,0,1,15.61,4.15c3.6,1.43,6.78,4.08,9.89,6.51,5.3,4.14,11,7.91,14.91,13.56,2.25,3.26,4.15,6.75,6.19,10.15.37.62.63,1.3.95,2,.65,1.32,2.12,2.91,1.8,3.9A20.82,20.82,0,0,1,483.68,80,53.24,53.24,0,0,1,471,91.19c-11.34,7.25-22.35,15-33.63,22.36-4.42,2.88-9.22,5.17-13.82,7.78a4.63,4.63,0,0,0-1.43,1.47,51.21,51.21,0,0,0-5.46,10.07c-1.54,4-4.24,7.55-6,11.49-3.83,8.67-7.31,17.49-11.08,26.18-2.91,6.72-6,13.36-9.05,20-4.24,9.17-8.22,18.47-12.91,27.41-5.72,10.91-9.93,22.42-14.75,33.69-4.5,10.5-9.5,20.78-14.1,31.23-3.49,7.93-6.57,16-10,24-3.28,7.49-6.81,14.86-10.29,22.26-2.77,5.87-5.67,11.68-8.43,17.55-1.48,3.15-2.83,6.37-4.2,9.57q-6.73,15.76-13.42,31.53c-3.94,9.29-7.93,18.55-11.71,27.91-1.93,4.79-3.44,9.75-5.13,14.63a7.75,7.75,0,0,1-.37,1.39c-2.61,4.43-3.33,9.58-5.37,14.23-1.65,3.74-4.92,5.29-8.09,3.53a3.19,3.19,0,0,1-1.55-2.11,22.39,22.39,0,0,1,.28-6.44,133.33,133.33,0,0,1,9.79-27c3.86-7.94,6.52-16.29,10-24.35,4.43-10.27,8.5-20.69,12.77-31,1.84-4.44,3.79-8.83,5.69-13.24,3.5-8.18,7.07-16.33,10.47-24.54,5.89-14.21,11.69-28.47,17.51-42.71,7.61-18.6,15.31-37.16,24.8-54.91,1.64-3.06,2.79-6.39,4.3-9.52,3.91-8.12,8.06-16.13,11.82-24.33,3.15-6.89,5.94-13.94,8.78-21q7.23-17.9,14.27-35.87c.91-2.33,1.1-4.93,1.84-7.34,1.06-3.44,2.41-6.79,3.44-10.24a14.72,14.72,0,0,0,.64-4.93c-.53-9.5-1.26-19-1.79-28.48-.42-7.57-.67-15.14-1-22.72-.2-5.17-.49-10.35-.49-15.52C403.34,39.94,403.8,36.71,404.06,33.39ZM281.29,434.53c2-4.9,4.33-9.31,5.42-14,1.47-6.32,4.9-11.74,7-17.75s5-11.42,7.5-17.16c2.62-6.07,5-12.25,7.72-18.29q8.71-19.41,17.65-38.71c5.72-12.34,11.48-24.65,16.53-37.3,4-10,8.45-19.94,13.09-29.71,6.86-14.45,12-29.64,19.32-43.9,6.34-12.28,11.86-25,17.61-37.56,2.4-5.25,4.49-10.64,6.66-16,2.9-7.14,5.68-14.32,8.61-21.44,1.36-3.31,3-6.53,4.63-10.21l-8-3c-2.76,6.87-5.37,13.44-8,20q-5.09,12.53-10.25,25c-1.28,3.11-2.44,6.28-3.86,9.32-3.37,7.18-6.9,14.3-10.32,21.46-2.81,5.86-5.51,11.77-8.35,17.61-3.84,7.89-8.08,15.61-11.57,23.65-5.5,12.68-10.47,25.59-15.74,38.37-4.49,10.89-9.06,21.74-13.63,32.59q-10.35,24.61-20.74,49.2c-.48,1.14-.92,2.31-1.67,4.2l3.89-2.55c1.62,1,2.05,2,.95,3.36-1.43,1.73-3.13,1.94-5.21.68l-2.13,5.42,3.23-.82c.82,3.36-.94,4.89-5.09,4.59l-1.82,4.34c1.32.08,2.49-1.4,3.36.16.64,1.15-.11,2.81-1.72,3.5a18.5,18.5,0,0,1-3.45.75,7.84,7.84,0,0,0-.52.9c-3.57,8.4-7.27,16.76-10.66,25.24-2.22,5.54-4,11.26-6.17,17.47l3.45-1.89ZM417,33.86c0,1.59,0,2.65,0,3.71-.06,3.23,0,6.47-.25,9.69-.29,4-1.07,8.07-1.19,12.11-.2,6.85-.05,13.71,0,20.56q0,15.52.05,31a13.19,13.19,0,0,0,.34,2.09l.75,0c.51-3.4,1.06-6.8,1.52-10.2,1.37-10,2.68-20,4.06-30,1-7.51,2.23-15,3.21-22.51.66-5.09,1.08-10.21,1.67-15.87Zm13.69,1.25c-3.15,12.13-9.39,58.65-8.52,63.08,2.24-3.73,15.13-58.58,14.6-62.51Zm15.15,56.57.56.51a13.33,13.33,0,0,0,1.25-1q10.44-10.47,20.85-21c2-2.05,3.89-4.26,5.9-6.33.9-.93,1.95-1.71,3.12-2.73a30.39,30.39,0,0,0-9.13-9.69c-5.1,9.9-12.13,18.15-18.14,27.06s-12.37,17.57-18.58,26.34a29.41,29.41,0,0,0,6.2-6.26c7.37-10.27,15.4-20,23.65-29.57,3.06-3.54,6-7.18,8.84-10.92.78-1,1.36-1.78,2.51-1a1.86,1.86,0,0,1,.47,2.84c-.8,1.05-1.66,2.06-2.54,3-5.64,6.23-11.36,12.4-16.92,18.7C451.08,84.94,448.53,88.37,445.86,91.69Zm-7.93,13.8.74.82c4.92-3,10-5.74,14.73-8.9,7.21-4.77,14.25-9.78,21.33-14.75,2.45-1.72,4.88-3.51,7.16-5.45,2.58-2.2,2.65-3.69.51-6.48C467.46,82.17,452.16,93.15,437.94,105.49Zm-9.48-.83a503.27,503.27,0,0,0,37.88-55l-3.58-3C449.91,65.52,441.09,86.23,428.46,104.66ZM413.6,34.12c-1.75-.21-2.21.46-2.35,1.77-.45,4.18-1.1,8.34-1.47,12.53a68,68,0,0,0-.23,9c.36,7.92,1,15.82,1.34,23.73.27,5.77.28,11.54.53,17.31.11,2.53.54,5,.82,7.57L413,106c-.11-2-.35-4-.3-6,.11-4.09.53-8.17.54-12.26,0-14.82-.11-29.63,1.29-44.41C414.84,40.32,414,37.21,413.6,34.12Zm42.26,7.63c-3.25,6.12-6.48,11.75-9.25,17.59s-5.19,12.14-7.79,18.21c-2.49,5.81-6.61,10.9-8.2,18,3.47-4.12,27.7-47.26,28.92-51.23-.69-.57-1.39-1.23-2.16-1.79A9.78,9.78,0,0,0,455.86,41.75Zm-28.1,44.94c4.62-7.46,6.74-15.88,9.73-24s5.81-16.35,8.81-24.8l-5.85-1.28Zm5.34-3.64c4-5.19,6.09-11.31,8.56-17.24,1.52-3.65,3.06-7.3,4.7-10.9,2.17-4.79,4.45-9.54,6.78-14.54L450,39C442.65,53.19,438.66,68.42,433.1,83.06ZM479.26,63.4,452.61,89.09l.59.65,28.46-22.3ZM407.88,87.23l.78,0c.06-1.05.19-2.11.18-3.16q-.15-9.35-.37-18.69a11.12,11.12,0,0,0-.21-2.15c-1.29-5.81-1.06-11.61-.35-17.48.35-2.86.8-5.84-.41-8.69A38.17,38.17,0,0,0,406,50c.26,5.87.29,11.74.6,17.6C406.91,74.17,407.44,80.7,407.88,87.23Zm-2.35,39c2.64,1.14,4.67,2.16,6.81,2.86a2.91,2.91,0,0,0,2.52-.56,12.93,12.93,0,0,0,3.22-5.71c-4.08.89-7.43.21-10.35-2.82ZM279.17,441.82l-5.76,1.86a5,5,0,0,0-.08,1.73c.17.72.55,1.75,1.09,1.94a2.36,2.36,0,0,0,2.14-.68A45.28,45.28,0,0,0,279.17,441.82Zm145.9-324.54a58.73,58.73,0,0,0,13-7.65A34.9,34.9,0,0,0,425.07,117.29ZM279.57,436.2l-5.08,1.24-.6,2.74,5.41-2.12Z"/><path class="cls-2" d="M201.28,63.58c5.94,0,11.17,1.39,16.48,2.46,6.71,1.34,13.52,2.19,20.25,3.42a93.39,93.39,0,0,1,11.91,2.73c6.18,2,12.23,4.36,18.31,6.63,2,.73,2.23,1.6,1.47,3.68-1.16,3.16-2.14,6.4-3.52,9.46-2.67,5.94-3.07,12.35-4.24,18.61-.51,2.71-1.09,5.42-1.62,8.13-.2,1-.37,2.1-.53,3.06,3.22,1.91,3.18,2,3,5.47a29.8,29.8,0,0,1-5.17,14.82,8.23,8.23,0,0,1-6.91,3.91c-5.05.08-10.1.1-15.15.16-.7,0-1.41.07-2.26.11-1.71,8.6-3.49,17.08-5.06,25.59-2.21,11.94-4.2,23.93-6.42,35.87-1.8,9.68-3.87,19.31-5.67,29-1,5.43-1.65,10.92-2.55,16.37-.7,4.24-1.57,8.46-2.28,12.7-1.82,10.92-3.4,21.88-5.43,32.76-1.61,8.63-3.68,17.17-5.66,25.72-1.57,6.79-3.27,13.55-5,20.31-1.05,4.2-2.23,8.36-3.33,12.54q-3,11.51-6,23c-.43,1.63-.77,3.29-1.32,4.88-1.22,3.53-1.18,7.23-1.57,10.87-.07.67-1,1.87-1.19,1.81-1.88-.57-3.4.48-5.08.79-3,.56-5.24-2.62-4.24-5.6a18.32,18.32,0,0,0,1.12-4.9c.3-6.66,1.89-13.07,3.33-19.52,1.34-6,2.73-12,4.11-17.93q3.76-16.33,7.52-32.65c3.64-15.71,6.75-31.53,9-47.51,1.55-11.06,2.69-22.19,4.48-33.21,1.5-9.24,3.68-18.38,5.58-27.56.83-4,1.79-8,2.57-12,2.67-13.69,5.36-27.38,9.19-40.81,1-3.57,1.91-7.2,1.51-11.17-.83-.17-1.62-.39-2.42-.5-3.79-.53-7.64-.8-11.38-1.6a9.79,9.79,0,0,1-7.3-6.82A41.6,41.6,0,0,1,198,126.49c-.24-3.92.1-7.88.23-11.82,0-.58.09-1.47.44-1.66,2.18-1.17,1.86-3.23,1.89-5.08.13-9,.14-18.08.27-27.12C200.87,75.19,201.11,69.57,201.28,63.58Zm23.63,82.2L220.82,162c-2,8-4.16,16-6,24.09-1.92,8.31-3.33,16.74-5.37,25A377.42,377.42,0,0,0,202,253c-1.62,12.52-3.11,25.08-5.31,37.5-2.37,13.38-5.41,26.65-8.32,39.93-2.26,10.33-5,20.56-7.12,30.91-2,9.89-3.62,19.87-5.4,29.82-.25,1.41-.52,2.83.91,4,2.55-1.41,3.56-3.64,4.19-6.29,1.31-5.48,2.75-10.93,4.25-16.37,1.86-6.72,4-13.38,5.72-20.13,2.31-8.84,4.36-17.74,6.58-26.6,3.08-12.26,6-24.53,7.69-37.1,1.16-8.82,2.71-17.59,4.24-26.36,2.29-13,4.73-26,7.08-39,1.16-6.39,2.24-12.79,3.39-19.19.8-4.5,1.69-9,2.48-13.48,1.41-8.06,2.76-16.12,4.14-24.18,1-5.8,2-11.6,3-17.41a24.72,24.72,0,0,0,0-3.67Zm-12-78.28c-1.65-.27-2.93-.53-4.22-.69-3.43-.41-4.34.23-4.65,3.73s-.48,7.19-.59,10.79c-.23,7.81-.39,15.61-.54,23.42-.05,2.62,0,5.24,0,8.24l7,.38C211.5,98,213.17,82.86,212.95,67.5ZM228.86,117l7.28-45.3-7.83-1.07a24.24,24.24,0,0,0-.83,2.69c-1.3,7.45-2.7,14.89-3.79,22.37-.95,6.51-1.54,13.07-2.32,19.93Zm9.89.68,8.32-44.08c-1.87-.41-3.38-.78-4.9-1-2.34-.41-2.8-.17-3.32,2.06-.44,1.87-.61,3.8-1,5.69-1.67,9-3.39,18-5,27-.57,3.15-1,6.33-1.47,9.76ZM216.4,68.12c-1.25,13.49-2.46,26.42-3.64,39.36-.57,6.26-.55,6.26,5.62,7.28.18,0,.4-.16.75-.32L224.66,70Zm31.09,51.4c1-3,2.13-5.65,2.79-8.39,1.79-7.34,3.44-14.72,5-22.1.85-3.94,1.5-7.93,2.24-11.93-1.24-.48-2.24-.85-3.23-1.24s-2.17-.88-3.7-1.51c-4.3,14.41-6.9,28.94-9.41,43.55Zm13.43-41.34c-.7,2.8-1.11,5-1.81,7.18a171.87,171.87,0,0,0-6.59,25.7c-.51,3.09-.6,6.41-3.37,9.25l7.31,1.42c2.78-7,3.24-14,4.75-20.72s3.39-13.41,5.17-20.38Z"/><path class="cls-2" d="M308.48,135.19a40.21,40.21,0,0,1-4.52-1.66c-3.67-1.91-4.65-5.49-4.79-9.14A19.92,19.92,0,0,0,297.4,116c-.62-1.25-1.2-2.57-.5-4.13a3,3,0,0,0-.46-2.27c-7.64-12.85-6.68-25.57.2-38.41a46.15,46.15,0,0,1,14.09-16.13c4.7-3.35,10-4.36,15.48-5.51,6-1.26,11.19.14,16.09,3.43a7,7,0,0,1,1.92,1.63c4.43,6.42,9.2,12.58,9.64,21a75.33,75.33,0,0,1-.42,15.45c-1.29,8.41-5.56,15.23-11,21.49-1.74,2-3.46,4-5.61,6.53.37,1.4-.5,3.46-1.73,5.46-1.74,2.84-2.52,6.23-5.42,8.4-2.18,1.63-4.38,3-7.15,3a3.21,3.21,0,0,0-3.56,2.7c-2.2,7.62-4.67,15.16-7,22.74-2.51,8-5.2,16-7.47,24.14s-4.18,16.55-6.23,24.83c-.12.47-.08,1-.23,1.42-3.88,10.94-5,22.53-8,33.68-2.4,8.95-4.52,18-7.11,26.85-1.68,5.75-4,11.33-6,17a392.65,392.65,0,0,0-13.14,42.38c-1.89,7.84-4.43,15.51-6.46,23.32-2.81,10.81-5.42,21.66-8.11,32.5-.81,3.26-1.42,6.59-2.44,9.78-.94,3-2.37,5.78-3.47,8.7-.85,2.25-1.47,4.58-2.31,6.83a4.48,4.48,0,0,1-4.16,2.94c-1.69-.14-3.15-.95-3.54-2.6a24.65,24.65,0,0,1-.42-5.33c-.07-6,1.76-11.67,3.58-17.24,5.77-17.72,10.35-35.76,15.08-53.77,2.38-9.07,5-18.07,7.63-27.07,4-13.84,8.17-27.65,12.23-41.49s8.11-27.67,12.06-41.54c2.47-8.67,4.65-17.42,7.1-26.09,3-10.64,6.15-21.24,9.23-31.86,2.34-8.08,4.76-16.14,7-24.25C307.52,141.5,307.88,138.38,308.48,135.19Zm-59.2,239.74c-1.75.06-3.32,2.24-5.48-.31-2.51,9.83-4.91,19-7.16,28.2a29.45,29.45,0,0,0-.49,6.1,9.37,9.37,0,0,0,.56,2.34c3.24-.6,2.29-3.38,2.87-4.2-.46-1.76-1.1-2.84-.9-3.75.35-1.66,1.67-2.08,3.06-1.25,3.58-5.1,3.18-11.09,5.13-16.4-3.52,2.38-3.52,2.38-5-.51.76-.68,1.45-1.71,2.38-2s2.12.1,3.28.2q.81-4.23,1.62-8.49a158,158,0,0,0,5.4-19.53c-1.5-.33-3.58.08-3.24-2s2.34-2,4-1.85l2.95-9.88c-2.93,2.7-4.28,1.09-5.64-.51.8-.45,1.84-.7,2.35-1.37,1.3-1.73,2.57-1,3.9,0l1.86-5.93a5.59,5.59,0,0,1-1.47.27c-.73-.15-1.87-.23-2.05-.66a2.4,2.4,0,0,1,.52-2.17,43.2,43.2,0,0,1,4.39-3.12c.13-.41.5-1.43.76-2.48,3.09-12.65,7.55-24.85,12-37.06A381.88,381.88,0,0,0,292,224.13a16.66,16.66,0,0,1,.53-2.84c3.35-9.18,4.58-18.9,7.27-28.24,2.06-7.17,3.55-14.53,6.12-21.51,4.25-11.54,6.35-23.62,10.07-35.71l-4-.55c-.33,1.12-.55,1.8-.73,2.49-2,7.8-3.88,15.65-6.11,23.39-2,6.91-4.77,13.57-6.5,20.6-2.33,9.44-5.42,18.7-8.16,28s-5.53,18.92-8.26,28.39c-2.06,7.16-4,14.36-6.11,21.51-4.57,15.45-9.35,30.84-13.81,46.32-3,10.39-5.59,20.9-8.4,31.35-.33,1.24-.86,2.43-1.27,3.64-.61,2.67-1.18,5.35-1.85,8-1.1,4.39-2.27,8.76-3.31,12.77,1.33.31,2.41.31,3.11.83.34.25.23,1.6-.12,2.2-1,1.61-2.4.91-3.85.06l-2.17,8.64,3.13-1.09ZM331.65,51.51c-.22,2.92-.29,5.07-.56,7.18-.85,6.55-1.87,13.08-2.66,19.64-1,8.59-1.92,17.21-2.88,25.81-.34,3.11-.68,6.21-1.07,9.31-.13,1-.57,2.05-1.8,1.61-.41-.15-.71-1.34-.63-2,.79-6.57,1.71-13.13,2.5-19.7.72-6,1.33-11.95,2-17.92.67-6.34,1.33-12.67,1.94-19,.13-1.38,0-2.78,0-4.17l-.77-.43c-.67.5-1.6.87-2,1.55A8.75,8.75,0,0,0,325,56.5c-.71,6.58-1.28,13.17-2.08,19.73-1.13,9.3-2.48,18.58-3.6,27.89-.49,4-.67,8.08-1,12.18l8.41.79c5.53-20.82,8-42.17,12-63.62ZM301.22,117c.5,3.43.83,6.64,1.47,9.78.48,2.36,1.85,4.4,4.41,4.67,4.66.51,9.35.79,14,1,6,.22,9.24-3.17,11.14-10.66Zm28.55.94c2.76-.72,2.59-2.86,3.11-4.43.83-2.5,1.35-5.11,2-7.66,2.1-7.65,4.32-15.26,6.32-22.94,1.66-6.39,3.08-12.85,4.58-19.28a2.91,2.91,0,0,0,.1-1.69,14.29,14.29,0,0,0-4-5.64,13.67,13.67,0,0,0-.9,2.08c-.67,2.8-1.32,5.6-1.91,8.42-1.25,6-2.5,12-3.67,18-1.51,7.77-3,15.54-4.4,23.33C330.49,111.23,329.2,114.3,329.77,117.92Zm-16.08-2.51c1.84.63,2.36-.6,2.57-2,.25-1.66.22-3.36.45-5,1.91-13.66,3.95-27.31,4.72-41.11.21-3.69.45-7.39.71-11.62C319.42,60.22,312.66,109.4,313.69,115.41Zm34.72-48.56-13.12,46.68a109.86,109.86,0,0,0,7.45-14.45c2.61-6.21,4.71-12.63,7.31-18.84,1.9-4.52.54-8.65-.78-12.86C349.21,67.21,348.88,67.13,348.41,66.84ZM308.8,114.6c1.41.82,2,.13,2.14-1.21.29-2.39.5-4.78.81-7.17.78-6.08,1.61-12.16,2.38-18.24q2.08-16.28,4.11-32.57a5,5,0,0,0-.22-1.21l-1.86.88C314.5,65.26,312.61,75,311.4,84.87S309.64,104.67,308.8,114.6ZM302.33,113c.86-6.24-1.48-38.34-2.94-41.08a11.75,11.75,0,0,0-2.1,7.3c.27,9.66,1.7,19.15,3.22,28.64C300.75,109.41,300.72,111.14,302.33,113Zm10.43-55.75c-2.18.53-3.78,1.65-4,3.48-.4,3-.19,6.15-.34,9.22-.36,7.53-.82,15.05-1.13,22.58-.14,3.46,0,6.93,0,10.63Zm-7,5.94c-1.4,1.25-2.91,2.22-2.87,4.06.18,8.14.45,16.27.74,24.41a20.34,20.34,0,0,0,.51,2.88l.75-.07c.29-5.14.7-10.27.84-15.42S305.8,68.76,305.8,63.18Zm-7.92,43-3.23-22.45C292,91.43,293.35,101.06,297.88,106.18Zm43.78,1.71a31.71,31.71,0,0,0,8.94-21.32Z"/><path class="cls-2" d="M401.32,149.72c2.2,2,2.24,2.52.05,3.88a29.09,29.09,0,0,1-3.16,1.5C397.32,151.89,397.32,151.89,401.32,149.72Z"/><path class="cls-2" d="M403.79,138.91a32.25,32.25,0,0,1,2.63-4,2.12,2.12,0,0,1,2.11-.06,2.21,2.21,0,0,1,.32,2.14,7,7,0,0,1-4.2,2.7Z"/><path class="cls-2" d="M401.29,147c-.54-2.73.88-4.7,2.8-4.34a2.11,2.11,0,0,1,1.21,1.12,1.34,1.34,0,0,1-.26,1.28C403.88,145.79,402.62,146.35,401.29,147Z"/><path class="cls-2" d="M217,193.92c-1.91-.32-2.37-1.28-1.79-2.16a16.65,16.65,0,0,1,3.1-3.29,1.58,1.58,0,0,1,1.55.14c.43.44.93,1.54.72,1.77C219.43,191.75,218.06,192.94,217,193.92Z"/><path class="cls-2" d="M214.51,202.77c-.24-.39-.9-1-.95-1.6-.09-1.19,2.66-3.74,3.6-3.36a2.82,2.82,0,0,1,1.49,1.7C218.94,200.67,216.43,202.78,214.51,202.77Z"/><path class="cls-2" d="M220.49,173.53a5.38,5.38,0,0,1-1.15-1.51c-.32-.94,2.13-3.67,3.3-3.55a2.35,2.35,0,0,1,1.6,1.43C224.61,171.24,222.52,173.37,220.49,173.53Z"/><path class="cls-2" d="M224.88,158.19c2.4,2.81,1.67,4.4-2.21,5.5C221.54,161.17,223.16,159.8,224.88,158.19Z"/><path class="cls-2" d="M221.92,179.44c-.11,1.66-2,3.7-2.73,3.26s-1.49-1.64-1.29-2a8.06,8.06,0,0,1,2.44-2.63C220.46,177.93,221.53,179.08,221.92,179.44Z"/><path class="cls-2" d="M211.73,218.44c-.26-.34-.89-.8-1-1.35-.19-1.23,2.07-3.6,3.11-3.27a2.07,2.07,0,0,1,1.11,1.51C215.08,216.46,213.06,218.46,211.73,218.44Z"/><path class="cls-2" d="M212.7,210.4c-.2-.32-.9-.94-.86-1.5a2.56,2.56,0,0,1,2.69-2.28c.42,0,1.23,1,1.29,1.62C216,209.61,214.72,210.53,212.7,210.4Z"/><path class="cls-2" d="M238.66,395.42c1.36-.88,1.73-3.22,3.81-1.79,1.17.8.71,1.85-.17,2.71C240.93,397.66,239.83,397.4,238.66,395.42Z"/><path class="cls-2" d="M141.69,141.29c-4.08-3-7.84-5.93-9.21-10.66a98.74,98.74,0,0,1-3.16-14.28,23.43,23.43,0,0,1,.87-8.38,40.92,40.92,0,0,1,7-14.71c2.26-3,4.79-5.9,7.29-8.76,1.84-2.11,3.75-2.45,5.84-.77,3.95,3.17,8.19,6.15,11.46,9.95a37.33,37.33,0,0,1,8.86,17.6,35.29,35.29,0,0,1,.91,4.89c.22,5.83-1.92,10.82-5.56,15.31-2.59,3.19-6.08,5.12-9.56,7.35-.83,10.85-1.71,21.78-2.49,32.73-.7,9.84-1.41,19.68-1.89,29.54-.43,8.78-.24,17.6-.88,26.36-.84,11.49-.43,23-1.31,34.48-.52,6.8-.6,13.63-1.07,20.44-.38,5.54-1.11,11.07-1.58,16.6-.7,8.07-1.33,16.16-2,24.24-.39,5.06-.66,10.14-1.11,15.19-.58,6.51-1.35,13-1.93,19.5-.28,3.1-.2,6.23-.45,9.34-.33,4-1.22,4.89-5.2,5.41-.57,1.14-1.15,2.33-2.85,2.41-3.28.16-5.2-1.5-5.23-5-.05-5.17.16-10.34.08-15.51-.07-4.59-.59-9.17-.56-13.75.06-8.89.3-17.78.57-26.66.25-7.91.42-15.83,1-23.72.9-11.58,1.57-23.2,3.56-34.68,1.39-8,2.49-16,3.59-24q1.78-13.06,3.27-26.17c.38-3.3.28-6.64.57-10,.33-3.79,1-7.56,1.27-11.35.72-11.1,1.3-22.2,1.89-33.31.05-1,.11-2.23-.42-2.83C141.49,146,141.84,143.51,141.69,141.29ZM134.25,370.9l1-.2c3.23-.68,3.51-.93,3.82-4.12.38-4,.66-8,1-12,.66-7.89,1.28-15.78,2-23.66,1.47-16.44,3.08-32.87,4.45-49.32.59-7.09.7-14.21,1.05-21.32.19-3.9.52-7.79.64-11.69.11-3.42-.09-6.85,0-10.26.24-7.22.61-14.44.91-21.67.33-8.09.65-16.19,1-24.37-2.22,1.52-3,1.62-4.11.57a2.87,2.87,0,0,1-.6-3.71c.87-1.35,2.08-1.35,4.87,0,1-3.31,2.51-37.06,1.78-40.29h-5.54l-4.29,56.64c1.78-.55,3.19-1.63,4.34.14a2.33,2.33,0,0,1-.1,3c-1.42,1.66-2.95.72-4.68-.43-.8,6.86-1.46,13.36-2.33,19.82q-1.58,11.76-3.44,23.49c-2.06,13-2.94,26.2-4.08,39.34-.14,1.61,0,3.23,0,4.89,1.31-.36,2.49-1.36,3.53.13a2.58,2.58,0,0,1-.09,3.26c-1.19,1.59-2.4.18-3.73-.28-.29,6.92-.63,13.62-.83,20.33-.15,5.08-.07,10.16-.14,15.24,0,3.51-.28,7-.24,10.53.06,4.87.29,9.74.47,14.61.13,3.41.19,6.83.47,10.23.12,1.44.61,2.94,2.7,2.95Zm13.8-235.83.86.34a18.45,18.45,0,0,0,2.68-3.34A41.76,41.76,0,0,0,156,110.52a80.67,80.67,0,0,0-2.24-12.37,63.75,63.75,0,0,0-2.86-7.92c-.17-.43-.65-.73-1.52-1.65Zm7.33-5.2a17.65,17.65,0,0,0,1.48-1.09c2.8-2.67,4-6.16,5-9.78s.7-7.55.65-11.36c-.07-5.69-2.4-10.37-6.2-14.43a15.41,15.41,0,0,0-1.78-1.35,107.82,107.82,0,0,1,3.64,19C158.86,117.29,156.8,123.31,155.38,129.87Zm-4,6.63.54.69c7.7-2.58,13.65-7.19,16.11-15.3,1.95-6.43-.15-15.93-3.5-18.54.1,3.54.45,7.24.26,10.9-.4,7.61-2.89,14.26-9.55,18.78A36.43,36.43,0,0,0,151.4,136.5Zm-5.86.25a17.84,17.84,0,0,0,.43-2.27c.19-6.72.33-13.45.53-20.17.14-4.67.37-9.33.52-14,.06-1.77,0-3.55,0-5.47-.37.27-.61.35-.65.49a90.48,90.48,0,0,0-4,23.5,47.31,47.31,0,0,1-.09,5.27c-.56,4,.74,7.72,1.94,11.42C144.34,135.88,144.85,136.12,145.54,136.74ZM141.62,95.5c-.78.66-1,.79-1.16,1-3.34,6.35-4.65,13.44-7.25,20.06a2,2,0,0,0-.1.58,29.15,29.15,0,0,0,2.23,14.31,6.36,6.36,0,0,0,2.65,3.38,36.39,36.39,0,0,0-1.35-3.87,13.89,13.89,0,0,1-1.16-3.89c-.34-8,.37-15.78,3.32-23.29C139.76,101.29,140.53,98.7,141.62,95.5Zm-.48,38.42c-.38-2.27-.86-4.53-1.1-6.82a38,38,0,0,1,0-5c.11-4.18.07-8.36,1.13-12.47a50.41,50.41,0,0,0,.81-6c-.44.12-.59.11-.62.17a49,49,0,0,0-3.47,22.86A12.72,12.72,0,0,0,141.14,133.92Zm-9.41-22.13.85.19c1.35-2.58,1.71-5.42,2.32-8.2l-.76-.21Z"/><path class="cls-2" d="M134.7,350.37a2.76,2.76,0,0,1,2.91,2.31,3.3,3.3,0,0,1-3.1,2.89,2.59,2.59,0,0,1-2.45-2.72A2.46,2.46,0,0,1,134.7,350.37Z"/><path class="cls-2" d="M138,278.53a3,3,0,0,1,2.73,2.51,2.1,2.1,0,0,1-2.19,2.2,2.45,2.45,0,0,1-2.72-2.4A2.33,2.33,0,0,1,138,278.53Z"/><path class="cls-2" d="M140.62,261.5a9.68,9.68,0,0,1,1.67-1.06c1.79-.63,2.8,0,3.09,1.91.2,1.32-.46,3-1.35,2.85a4.34,4.34,0,0,1-2.3-1.38A8.75,8.75,0,0,1,140.62,261.5Z"/><path class="cls-2" d="M137.7,320.22a2.8,2.8,0,0,1-2.84-2.16,2.18,2.18,0,0,1,1.71-2.32c1-.06,2.49,1.17,2.27,2.12A10.52,10.52,0,0,1,137.7,320.22Z"/><path class="cls-2" d="M143.3,246.66c-.37.3-1,1.1-1.73,1.29-1.07.27-2.22-1.06-2.15-2.19a2,2,0,0,1,2.14-1.88C142.72,244,143.39,244.82,143.3,246.66Z"/><path class="cls-2" d="M142.62,228.68c1.38.41,2.84-1.28,3.68.69a2.55,2.55,0,0,1-1.5,2.79C143.65,232.33,142.78,231.11,142.62,228.68Z"/><path class="cls-2" d="M137.38,336.63c-1.39,0-2.64-1.07-2.37-2a2.35,2.35,0,0,1,1.48-1.34c.95-.23,2,1,1.79,2.09C138.18,335.93,137.6,336.35,137.38,336.63Z"/><path class="cls-2" d="M145,297.34c-1.23.72-1.9,1.43-2.54,1.41-1.19,0-1.46-1.21-1.35-2.15,0-.36,1-.95,1.47-.85C143.27,295.91,143.85,296.55,145,297.34Z"/><path class="cls-2" d="M135.07,364.76c1.48-1.72,2.56-2.11,3.14-1.07a2.33,2.33,0,0,1-.21,2.22C136.59,367,135.81,365.78,135.07,364.76Z"/><path class="cls-2" d="M148.13,163.25a9.69,9.69,0,0,1,1.43,2.46c.15.87-.51,1.4-1.43,1.37a1.52,1.52,0,0,1-1.48-1.76C146.68,164.76,147.38,164.25,148.13,163.25Z"/></g></svg>