<svg xmlns="http://www.w3.org/2000/svg" viewBox="0 0 500 500"><defs><style>.cls-1{fill:#ffeb4d;}.cls-2{fill:#ff4d5c;}</style></defs><title>society6</title><g id="society6"><path class="cls-1" d="M400.13,249.51c-29.33-75.33-106.46-22.67-106.46-22.67,35.33-86,94.58-81.67,94.58-81.67v-15c-107,2.67-144.75,91.5-144.75,91.5-3.5-29.83-58.21-26.17-58.21-26.17s-53.46-.67-64.13,32,12.21,52,30.87,56,44.1,17.33,35.44,36.67-32.62,16.67-32.62,16.67.68-39.33-35.32-38.67-34,49.33,38.66,50.67,78-45.33,78-45.33C275.52,400.17,429.47,324.84,400.13,249.51ZM232.57,282.83c1.05,2.16,1.06,2.93.35,1.34a5.52,5.52,0,0,1-.35-1.34c-2.91-6-13.88-22.65-40.31-30-36-10-39.33-41.33-2-46.67,0,0,14.67,58,48,32C238.26,238.17,231.14,273.76,232.57,282.83Zm72.35,52.67c-29.33-2.67-20-83.33-14.67-89.33,15-16.93,47.33-27.33,55.33,4S334.26,338.17,304.92,335.51Z"/><path class="cls-2" d="M416.3,239.51C387,164.17,310.76,216.84,310.76,216.84c35.33-86,95.5-81.67,95.5-81.67v-15c-107,2.67-145.67,91.5-145.67,91.5-3.5-29.83-58.67-26.17-58.67-26.17s-53.69-.67-64.35,32,12.09,52,30.76,56,44,17.33,35.38,36.67-32.65,16.67-32.65,16.67.67-39.33-35.33-38.67-34,49.33,38.66,50.67,78-45.33,78-45.33C291.69,390.17,445.63,314.84,416.3,239.51ZM248.74,272.83c1.05,2.16,1.06,2.93.35,1.34a5.52,5.52,0,0,1-.35-1.34c-2.91-6-13.88-22.65-40.31-30-36-10-39.33-41.33-2-46.67,0,0,14.67,58,48,32C254.43,228.17,247.31,263.76,248.74,272.83Zm72.35,52.67c-29.33-2.67-20-83.33-14.67-89.33,15-16.93,47.33-27.33,55.33,4S350.43,328.17,321.09,325.51Z"/></g></svg>